<?xml version="1.0" standalone="no"?>
<!DOCTYPE svg PUBLIC "-//W3C//DTD SVG 20010904//EN"
 "http://www.w3.org/TR/2001/REC-SVG-20010904/DTD/svg10.dtd">
<svg version="1.0" xmlns="http://www.w3.org/2000/svg"
 width="512.000000pt" height="512.000000pt" viewBox="0 0 512.000000 512.000000"
 preserveAspectRatio="xMidYMid meet">

<g transform="translate(0.000000,512.000000) scale(0.100000,-0.100000)"
fill="#000000" stroke="none">
<path d="M2683 4806 c-137 -32 -302 -152 -364 -266 -23 -43 -27 -45 -79 -51
-249 -28 -455 -215 -500 -453 -8 -45 -18 -69 -29 -73 -71 -25 -121 -104 -121
-193 0 -101 56 -178 147 -203 40 -10 44 -14 38 -37 -51 -198 -96 -586 -111
-954 l-7 -170 -40 -64 c-22 -35 -52 -98 -66 -141 -22 -66 -37 -89 -98 -157
l-73 -79 0 138 0 138 39 52 c197 261 185 627 -29 870 -56 64 -79 63 -142 -5
-136 -148 -198 -390 -153 -602 18 -83 81 -216 129 -273 l36 -41 0 -140 0 -140
-73 77 c-61 63 -76 86 -91 136 -63 210 -232 387 -434 454 -139 47 -310 52
-348 10 -17 -19 -18 -24 -2 -100 42 -204 178 -375 373 -468 101 -49 154 -62
285 -70 l104 -6 56 -66 c30 -37 71 -93 90 -125 33 -55 35 -63 38 -164 l3 -105
-45 -19 c-64 -25 -138 -95 -172 -161 -24 -46 -32 -55 -49 -49 -97 30 -126 35
-185 30 -150 -11 -286 -120 -321 -256 l-12 -48 -66 -4 c-37 -3 -88 -14 -114
-26 -65 -29 -151 -113 -184 -181 -25 -50 -28 -67 -28 -156 0 -93 2 -104 32
-160 38 -74 105 -138 181 -173 l57 -27 935 0 935 0 62 29 c40 18 81 48 113 82
l51 54 147 -12 c199 -17 1117 -17 1317 0 83 7 224 19 315 28 l165 15 80 -53
c124 -83 301 -129 408 -106 55 11 114 60 138 112 62 136 -21 396 -174 544
l-45 44 14 51 c60 225 88 539 88 1017 1 570 -43 1045 -126 1369 l-21 85 24 15
c54 34 87 80 99 135 22 109 -16 198 -105 241 -30 15 -55 33 -55 40 0 26 -71
152 -114 203 -39 45 -46 60 -46 96 0 118 -63 251 -169 357 -178 177 -418 217
-650 107 -84 -39 -214 -168 -250 -245 -24 -51 -26 -53 -65 -53 -23 0 -50 -3
-61 -5 -16 -5 -26 6 -55 61 -41 78 -135 179 -204 219 -127 74 -290 101 -423
71z m256 -125 c33 -10 80 -30 103 -44 64 -37 145 -129 174 -194 14 -32 31 -69
37 -83 l13 -25 134 4 c84 2 139 7 146 15 6 6 18 32 28 57 62 170 236 289 421
289 250 0 455 -205 455 -455 0 -45 4 -55 36 -86 39 -38 98 -122 108 -156 l7
-23 -1376 0 -1377 0 7 38 c12 68 66 165 124 223 78 77 162 117 282 132 52 7
100 16 107 20 7 5 26 34 42 66 95 189 325 286 529 222z m1810 -847 c28 -36 28
-102 1 -132 l-21 -22 -1489 0 c-1477 0 -1490 0 -1510 20 -29 29 -28 112 2 140
22 20 26 20 1509 20 l1488 0 20 -26z m-102 -319 c8 -22 27 -105 43 -185 59
-297 89 -626 97 -1085 8 -467 -16 -816 -73 -1070 -43 -191 -47 -166 37 -248
109 -107 167 -230 170 -359 3 -99 -35 -127 -148 -113 -107 13 -194 52 -286
128 l-48 40 -167 -17 c-479 -47 -889 -62 -1302 -47 -168 6 -343 14 -388 18
l-84 6 5 41 c21 202 -127 384 -330 404 l-66 7 -13 46 c-30 102 -129 203 -230
236 -51 16 -52 17 -58 62 -10 86 -25 295 -32 462 l-6 165 68 19 c244 66 439
271 490 515 20 98 10 115 -75 125 -131 15 -295 -27 -430 -111 l-44 -27 7 144
c15 324 59 674 105 847 l12 42 1366 -2 1366 -3 14 -40z m-3275 -531 c55 -103
71 -178 66 -304 -4 -79 -11 -120 -29 -165 l-24 -60 -5 93 c-4 78 -8 96 -24
108 -27 19 -52 18 -76 -6 -17 -17 -20 -33 -20 -112 0 -104 -7 -104 -41 2 -29
89 -29 239 0 330 23 74 90 192 105 187 6 -2 27 -35 48 -73z m-797 -449 c102
-27 184 -74 260 -150 39 -38 79 -85 89 -104 l19 -34 -54 32 c-111 66 -176 93
-198 81 -53 -28 -47 -81 13 -112 59 -30 208 -120 204 -123 -9 -9 -112 21 -178
52 -104 50 -207 153 -254 254 -55 119 -55 119 -4 119 24 0 70 -7 103 -15z
m1630 -7 c-3 -13 -22 -57 -42 -98 -47 -98 -150 -203 -243 -248 -61 -30 -179
-66 -187 -58 -5 5 108 76 174 109 83 43 100 89 46 124 -24 16 -28 15 -96 -20
-40 -20 -91 -48 -115 -62 l-44 -27 18 33 c9 19 49 66 88 104 103 101 237 163
359 164 45 1 48 0 42 -21z m-545 -645 c0 -111 13 -334 26 -468 l6 -60 -20 30
c-52 79 -159 149 -246 161 l-46 7 0 89 c0 99 15 140 86 234 75 100 104 124
151 124 l43 0 0 -117z m-166 -487 c45 -26 106 -103 106 -133 0 -7 9 -22 20
-33 18 -18 28 -19 88 -14 90 8 143 -7 199 -59 56 -51 82 -106 83 -169 0 -76
19 -88 122 -81 95 6 132 -5 192 -57 108 -96 112 -255 8 -359 -32 -32 -62 -51
-92 -59 -35 -10 -255 -12 -951 -10 l-906 3 -49 30 c-56 35 -108 111 -118 174
-15 97 38 203 129 254 47 26 56 28 136 23 110 -6 129 4 129 72 0 96 79 204
169 230 87 27 177 8 247 -51 60 -51 103 -29 115 58 24 180 216 273 373 181z"/>
<path d="M3920 4550 c-11 -11 -20 -29 -20 -40 0 -11 9 -29 20 -40 17 -17 33
-20 105 -20 78 0 88 2 110 25 30 29 31 49 5 75 -17 17 -33 20 -110 20 -77 0
-93 -3 -110 -20z"/>
<path d="M2717 4432 c-22 -24 -21 -55 2 -76 15 -14 36 -16 117 -14 94 3 99 4
113 29 13 24 13 29 -2 53 -17 25 -21 26 -116 26 -82 0 -101 -3 -114 -18z"/>
<path d="M3637 4332 c-24 -26 -21 -68 5 -86 16 -11 46 -16 103 -16 94 0 125
15 125 59 0 49 -26 61 -127 61 -74 0 -93 -3 -106 -18z"/>
<path d="M2430 4243 c-41 -15 -51 -62 -20 -93 17 -17 33 -20 110 -20 77 0 93
3 110 20 26 26 25 46 -5 75 -22 22 -32 25 -102 24 -43 0 -85 -3 -93 -6z"/>
<path d="M2910 4194 c-41 -16 -53 -70 -22 -97 23 -21 189 -24 214 -4 27 20 30
52 9 78 -17 21 -28 24 -103 26 -45 1 -90 0 -98 -3z"/>
<path d="M3935 4189 c-26 -16 -35 -29 -35 -55 0 -42 29 -54 128 -54 79 0 95 3
112 20 25 25 25 41 1 71 -17 21 -29 24 -103 27 -51 1 -91 -2 -103 -9z"/>
<path d="M2041 4158 c-39 -21 -48 -44 -31 -76 15 -26 18 -27 115 -30 92 -3
101 -1 118 19 23 28 22 52 -4 75 -26 24 -161 32 -198 12z"/>
<path d="M3321 4157 c-39 -20 -48 -43 -31 -75 15 -26 18 -27 117 -30 100 -3
102 -2 119 23 21 32 7 71 -32 85 -36 14 -144 12 -173 -3z"/>
<path d="M4043 3414 c-15 -24 -15 -29 -2 -53 l15 -26 188 -3 c165 -2 191 0
207 14 24 22 24 56 1 77 -16 15 -46 17 -205 17 l-187 0 -17 -26z"/>
<path d="M2982 3090 c-60 -37 -62 -53 -62 -427 0 -215 -4 -353 -11 -378 -6
-22 -113 -247 -237 -500 -250 -511 -254 -521 -210 -605 13 -26 41 -57 66 -75
l44 -30 646 -3 c725 -3 700 -5 766 68 40 44 60 107 51 153 -4 18 -106 235
-227 482 -121 248 -228 468 -236 490 -13 33 -17 106 -21 405 -5 277 -9 371
-19 388 -26 45 -64 52 -299 52 -201 0 -221 -2 -251 -20z m458 -438 c0 -260 3
-350 14 -392 8 -31 116 -262 240 -514 124 -252 226 -469 226 -482 0 -13 -11
-36 -24 -51 l-24 -28 -630 0 -630 0 -26 24 c-16 15 -26 35 -26 52 0 17 95 222
225 487 123 252 231 485 240 517 12 47 15 126 15 392 l0 333 200 0 200 0 0
-338z"/>
<path d="M2966 1864 c-14 -13 -16 -50 -16 -248 0 -213 2 -234 18 -249 24 -22
44 -21 71 1 19 15 21 29 23 136 l3 119 87 -131 c94 -141 120 -162 158 -127 19
17 20 32 20 251 0 251 -3 264 -54 264 -45 0 -55 -26 -58 -155 l-3 -119 -74
114 c-41 63 -83 125 -94 138 -24 26 -59 29 -81 6z"/>
<path d="M3423 1651 c-40 -25 -50 -54 -28 -87 14 -21 23 -25 48 -22 18 3 40 8
49 13 12 5 20 2 24 -9 4 -10 -14 -34 -55 -74 -67 -63 -77 -96 -41 -132 18 -18
33 -20 129 -20 118 0 134 7 134 55 0 37 -21 55 -61 55 -34 0 -35 1 -18 19 25
27 36 85 25 126 -5 18 -25 47 -45 64 -28 25 -43 31 -82 31 -29 0 -59 -8 -79
-19z"/>
<path d="M4516 3088 c-12 -19 -13 -37 -5 -98 23 -184 40 -458 46 -740 5 -253
8 -308 21 -322 16 -19 49 -23 68 -10 34 22 37 52 30 316 -12 447 -44 826 -73
858 -23 26 -69 23 -87 -4z"/>
<path d="M1315 1308 c-68 -37 -86 -94 -39 -125 24 -16 28 -16 60 2 34 18 35
18 57 -3 28 -26 45 -27 75 -6 26 18 28 46 5 85 -30 50 -110 74 -158 47z"/>
<path d="M1690 1094 c-30 -8 -75 -21 -100 -28 -39 -12 -49 -12 -65 1 -28 20
-67 12 -83 -17 -11 -20 -12 -33 -3 -68 18 -67 35 -69 183 -28 70 20 129 36
133 36 3 0 5 -32 4 -70 -1 -55 2 -75 16 -90 22 -24 43 -25 73 -4 20 14 22 23
22 109 0 86 -2 96 -25 124 -23 27 -39 35 -85 46 -8 2 -40 -3 -70 -11z"/>
</g>
</svg>
