<?xml version="1.0" standalone="no"?>
<!DOCTYPE svg PUBLIC "-//W3C//DTD SVG 20010904//EN"
 "http://www.w3.org/TR/2001/REC-SVG-20010904/DTD/svg10.dtd">
<svg version="1.0" xmlns="http://www.w3.org/2000/svg"
 width="512.000000pt" height="512.000000pt" viewBox="0 0 512.000000 512.000000"
 preserveAspectRatio="xMidYMid meet">

<g transform="translate(0.000000,512.000000) scale(0.100000,-0.100000)"
fill="#000000" stroke="none">
<path d="M1350 4158 c-25 -13 -25 -15 -28 -163 -2 -116 1 -159 13 -190 8 -22
87 -137 175 -255 l160 -215 0 -181 c0 -147 3 -184 15 -194 29 -24 35 0 35 151
0 82 4 149 8 149 4 0 55 -53 114 -117 151 -167 164 -179 182 -163 11 8 13 17
7 29 -5 9 -73 86 -152 171 -156 170 -499 618 -499 653 0 4 162 7 360 7 l359 0
39 -52 c22 -29 83 -115 136 -190 68 -97 103 -138 117 -138 37 0 19 37 -96 201
l-116 164 43 3 c24 2 108 -5 188 -15 193 -24 467 -24 660 0 80 10 165 17 188
15 l44 -3 -116 -164 c-64 -91 -116 -173 -116 -183 0 -11 7 -18 19 -18 14 0 49
41 117 138 53 75 114 161 136 190 l39 52 359 0 c198 0 360 -3 360 -7 0 -36
-343 -482 -504 -656 -80 -88 -146 -165 -146 -172 0 -7 8 -16 17 -20 19 -7 31
5 205 195 l88 95 0 -957 0 -958 -24 -15 c-40 -27 -137 -56 -208 -64 -77 -8
-99 -21 -78 -46 11 -14 25 -16 69 -10 73 8 153 31 220 62 63 30 123 28 191 -7
50 -25 150 -120 150 -141 0 -15 -33 -23 -430 -96 -126 -24 -164 -26 -570 -32
l-435 -6 -3 -23 -4 -24 454 5 c404 4 464 7 558 25 58 11 181 35 275 53 136 26
174 37 192 55 32 32 29 54 -17 112 -53 67 -142 125 -224 147 l-66 18 0 981 1
981 159 215 c88 118 167 233 175 255 12 31 15 74 13 190 -3 148 -3 150 -28
163 -40 21 -879 10 -1060 -14 -183 -24 -477 -24 -660 0 -181 24 -1020 35
-1060 14z m740 -158 l0 -110 -360 0 -360 0 0 110 0 110 360 0 360 0 0 -110z
m335 82 c83 -9 224 -17 315 -17 91 0 233 8 315 17 83 9 178 19 213 22 l62 6 0
-108 0 -108 -172 -18 c-95 -9 -228 -22 -295 -27 -128 -11 -181 -9 -540 27
l-173 18 0 108 0 108 63 -6 c34 -3 130 -13 212 -22z m1685 -82 l0 -110 -360 0
-360 0 0 110 0 110 360 0 360 0 0 -110z"/>
<path d="M2430 3323 c-51 -35 -67 -81 -50 -144 13 -46 50 -77 102 -85 l38 -7
0 -242 c0 -248 2 -260 38 -248 9 4 12 62 12 249 l0 244 195 0 195 0 0 -80 0
-79 -67 -3 c-62 -3 -68 -5 -71 -25 -3 -22 0 -23 67 -23 l71 0 0 -70 0 -70 -57
0 c-66 0 -86 -9 -81 -36 3 -16 14 -19 69 -22 l67 -3 6 -67 c4 -37 14 -92 22
-122 9 -30 102 -233 207 -450 211 -437 216 -455 164 -507 l-27 -28 -463 -5
-462 -5 -3 -22 -3 -23 461 0 c406 0 466 2 496 16 47 22 76 67 82 125 4 46 -4
67 -191 456 -107 225 -202 432 -211 462 -13 44 -16 107 -16 317 l0 262 37 7
c22 4 50 20 70 40 27 27 33 41 33 77 0 51 -29 104 -66 118 -14 6 -157 10 -332
10 -273 0 -310 -2 -332 -17z m659 -59 c25 -32 27 -61 5 -92 -15 -22 -16 -22
-321 -22 -345 0 -343 0 -343 71 0 68 4 69 341 69 l298 0 20 -26z"/>
<path d="M1763 2898 c-51 -56 -109 -164 -139 -258 -50 -158 -11 -356 102 -512
34 -48 34 -49 34 -154 l0 -105 -56 83 c-31 46 -63 106 -71 133 -49 165 -171
317 -304 379 -123 58 -351 89 -365 51 -10 -24 14 -103 57 -193 96 -198 270
-312 507 -330 l86 -7 38 -50 c43 -57 95 -158 104 -202 6 -29 4 -30 -58 -47
-70 -19 -146 -63 -181 -105 -18 -21 -35 -29 -74 -34 -101 -12 -192 -79 -234
-171 -10 -23 -19 -51 -19 -63 0 -14 -17 -33 -50 -57 -64 -46 -121 -131 -127
-190 -5 -40 -2 -48 25 -76 l30 -30 722 0 722 0 29 29 c21 22 29 39 29 66 0 63
-58 151 -136 207 -28 20 -44 39 -44 52 0 40 -47 122 -94 163 -49 43 -118 73
-169 73 -20 0 -44 13 -80 46 -61 55 -109 80 -177 95 -51 11 -51 11 -44 42 9
46 60 144 104 203 l38 51 89 6 c180 12 337 89 429 210 76 101 147 269 131 310
-8 22 -109 23 -215 1 -219 -44 -375 -190 -450 -419 -11 -33 -45 -98 -76 -143
l-56 -83 0 104 c0 98 1 105 29 143 45 61 99 176 116 245 30 129 14 250 -51
385 -33 70 -106 174 -122 174 -5 0 -18 -10 -29 -22z m67 -109 c45 -69 77 -153
91 -235 17 -97 0 -189 -54 -296 l-42 -83 -2 115 c-3 141 -7 160 -33 160 -26 0
-30 -19 -33 -160 l-2 -115 -38 75 c-69 140 -80 259 -35 395 21 64 93 195 107
195 5 0 23 -23 41 -51z m-625 -335 c142 -36 253 -127 324 -263 22 -43 41 -84
41 -90 0 -6 -48 24 -106 68 -61 46 -112 77 -120 74 -34 -13 -11 -44 91 -119
57 -43 103 -79 101 -81 -6 -6 -152 25 -196 43 -67 26 -145 80 -191 133 -40 46
-112 181 -125 235 l-7 29 64 -7 c35 -4 91 -14 124 -22z m1351 -1 c-13 -56 -87
-192 -131 -241 -55 -61 -122 -105 -200 -132 -56 -19 -166 -41 -173 -35 -2 2
42 38 97 80 97 75 120 106 87 118 -8 3 -58 -27 -117 -73 -57 -44 -105 -77
-108 -75 -2 3 13 39 33 80 52 106 139 196 230 240 69 33 185 62 255 64 31 1
33 -1 27 -26z m-637 -833 c26 -12 70 -43 97 -71 37 -38 55 -49 80 -49 47 0
121 -25 158 -54 39 -29 86 -116 86 -157 0 -22 10 -35 43 -58 106 -74 168 -184
118 -211 -13 -6 -255 -10 -715 -10 -618 0 -696 2 -710 16 -19 19 -20 26 -2 68
18 43 69 100 123 137 33 23 43 36 43 57 1 38 32 102 68 138 41 42 92 64 159
71 49 5 60 11 90 44 92 102 236 133 362 79z"/>
<path d="M1652 1518 c-17 -17 -15 -35 9 -84 15 -31 32 -48 63 -63 53 -26 86
-26 136 -1 62 31 106 138 64 154 -23 9 -31 1 -38 -38 -4 -18 -14 -40 -24 -49
-59 -54 -135 -34 -163 43 -18 48 -28 57 -47 38z"/>
<path d="M1464 1305 c-3 -8 1 -24 10 -37 22 -31 20 -74 -5 -99 -21 -21 -48
-22 -122 -3 -26 6 -28 4 -25 -17 2 -16 15 -30 41 -43 51 -24 100 -15 144 29
28 28 33 40 33 83 0 35 -6 57 -21 76 -23 29 -47 34 -55 11z"/>
<path d="M2060 1293 c-18 -23 -21 -37 -18 -82 4 -45 10 -59 36 -82 43 -38 91
-46 139 -23 26 13 39 27 41 43 3 21 1 23 -25 17 -77 -19 -94 -19 -119 5 -28
26 -31 64 -8 97 34 49 -9 71 -46 25z"/>
<path d="M1723 1220 c-67 -40 -89 -155 -25 -133 6 3 12 11 12 18 0 49 56 94
100 80 30 -9 60 -45 60 -71 0 -24 20 -36 40 -24 17 11 7 76 -17 102 -45 50
-116 62 -170 28z"/>
<path d="M2609 2013 c-2 -264 2 -397 12 -407 5 -5 14 -4 24 4 11 9 15 34 15
104 l0 92 49 48 49 48 112 -148 c107 -143 140 -172 148 -132 2 10 -42 77 -100
155 -58 76 -108 144 -112 152 -6 9 25 47 104 126 79 79 111 118 107 129 -4 9
-12 16 -19 16 -7 0 -85 -72 -173 -160 l-160 -160 -5 157 c-5 154 -6 158 -27
161 l-23 3 -1 -188z"/>
<path d="M2253 1962 c-18 -13 -155 -312 -149 -327 15 -40 39 -11 111 138 41
83 75 159 75 168 0 19 -22 31 -37 21z"/>
</g>
</svg>
