<?xml version="1.0" standalone="no"?>
<!DOCTYPE svg PUBLIC "-//W3C//DTD SVG 20010904//EN"
 "http://www.w3.org/TR/2001/REC-SVG-20010904/DTD/svg10.dtd">
<svg version="1.0" xmlns="http://www.w3.org/2000/svg"
 width="512.000000pt" height="512.000000pt" viewBox="0 0 512.000000 512.000000"
 preserveAspectRatio="xMidYMid meet">

<g transform="translate(0.000000,512.000000) scale(0.100000,-0.100000)"
fill="#000000" stroke="none">
<path d="M1336 4144 c-25 -24 -23 -294 3 -349 10 -22 88 -135 174 -251 l157
-211 0 -176 c0 -96 3 -182 6 -191 9 -24 43 -20 49 7 3 12 6 81 8 153 l2 131
125 -138 c69 -75 133 -141 144 -144 16 -6 35 7 36 26 0 3 -66 77 -146 165
-125 136 -463 567 -503 642 l-12 22 364 0 364 0 126 -178 c145 -205 151 -212
174 -189 15 14 5 30 -106 189 -104 147 -119 173 -102 176 11 2 105 -6 208 -17
238 -27 428 -27 666 0 103 11 197 19 208 17 18 -3 13 -13 -40 -87 -48 -68 -58
-88 -50 -103 5 -10 13 -18 18 -18 12 0 43 38 105 128 l58 82 364 0 365 0 -11
-21 c-43 -79 -357 -480 -492 -627 -99 -108 -158 -179 -156 -190 8 -42 39 -19
169 123 l134 147 3 -949 2 -948 -22 -17 c-34 -25 -143 -58 -216 -65 -67 -6
-85 -21 -62 -49 23 -26 168 1 277 52 67 32 75 34 119 24 58 -13 98 -33 151
-77 44 -35 89 -91 80 -99 -6 -7 -391 -81 -513 -99 -77 -11 -197 -15 -500 -15
-220 0 -405 -4 -412 -9 -8 -5 -12 -17 -10 -27 3 -18 20 -19 363 -22 204 -2
409 2 473 8 109 10 573 93 619 111 30 11 46 51 33 83 -27 72 -187 187 -282
202 l-38 7 0 981 0 981 157 210 c86 116 164 228 174 250 26 55 28 325 3 349
-14 14 -68 16 -452 16 -375 0 -463 -3 -617 -21 -106 -12 -244 -20 -335 -20
-91 0 -229 8 -335 20 -154 18 -242 21 -617 21 -384 0 -438 -2 -452 -16z m754
-149 l0 -105 -360 0 -360 0 0 105 0 105 360 0 360 0 0 -105z m356 85 c226 -25
362 -25 588 0 99 11 205 20 238 20 l58 0 0 -104 0 -105 -42 -5 c-365 -41 -569
-52 -708 -37 -58 6 -163 16 -235 22 -71 6 -145 13 -162 15 l-33 5 0 104 0 105
58 0 c33 0 139 -9 238 -20z m1654 -85 l0 -105 -355 0 -355 0 0 105 0 105 355
0 355 0 0 -105z"/>
<path d="M2974 3566 l-34 -34 0 -233 0 -234 -34 -27 c-36 -29 -76 -100 -76
-136 0 -20 -3 -21 -64 -15 -58 5 -70 3 -133 -27 -58 -28 -84 -34 -175 -40
-129 -10 -146 -18 -241 -124 -37 -41 -90 -88 -117 -103 -50 -28 -65 -58 -35
-69 27 -11 123 56 195 136 39 43 83 83 98 88 15 6 68 13 117 15 76 4 101 9
160 38 73 35 119 41 168 21 l27 -12 0 -214 c0 -142 4 -217 11 -221 6 -4 38 6
72 21 53 25 74 29 147 29 73 0 93 -5 143 -29 83 -40 87 -36 87 84 l0 101 52
-28 c91 -50 122 -89 148 -186 23 -86 35 -103 61 -87 19 12 -3 116 -39 190 -22
45 -39 63 -92 97 -36 22 -79 53 -97 67 l-31 26 -4 133 c-4 145 -12 173 -73
237 l-34 35 -3 230 c-3 200 -5 233 -21 256 -22 33 -57 49 -108 49 -33 0 -48
-7 -75 -34z m126 -36 c19 -19 20 -33 20 -229 l0 -209 -65 0 -65 -1 0 205 c0
204 0 205 25 229 29 30 58 32 85 5z m17 -501 c15 -5 41 -22 56 -37 55 -52 57
-62 57 -313 0 -216 -1 -231 -17 -224 -98 38 -205 41 -282 9 -18 -8 -37 -14
-42 -14 -5 0 -9 100 -9 223 0 194 3 227 19 262 39 85 134 126 218 94z"/>
<path d="M1741 2868 c-80 -108 -141 -271 -141 -377 1 -112 52 -261 125 -363
35 -47 35 -49 35 -151 l0 -102 -21 35 c-12 19 -35 52 -51 72 -16 20 -40 69
-53 107 -80 235 -213 366 -429 421 -96 24 -234 28 -242 6 -9 -23 24 -124 69
-211 97 -189 268 -297 492 -312 l90 -6 38 -51 c44 -60 94 -158 103 -202 6 -30
4 -31 -33 -38 -60 -10 -138 -51 -191 -100 -41 -38 -56 -46 -88 -46 -97 0 -209
-93 -242 -201 -15 -47 -26 -64 -60 -89 -65 -47 -132 -149 -132 -202 0 -32 28
-75 57 -87 21 -8 217 -11 741 -9 l714 3 24 28 c52 60 21 152 -86 250 -52 48
-69 70 -74 98 -19 104 -146 209 -254 209 -28 0 -45 10 -89 51 -57 54 -114 84
-181 95 -39 6 -41 8 -36 33 11 48 54 133 98 196 l45 62 88 6 c269 18 453 161
544 424 10 31 19 69 19 85 l0 28 -77 0 c-288 -1 -500 -157 -591 -435 -11 -33
-45 -98 -76 -143 l-56 -83 0 101 c0 100 0 100 39 158 140 206 160 416 59 616
-48 95 -107 176 -128 176 -5 0 -27 -24 -49 -52z m106 -107 c100 -168 105 -341
16 -513 l-38 -73 -5 135 c-5 128 -6 135 -26 138 -29 4 -34 -18 -34 -158 l-1
-115 -29 55 c-90 169 -93 328 -10 496 16 33 40 74 52 89 25 31 25 31 75 -54z
m-643 -308 c122 -30 211 -90 281 -188 46 -64 91 -153 82 -162 -3 -2 -50 30
-106 72 -99 77 -131 88 -131 47 0 -11 37 -45 101 -92 88 -66 97 -75 75 -78
-34 -4 -138 23 -204 53 -110 50 -245 224 -268 343 l-7 34 59 -7 c32 -4 86 -14
118 -22z m1352 0 c-4 -16 -26 -66 -48 -112 -72 -145 -182 -236 -337 -276 -35
-9 -75 -15 -89 -13 -23 3 -16 10 65 71 111 83 120 92 103 112 -7 8 -16 15 -20
15 -4 0 -55 -36 -113 -80 -59 -44 -107 -77 -107 -73 0 3 17 40 37 81 61 124
159 216 273 258 49 17 168 42 214 43 26 1 28 -1 22 -26z m-632 -836 c30 -14
74 -46 99 -71 37 -39 50 -46 83 -46 51 -1 105 -21 150 -55 39 -30 84 -113 84
-156 0 -20 12 -34 55 -63 54 -38 110 -109 122 -153 13 -55 41 -53 -731 -51
l-711 3 -3 31 c-4 41 48 117 113 166 39 30 52 47 61 80 31 122 123 198 240
198 33 0 44 6 67 35 86 108 240 142 371 82z"/>
<path d="M1645 1510 c-18 -56 51 -143 124 -155 84 -14 177 60 169 137 -5 49
-36 45 -54 -7 -17 -50 -47 -75 -89 -75 -44 0 -82 33 -95 81 -12 43 -44 55 -55
19z"/>
<path d="M1465 1310 c-4 -6 0 -22 9 -35 49 -75 -30 -160 -102 -109 -28 19 -52
12 -52 -15 0 -26 52 -54 102 -54 99 0 159 114 104 198 -17 26 -50 33 -61 15z"/>
<path d="M2055 1290 c-30 -58 -13 -140 37 -172 51 -33 128 -27 163 12 17 19
17 22 3 36 -14 14 -18 14 -46 0 -43 -22 -69 -20 -97 9 -29 28 -32 61 -9 93 9
13 13 29 10 37 -9 26 -44 17 -61 -15z"/>
<path d="M1753 1239 c-74 -22 -128 -149 -64 -149 14 0 23 9 27 28 21 89 129
96 152 9 6 -22 15 -33 30 -35 13 -2 22 2 23 10 8 94 -77 164 -168 137z"/>
<path d="M2664 2666 c-11 -28 0 -61 21 -61 16 0 20 7 20 35 0 25 -5 36 -18 38
-9 2 -20 -3 -23 -12z"/>
<path d="M2387 2664 c-27 -27 12 -62 54 -49 33 11 21 49 -16 53 -17 2 -34 0
-38 -4z"/>
<path d="M3111 2278 c-47 -23 -99 -86 -108 -132 -5 -21 -16 -32 -47 -45 -39
-17 -43 -17 -81 0 -51 24 -129 24 -180 0 -52 -23 -112 -91 -120 -134 -6 -29
-13 -36 -44 -45 -20 -7 -55 -27 -78 -47 -54 -46 -77 -105 -71 -185 6 -80 43
-135 117 -172 49 -25 65 -28 158 -28 l103 0 0 -194 c0 -197 3 -211 38 -199 9
4 12 52 12 199 l0 194 104 0 c94 0 109 3 156 28 36 18 64 43 87 76 l33 48 0
-182 0 -181 23 3 c22 3 22 4 25 196 l2 192 93 0 c50 0 109 5 130 11 49 13 115
73 138 124 52 114 -12 261 -131 296 -22 7 -40 18 -40 26 0 22 -29 75 -59 106
-63 69 -174 88 -260 45z m179 -51 c30 -16 51 -37 67 -67 l24 -44 -38 -11 c-52
-16 -83 -37 -83 -57 0 -29 19 -31 74 -7 39 15 63 20 89 15 85 -16 154 -103
142 -181 -12 -77 -84 -145 -154 -145 l-32 0 25 33 c56 74 17 102 -47 34 -37
-40 -80 -67 -107 -67 -5 0 -11 42 -12 93 -3 84 -5 92 -23 92 -18 0 -20 -8 -23
-92 -2 -75 -6 -93 -18 -93 -28 0 -72 29 -108 71 -23 27 -40 39 -51 36 -23 -9
-18 -42 12 -78 l27 -32 -46 5 c-57 7 -102 38 -128 88 -36 71 -21 141 43 197
48 42 98 51 157 29 75 -29 79 -29 86 -12 9 24 -21 52 -72 67 -37 11 -43 16
-38 34 19 61 93 114 160 115 17 0 50 -10 74 -23z m-437 -176 c4 -4 -4 -29 -19
-55 -23 -41 -26 -56 -22 -115 4 -84 36 -137 104 -177 38 -23 63 -29 131 -32
45 -3 83 -7 83 -11 0 -18 -42 -71 -71 -88 -35 -21 -109 -39 -109 -27 0 4 7 15
15 24 19 20 10 50 -15 50 -9 0 -25 -9 -36 -21 -22 -25 -66 -49 -89 -49 -12 0
-15 15 -15 84 0 59 -4 86 -12 89 -31 10 -38 -5 -38 -89 0 -69 -3 -84 -15 -84
-29 0 -72 29 -109 71 -23 27 -40 39 -51 36 -22 -9 -18 -42 10 -75 33 -40 32
-45 -12 -37 -111 21 -176 120 -144 218 25 76 123 128 201 107 21 -6 42 -15 45
-20 10 -15 45 -12 51 5 9 22 -12 42 -64 61 -26 10 -49 19 -51 20 -1 2 7 21 20
43 36 65 93 94 164 85 22 -3 43 -9 48 -13z"/>
<path d="M2650 2245 c-26 -31 38 -63 68 -33 17 17 -4 48 -32 48 -13 0 -29 -7
-36 -15z"/>
</g>
</svg>
