<?xml version="1.0" standalone="no"?>
<!DOCTYPE svg PUBLIC "-//W3C//DTD SVG 20010904//EN"
 "http://www.w3.org/TR/2001/REC-SVG-20010904/DTD/svg10.dtd">
<svg version="1.0" xmlns="http://www.w3.org/2000/svg"
 width="512.000000pt" height="512.000000pt" viewBox="0 0 512.000000 512.000000"
 preserveAspectRatio="xMidYMid meet">

<g transform="translate(0.000000,512.000000) scale(0.100000,-0.100000)"
fill="#000000" stroke="none">
<path d="M2440 5101 c-135 -30 -211 -64 -315 -141 -48 -36 -55 -38 -145 -43
-107 -6 -220 -38 -307 -88 -114 -66 -218 -188 -244 -288 l-12 -49 -58 -11
c-177 -35 -345 -177 -392 -332 -4 -13 -28 -17 -123 -22 -105 -6 -126 -10 -182
-38 -231 -113 -227 -439 6 -558 l38 -19 -33 -134 c-196 -782 -264 -1679 -183
-2409 l21 -186 -59 -60 c-169 -173 -187 -419 -43 -576 46 -50 127 -96 216
-124 57 -17 143 -18 1940 -18 l1880 0 79 28 c43 15 97 41 121 57 208 143 219
428 24 633 l-60 62 21 180 c82 733 15 1630 -181 2408 -16 65 -27 122 -24 128
4 5 14 9 23 9 38 0 120 49 164 99 84 93 103 223 49 336 -63 132 -168 184 -374
185 -55 0 -69 3 -73 18 -22 65 -65 134 -115 183 -67 66 -190 132 -278 150
l-58 11 -12 49 c-48 188 -279 352 -529 376 -54 5 -70 12 -108 43 -62 51 -176
106 -270 131 -115 30 -294 35 -404 10z m396 -165 c78 -25 184 -85 213 -120 25
-30 68 -46 123 -46 117 0 261 -55 342 -130 56 -52 96 -127 103 -195 8 -72 27
-89 125 -103 84 -13 168 -46 224 -88 36 -28 94 -104 94 -123 0 -8 -433 -11
-1470 -11 -1227 0 -1470 2 -1470 13 0 22 53 89 93 120 59 45 137 76 223 88 96
14 118 33 127 107 12 106 88 202 206 262 82 41 168 60 274 60 l88 0 60 50
c130 108 267 152 454 145 83 -2 130 -10 191 -29z m1624 -982 c105 -62 109
-202 7 -278 -28 -21 -36 -21 -862 -26 -774 -5 -836 -6 -855 -22 -30 -26 -27
-81 6 -107 26 -21 33 -21 765 -21 l737 0 11 -32 c24 -77 82 -326 115 -494 101
-520 145 -1079 126 -1580 -8 -205 -31 -471 -46 -547 l-6 -27 -798 0 c-564 0
-806 -3 -823 -11 -25 -11 -47 -47 -47 -75 0 -8 11 -26 25 -39 l24 -25 835 0
834 0 45 -44 c25 -24 58 -68 74 -97 23 -45 28 -66 28 -131 0 -69 -3 -80 -30
-119 -40 -57 -105 -96 -190 -114 -105 -22 -3645 -22 -3750 0 -85 18 -150 57
-190 114 -27 39 -30 50 -30 119 0 65 5 86 28 131 16 29 49 73 74 97 l45 44
938 0 939 0 20 26 c26 33 27 65 2 95 l-19 24 -915 3 -915 2 -6 28 c-16 77 -38
351 -45 551 -19 523 28 1090 134 1620 34 165 84 379 106 449 l11 32 809 0 810
0 24 25 c30 29 32 64 6 96 l-19 24 -874 5 -875 5 -37 29 c-112 85 -73 259 64
287 19 4 850 6 1845 5 1807 -1 1810 -1 1845 -22z"/>
<path d="M1883 3121 c-146 -50 -203 -154 -203 -371 0 -513 199 -1002 500
-1229 152 -114 289 -164 455 -165 140 -1 255 31 374 104 26 17 50 30 53 30 2
0 62 -65 133 -145 76 -87 138 -148 152 -151 52 -13 103 37 89 88 -3 13 -63 88
-133 167 -89 101 -124 147 -117 156 5 6 26 34 47 61 146 191 168 455 58 699
-107 236 -332 457 -611 600 -271 138 -639 211 -797 156z m377 -160 c257 -58
485 -179 663 -350 110 -106 169 -183 218 -286 96 -200 93 -383 -10 -542 -21
-33 -43 -63 -49 -67 -5 -3 -42 29 -81 73 l-71 78 19 149 c17 128 18 152 6 175
-23 44 -66 52 -108 19 -21 -17 -27 -34 -37 -106 -12 -82 -13 -85 -29 -68 -10
11 -51 57 -93 104 l-75 85 15 118 c16 132 11 160 -34 177 -50 19 -103 -19
-105 -74 -1 -70 -11 -70 -74 4 -33 38 -72 74 -86 80 -31 13 -73 0 -88 -29 -22
-41 -12 -67 58 -147 l69 -79 -61 -5 c-77 -7 -103 -21 -112 -61 -5 -23 -2 -38
13 -58 19 -26 20 -26 158 -27 l138 -1 93 -104 92 -104 -101 -5 c-95 -5 -101
-6 -125 -34 -29 -34 -25 -70 10 -100 20 -17 37 -18 185 -14 l162 4 71 -79 71
-80 -38 -24 c-136 -82 -314 -101 -464 -48 -177 62 -357 239 -468 460 -102 203
-170 537 -160 787 4 118 20 158 78 190 31 17 48 19 150 14 63 -3 153 -14 200
-25z"/>
</g>
</svg>
