<?xml version="1.0" standalone="no"?>
<!DOCTYPE svg PUBLIC "-//W3C//DTD SVG 20010904//EN"
 "http://www.w3.org/TR/2001/REC-SVG-20010904/DTD/svg10.dtd">
<svg version="1.0" xmlns="http://www.w3.org/2000/svg"
 width="512.000000pt" height="512.000000pt" viewBox="0 0 512.000000 512.000000"
 preserveAspectRatio="xMidYMid meet">

<g transform="translate(0.000000,512.000000) scale(0.100000,-0.100000)"
fill="#000000" stroke="none">
<path d="M1336 4144 c-25 -24 -23 -294 3 -349 10 -22 88 -135 174 -251 l157
-211 0 -176 c0 -96 3 -182 6 -191 9 -24 43 -20 49 7 3 12 6 81 8 153 l2 131
125 -138 c69 -75 133 -141 144 -144 16 -6 35 7 36 26 0 3 -66 77 -146 165
-126 136 -463 567 -503 642 l-12 22 364 0 364 0 126 -178 c145 -205 151 -212
174 -189 15 14 5 30 -106 189 -104 147 -119 173 -102 176 11 2 105 -6 208 -17
238 -27 428 -27 666 0 103 11 197 19 208 17 17 -3 3 -27 -97 -168 -64 -90
-118 -169 -121 -175 -2 -7 3 -18 12 -25 22 -18 30 -10 171 192 l126 178 364 0
365 0 -11 -21 c-42 -78 -356 -479 -487 -621 -151 -164 -173 -198 -132 -206 10
-2 65 50 145 138 l129 142 3 -948 2 -949 -22 -17 c-34 -25 -143 -58 -216 -65
-67 -6 -85 -21 -62 -49 23 -26 168 1 277 52 67 32 75 34 119 24 58 -13 98 -33
151 -77 44 -35 89 -91 80 -99 -6 -7 -391 -81 -513 -99 -77 -11 -197 -15 -500
-15 -220 0 -405 -4 -412 -9 -8 -5 -12 -17 -10 -27 3 -18 20 -19 363 -22 204
-2 409 2 473 8 109 10 573 93 619 111 30 11 46 51 33 83 -27 72 -187 187 -282
202 l-38 7 0 981 0 981 157 210 c86 116 164 228 174 250 26 55 28 325 3 349
-14 14 -68 16 -452 16 -375 0 -463 -3 -617 -21 -106 -12 -244 -20 -335 -20
-91 0 -229 8 -335 20 -154 18 -242 21 -617 21 -384 0 -438 -2 -452 -16z m754
-149 l0 -105 -360 0 -360 0 0 105 0 105 360 0 360 0 0 -105z m356 85 c226 -25
362 -25 588 0 99 11 205 20 238 20 l58 0 0 -104 0 -105 -42 -5 c-365 -41 -569
-52 -708 -37 -58 6 -163 16 -235 22 -71 6 -145 13 -162 15 l-33 5 0 104 0 105
58 0 c33 0 139 -9 238 -20z m1654 -85 l0 -105 -355 0 -355 0 0 105 0 105 355
0 355 0 0 -105z"/>
<path d="M2416 3310 c-42 -38 -54 -90 -32 -144 17 -40 67 -76 109 -76 l27 0 0
-244 c0 -249 2 -261 38 -249 9 4 12 62 12 249 l0 244 195 0 195 0 0 -80 0 -80
-64 0 c-46 0 -67 -4 -77 -16 -21 -26 14 -44 83 -44 l58 0 0 -65 0 -65 -64 0
c-44 0 -67 -5 -76 -15 -23 -28 5 -45 75 -45 l62 0 6 -76 c10 -107 31 -161 238
-589 124 -258 182 -390 182 -411 -1 -42 -28 -80 -65 -93 -20 -7 -184 -11 -474
-11 l-444 0 0 -25 0 -25 464 0 463 0 34 23 c18 12 44 38 57 57 44 65 35 92
-176 530 -104 217 -197 419 -206 449 -13 44 -16 106 -16 318 0 260 0 263 21
263 35 0 84 29 102 59 21 36 22 93 2 131 -30 58 -44 60 -384 60 l-310 0 -35
-30z m665 -39 c17 -13 23 -29 23 -56 0 -65 -1 -65 -338 -65 -332 0 -336 1
-336 64 1 73 12 75 341 76 266 0 288 -1 310 -19z"/>
<path d="M1741 2868 c-80 -108 -141 -271 -141 -377 1 -112 52 -261 125 -363
35 -47 35 -49 35 -151 l0 -102 -21 35 c-12 19 -35 52 -51 72 -16 20 -40 69
-53 107 -80 235 -213 366 -429 421 -96 24 -234 28 -242 6 -9 -23 24 -124 69
-211 97 -189 268 -297 492 -312 l90 -6 38 -51 c44 -60 94 -158 103 -202 6 -30
4 -31 -33 -38 -60 -10 -138 -51 -191 -100 -41 -38 -56 -46 -88 -46 -97 0 -209
-93 -242 -201 -15 -47 -26 -64 -60 -89 -65 -47 -132 -149 -132 -202 0 -32 28
-75 57 -87 21 -8 217 -11 741 -9 l714 3 24 28 c52 60 21 152 -86 250 -52 48
-69 70 -74 98 -19 104 -146 209 -254 209 -28 0 -45 10 -89 51 -57 54 -114 84
-181 95 -39 6 -41 8 -36 33 11 48 54 133 98 196 l45 62 88 6 c269 18 453 161
544 424 10 31 19 69 19 85 l0 28 -77 0 c-288 -1 -500 -157 -591 -435 -11 -33
-45 -98 -76 -143 l-56 -83 0 101 c0 100 0 100 39 158 140 206 160 416 59 616
-48 95 -107 176 -128 176 -5 0 -27 -24 -49 -52z m106 -107 c100 -168 105 -341
16 -513 l-38 -73 -5 135 c-5 128 -6 135 -26 138 -29 4 -34 -18 -34 -158 l-1
-115 -29 55 c-90 169 -93 328 -10 496 16 33 40 74 52 89 25 31 25 31 75 -54z
m-643 -308 c122 -30 211 -90 281 -188 46 -64 91 -153 82 -162 -3 -2 -50 30
-106 72 -99 77 -131 88 -131 47 0 -11 37 -45 101 -92 88 -66 97 -75 75 -78
-33 -4 -165 32 -219 60 -69 35 -169 143 -210 228 -20 41 -40 90 -43 108 l-7
34 59 -7 c32 -4 86 -14 118 -22z m1352 0 c-4 -16 -26 -66 -48 -112 -72 -145
-182 -236 -337 -276 -35 -9 -75 -15 -89 -13 -23 3 -16 10 65 71 111 83 120 92
103 112 -7 8 -16 15 -20 15 -4 0 -55 -36 -113 -80 -59 -44 -107 -77 -107 -73
0 3 17 40 37 81 61 124 159 216 273 258 49 17 168 42 214 43 26 1 28 -1 22
-26z m-632 -836 c30 -14 74 -46 99 -71 37 -39 50 -46 83 -46 51 -1 105 -21
150 -55 39 -30 84 -113 84 -156 0 -20 12 -34 55 -63 54 -38 110 -109 122 -153
13 -55 41 -53 -731 -51 l-711 3 -3 31 c-4 41 48 117 113 166 39 30 52 47 61
80 31 122 123 198 240 198 33 0 44 6 67 35 86 108 240 142 371 82z"/>
<path d="M1645 1510 c-18 -56 51 -143 124 -155 84 -14 177 60 169 137 -5 49
-36 45 -54 -7 -17 -50 -47 -75 -89 -75 -44 0 -82 33 -95 81 -12 43 -44 55 -55
19z"/>
<path d="M1465 1310 c-4 -6 0 -22 9 -35 49 -75 -30 -160 -102 -109 -28 19 -52
12 -52 -15 0 -26 52 -54 102 -54 99 0 159 114 104 198 -17 26 -50 33 -61 15z"/>
<path d="M2055 1290 c-30 -58 -13 -140 37 -172 51 -33 128 -27 163 12 17 19
17 22 3 36 -14 14 -18 14 -46 0 -43 -22 -69 -20 -97 9 -29 28 -32 61 -9 93 9
13 13 29 10 37 -9 26 -44 17 -61 -15z"/>
<path d="M1753 1239 c-74 -22 -128 -149 -64 -149 14 0 23 9 27 28 21 89 129
96 152 9 6 -22 15 -33 30 -35 13 -2 22 2 23 10 8 94 -77 164 -168 137z"/>
<path d="M2637 2193 c-4 -3 -7 -136 -7 -294 0 -293 1 -304 38 -292 9 3 12 38
12 129 l0 124 88 0 c114 0 152 12 195 59 58 64 60 157 6 226 -38 47 -68 55
-202 55 -68 0 -127 -3 -130 -7z m284 -81 c48 -54 35 -153 -26 -180 -14 -7 -68
-12 -120 -12 l-95 0 0 116 0 116 106 -4 c105 -3 106 -3 135 -36z"/>
<path d="M2174 1813 c-74 -155 -80 -179 -46 -191 15 -5 164 294 160 321 -2 12
-11 23 -20 25 -14 3 -34 -31 -94 -155z"/>
</g>
</svg>
