<?xml version="1.0" standalone="no"?>
<!DOCTYPE svg PUBLIC "-//W3C//DTD SVG 20010904//EN"
 "http://www.w3.org/TR/2001/REC-SVG-20010904/DTD/svg10.dtd">
<svg version="1.0" xmlns="http://www.w3.org/2000/svg"
 width="1492.000000pt" height="1460.000000pt" viewBox="0 0 1492.000000 1460.000000"
 preserveAspectRatio="xMidYMid meet">

<g transform="translate(0.000000,1460.000000) scale(0.100000,-0.100000)"
fill="#000000" stroke="none">
<path d="M1642 14590 c-68 -16 -163 -73 -213 -128 -61 -66 -84 -110 -103 -193
-15 -66 -21 -97 -56 -289 -12 -63 -27 -146 -35 -185 -44 -223 -49 -265 -38
-331 12 -68 58 -175 89 -209 47 -50 47 -50 21 -102 -37 -72 -169 -410 -222
-563 -230 -673 -349 -1301 -385 -2034 -13 -278 -16 -251 18 -227 37 27 85 32
90 9 3 -14 -3 -18 -26 -18 -32 0 -42 -14 -42 -56 0 -28 -17 -31 -36 -6 -11 14
-13 -230 -10 -1483 2 -825 5 -1509 6 -1520 1 -11 -2 -41 -5 -67 -6 -37 -4 -50
9 -63 9 -9 20 -13 26 -10 5 3 10 1 10 -4 0 -6 -6 -11 -14 -11 -8 0 -18 -8 -22
-17 -5 -10 -11 -637 -14 -1393 -5 -1316 -6 -1376 -24 -1410 -29 -56 -75 -98
-166 -153 -113 -69 -226 -181 -266 -267 -34 -71 -42 -99 -53 -178 -7 -44 -5
-55 9 -65 21 -15 22 -29 1 -44 -13 -9 -14 -18 -4 -65 7 -29 15 -62 18 -74 6
-19 1 -22 -41 -28 -98 -13 -164 -85 -164 -177 0 -41 6 -60 27 -88 33 -43 50
-58 83 -72 33 -14 14748 -13 14784 1 l26 10 0 154 c0 170 6 156 -68 171 l-33
7 6 76 c20 231 -106 457 -314 565 -84 44 -164 67 -234 67 l-55 0 -41 86 c-30
62 -60 104 -107 152 l-65 67 1 1293 c0 1119 -1 1292 -14 1292 -8 0 -16 -4 -18
-9 -5 -15 -58 -25 -58 -11 0 6 -5 8 -12 4 -8 -5 -9 -2 -4 11 5 15 4 16 -9 5
-14 -11 -19 -7 -16 13 0 4 -6 7 -14 7 -8 0 -15 7 -15 15 0 8 -5 14 -11 12 -6
-1 -13 9 -15 22 -5 30 -14 41 -14 18 0 -15 -2 -15 -20 1 -25 20 -60 24 -60 7
0 -7 -13 -24 -29 -37 -22 -19 -26 -29 -19 -41 5 -10 5 -17 1 -17 -4 -1 3 -7
17 -15 14 -7 25 -19 25 -27 0 -7 5 -13 12 -13 7 0 18 -6 25 -14 11 -12 10 -13
-2 -6 -10 6 -12 5 -5 -3 6 -6 26 -12 45 -14 23 -2 34 -8 32 -16 -1 -8 2 -11 7
-7 6 3 7 13 4 23 -6 15 -5 15 10 3 9 -7 17 -18 17 -24 0 -6 -3 -7 -7 -4 -3 4
-12 2 -18 -3 -7 -6 -23 -8 -36 -6 -13 3 -28 5 -34 5 -5 1 -3 6 5 12 12 9 11
10 -7 6 -17 -4 -28 3 -45 29 -13 19 -27 34 -31 34 -5 0 -5 5 -1 11 4 7 -2 9
-17 7 -22 -3 -24 -7 -23 -65 1 -52 5 -66 24 -83 25 -22 61 -82 37 -61 -8 6
-17 7 -22 3 -4 -4 -4 4 0 17 6 20 4 23 -9 18 -9 -4 -16 -1 -16 6 0 25 -20 -19
-20 -45 0 -34 17 -45 35 -22 7 11 17 16 21 11 4 -4 2 -7 -4 -7 -7 0 -12 -5
-12 -11 0 -5 5 -7 12 -3 7 4 8 3 4 -5 -4 -6 -12 -9 -17 -6 -5 4 -9 1 -9 -5 0
-6 -4 -9 -8 -6 -4 2 -9 -3 -11 -12 -2 -9 -5 -378 -7 -819 -3 -442 -8 -803 -12
-803 -4 0 -31 9 -61 18 l-54 18 -17 71 c-79 307 -363 503 -660 453 -115 -20
-112 -20 -161 39 -53 66 -160 145 -232 173 -57 22 -210 50 -231 42 -8 -3 -32
21 -60 61 -86 120 -220 209 -353 235 -33 7 -101 10 -152 9 l-91 -4 0 471 0
470 26 52 c29 58 69 96 134 126 39 18 67 21 205 23 88 2 165 -1 172 -5 10 -6
31 -72 63 -197 61 -237 165 -586 187 -627 51 -93 171 -156 278 -145 69 7 156
49 196 94 39 45 61 94 89 198 12 44 27 100 34 125 7 25 44 159 82 298 l69 252
173 0 c128 0 182 -4 207 -14 84 -35 146 -110 161 -191 3 -22 9 -43 11 -47 5
-10 83 41 83 54 0 5 -6 6 -12 2 -9 -6 -9 -3 0 9 15 18 32 9 45 -23 5 -13 6
-13 6 1 1 8 -4 20 -11 27 -14 14 0 16 21 3 8 -5 11 -17 6 -32 -4 -15 -3 -19 2
-11 7 9 14 6 30 -12 12 -13 19 -27 16 -30 -3 -3 2 -8 11 -12 9 -3 14 -10 11
-14 -5 -9 51 -25 73 -21 6 1 12 -4 12 -11 0 -7 5 -5 11 6 9 14 13 15 19 6 4
-7 13 -9 19 -6 18 11 13 56 -9 83 -19 24 -29 80 -12 70 9 -6 8 48 -2 90 -4 17
-14 34 -21 37 -8 3 -14 2 -13 -2 1 -4 -2 -15 -7 -25 -4 -9 -5 -26 -2 -38 6
-24 -12 -21 -27 5 -8 13 -7 20 4 29 15 12 18 19 28 65 10 50 -122 206 -232
271 -108 64 -180 81 -378 88 l-178 6 0 432 0 432 26 24 c65 61 145 199 180
314 18 57 19 108 19 890 l0 830 -23 75 c-31 96 -63 159 -123 242 -172 233
-476 350 -764 294 -301 -58 -530 -281 -609 -592 -14 -53 -16 -169 -16 -843 0
-866 -1 -854 65 -998 36 -78 75 -139 133 -205 l37 -43 -3 -426 -2 -426 -178
-6 c-197 -6 -245 -16 -352 -74 -154 -83 -257 -216 -308 -393 -13 -46 -16 -151
-19 -655 l-4 -600 -44 -90 c-25 -50 -45 -99 -45 -111 0 -40 -21 -51 -105 -57
-230 -17 -443 -196 -507 -426 -11 -42 -18 -99 -18 -158 l0 -92 -62 -33 c-80
-43 -176 -138 -223 -222 -36 -65 -75 -185 -75 -232 0 -18 -8 -24 -52 -34 -155
-34 -307 -140 -376 -260 -40 -70 -36 -68 -101 -58 -68 10 -220 -11 -272 -38
-17 -8 -38 -12 -49 -9 -29 9 -97 80 -122 127 l-23 43 -3 674 -3 673 -36 44
c-39 48 -58 55 -68 23 -5 -14 2 -33 19 -58 29 -42 32 -51 14 -51 -20 1 -120
142 -108 154 6 6 17 0 31 -18 21 -27 21 -27 36 -7 21 30 57 26 87 -10 l26 -31
0 29 c0 16 -7 39 -16 51 -15 22 -11 47 7 37 13 -9 12 4577 -1 4816 -11 185
-43 516 -60 619 -5 30 -16 100 -25 155 -85 524 -238 1055 -455 1580 -34 83
-67 162 -73 177 -9 23 -7 30 23 64 89 102 119 244 86 413 -29 145 -44 222 -61
321 -9 52 -19 105 -21 117 -2 12 -11 29 -20 37 -8 9 -12 16 -7 16 4 0 -7 13
-25 29 -32 30 -43 48 -19 35 6 -4 -5 9 -26 27 -20 19 -39 44 -41 56 -6 30 15
21 44 -19 12 -17 16 -27 9 -23 -8 5 -1 -4 14 -18 15 -15 26 -31 22 -36 -3 -5
-1 -12 5 -16 19 -12 22 44 5 102 -40 138 -137 241 -272 289 l-68 24 -3240 -1
c-1782 -1 -3255 -5 -3273 -9z m6467 -346 c33 -7 58 -34 64 -69 1 -11 6 -25 10
-32 4 -6 2 -13 -4 -15 -8 -3 -7 -22 1 -68 12 -62 33 -96 51 -84 5 3 9 0 9 -7
0 -7 3 -9 7 -6 12 13 32 -27 22 -45 -13 -24 -25 -23 -25 1 0 11 4 17 8 15 4
-3 8 0 8 6 0 7 -7 9 -16 6 -9 -3 -20 -6 -25 -6 -15 0 -10 -60 6 -76 14 -14 19
-11 16 9 -1 5 2 6 7 3 5 -3 14 6 21 21 6 14 14 23 18 20 3 -4 1 -13 -5 -20 -7
-8 -9 -16 -6 -20 3 -3 -6 -13 -21 -23 -31 -20 -31 -29 7 -232 l21 -113 -20
-27 -20 -27 -190 -3 -191 -2 -10 57 c-23 121 -40 190 -56 220 -60 117 -235
122 -301 9 -29 -50 -31 -98 -10 -196 8 -36 14 -71 15 -77 0 -10 -39 -13 -164
-13 l-164 0 -6 28 c-3 15 -12 72 -22 127 -19 119 -44 163 -106 194 -52 25 -95
27 -146 6 -53 -23 -79 -51 -97 -105 -14 -42 -14 -56 0 -141 8 -52 15 -97 15
-102 0 -4 -75 -6 -167 -5 l-167 3 -14 120 c-16 146 -38 191 -108 225 -36 18
-56 21 -96 17 -59 -7 -87 -23 -124 -73 -31 -40 -35 -87 -21 -221 l7 -73 -168
0 -169 0 -7 117 c-8 133 -19 166 -69 210 -64 56 -174 54 -232 -4 -52 -53 -58
-76 -53 -205 l5 -118 -168 0 -169 0 0 110 c0 117 -12 164 -52 207 -23 24 -58
31 -58 12 0 -17 -44 -53 -48 -40 -2 6 -8 11 -13 11 -6 0 -8 -4 -4 -9 3 -6 -3
-15 -14 -20 -15 -8 -23 -7 -35 4 -18 18 -30 20 -20 3 5 -9 2 -9 -9 1 -18 15
-23 26 -7 16 6 -3 10 -1 10 4 0 6 -6 11 -12 11 -9 0 -8 4 2 10 11 8 7 9 -15 4
-43 -10 -45 -12 -45 -50 0 -22 4 -33 10 -29 6 4 10 3 9 -2 -1 -4 1 -16 5 -25
9 -21 0 -52 -13 -44 -5 3 -14 -1 -21 -9 -11 -13 -10 -14 4 -9 12 5 15 2 10
-10 -3 -9 -9 -14 -14 -11 -11 7 -32 -66 -28 -100 3 -30 3 -30 -62 -38 -83 -10
-121 -10 -192 -2 -54 7 -57 6 -55 -14 1 -11 7 -21 15 -21 7 0 12 -6 10 -12 -3
-7 1 -19 9 -26 9 -9 10 -19 3 -31 -5 -10 -6 -22 -2 -26 4 -5 1 -4 -7 0 -11 6
-13 4 -8 -8 4 -12 2 -14 -10 -10 -12 5 -14 3 -8 -7 5 -9 4 -11 -3 -6 -7 4 -12
2 -12 -5 0 -8 -5 -7 -17 2 -15 12 -16 12 -10 -3 3 -10 1 -20 -5 -24 -7 -5 -8
-2 -3 6 6 9 4 12 -7 8 -9 -4 -15 0 -15 8 0 8 2 12 5 9 3 -2 19 6 36 18 17 12
34 22 38 22 3 0 10 3 14 8 4 4 1 7 -7 7 -12 0 -11 2 1 10 13 9 13 11 0 20 -8
5 -15 13 -15 17 -1 14 -24 48 -25 36 0 -15 -30 -18 -30 -4 0 5 7 16 15 25 20
20 20 115 -1 152 -13 23 -15 25 -11 7 6 -25 5 -26 -17 -17 -14 5 -12 10 11 32
15 14 21 23 13 20 -16 -5 -50 21 -50 39 0 19 25 16 41 -4 12 -14 12 -16 0 -8
-10 5 -12 4 -7 -3 14 -23 36 -13 36 16 0 42 -51 106 -99 126 -139 55 -251 -35
-251 -204 0 -31 -3 -78 -6 -104 l-7 -46 -164 0 -165 0 7 118 c6 111 5 119 -17
161 -34 63 -94 95 -166 87 -61 -5 -90 -21 -127 -70 -22 -29 -28 -54 -42 -165
l-16 -131 -164 0 -163 0 0 30 c0 16 5 60 12 97 16 95 6 138 -46 189 -67 68
-163 72 -233 11 -46 -41 -57 -68 -79 -209 l-19 -118 -168 0 -167 0 6 28 c3 15
12 52 20 83 18 75 17 106 -5 155 -41 90 -146 128 -235 84 -72 -35 -86 -67
-142 -327 -4 -23 -6 -23 -187 -23 -213 0 -227 4 -227 72 0 22 27 185 60 361
55 293 63 324 86 345 l25 22 3178 0 c1748 0 3193 -3 3210 -6z m234 -23 c9 -1
17 -8 17 -17 0 -8 5 -12 10 -9 6 3 17 0 25 -9 11 -11 12 -16 2 -19 -7 -3 -5
-6 6 -6 9 -1 17 -5 17 -11 0 -5 9 -19 20 -30 12 -12 18 -25 15 -31 -8 -11 -65
40 -65 58 0 7 -9 18 -20 25 -11 7 -20 19 -20 27 0 12 -3 12 -12 3 -7 -7 -17
-12 -22 -12 -6 0 -4 5 4 10 8 5 10 10 4 10 -6 0 -14 -3 -18 -7 -4 -5 -12 -9
-17 -9 -5 -1 -13 -2 -19 -3 -5 0 -10 -8 -10 -16 0 -9 -7 -18 -16 -22 -8 -3
-13 -12 -9 -21 3 -8 3 -24 -1 -34 -6 -19 -7 -19 -25 -2 -12 11 -17 24 -13 36
3 10 2 18 -3 18 -5 0 -9 10 -10 22 -2 20 0 19 17 -7 18 -28 20 -28 20 -8 0 17
4 21 17 16 12 -5 15 -2 10 10 -6 16 15 41 26 30 4 -3 7 -2 7 4 0 5 10 9 23 7
12 -1 30 -3 40 -3z m-63 -151 c13 -26 25 -38 33 -33 7 4 6 0 -2 -10 -12 -15
-12 -17 2 -11 12 4 19 -5 28 -36 8 -27 15 -37 21 -28 5 9 8 10 8 1 0 -20 -20
-25 -27 -6 -3 10 -17 29 -30 42 -12 13 -20 27 -17 32 3 5 -2 9 -11 9 -11 0
-15 5 -11 15 4 11 0 15 -11 13 -9 -2 -17 5 -18 15 -2 9 1 17 6 17 6 0 7 5 4
10 -3 6 -4 10 -1 10 3 0 15 -18 26 -40z m214 -9 c14 -16 15 -20 2 -30 -17 -14
-31 2 -22 26 5 11 2 14 -9 9 -9 -3 -13 -2 -10 4 9 15 20 12 39 -9z m-4234
-536 c-10 -12 -10 -15 3 -15 8 0 17 7 21 15 3 8 13 14 23 14 16 -1 16 -2 1 -6
-9 -2 -20 -13 -23 -23 -4 -12 -12 -17 -22 -13 -12 5 -14 3 -8 -7 6 -9 4 -11
-5 -5 -10 6 -12 4 -7 -7 7 -19 -18 -57 -29 -45 -5 4 -2 12 6 17 13 9 13 10 0
10 -12 0 -12 2 -2 9 7 4 14 15 16 23 2 16 24 48 33 48 3 0 0 -7 -7 -15z m101
-98 c-6 -8 -8 -17 -4 -20 3 -4 -1 -7 -11 -7 -9 0 -14 -4 -11 -10 3 -6 -1 -7
-10 -3 -13 5 -14 7 -3 14 7 5 9 9 4 9 -12 0 25 29 38 30 5 0 3 -6 -3 -13z
m-108 -15 c-1 -5 4 -13 13 -16 8 -3 12 -2 9 4 -10 16 0 12 25 -10 l23 -20 -34
4 c-19 3 -38 5 -42 5 -5 1 -5 6 -2 11 3 6 -1 13 -9 16 -9 3 -13 10 -10 16 7
12 30 4 27 -10z m-107 -38 c-5 -13 -9 -14 -20 -5 -11 9 -15 9 -19 -1 -4 -9 -6
-9 -6 -1 -1 16 43 47 47 33 2 -6 1 -18 -2 -26z m-17 -36 c-3 -29 2 -49 11 -43
6 4 10 3 9 -2 -5 -27 1 -35 16 -23 8 7 16 10 16 6 1 -3 2 -12 3 -18 1 -7 8
-12 15 -10 7 1 10 -2 6 -8 -3 -5 1 -13 10 -16 11 -5 13 -10 5 -19 -9 -11 -6
-12 12 -9 21 4 21 4 3 -5 -16 -8 -26 -3 -50 23 -64 70 -90 110 -80 126 9 14
26 12 24 -2z m-113 -94 c-6 -15 -4 -15 10 -3 15 12 17 12 12 -1 -3 -8 -13 -15
-24 -16 -47 -3 -54 -5 -51 -16 1 -7 -6 -12 -15 -12 -13 1 -17 -5 -14 -27 2
-15 0 -30 -5 -31 -5 -2 -5 -9 0 -16 11 -17 83 -20 89 -4 4 13 23 17 21 5 -4
-25 4 -33 35 -33 19 0 38 5 41 10 3 6 17 10 31 10 13 0 24 -4 24 -10 0 -7 672
-10 1995 -10 l1996 0 35 -77 c20 -42 65 -151 101 -242 253 -640 391 -1225 461
-1950 14 -146 16 -541 21 -3356 6 -3075 7 -3192 25 -3245 58 -172 136 -265
335 -395 134 -88 153 -117 149 -222 -3 -62 -7 -76 -34 -110 -16 -21 -50 -48
-74 -61 l-44 -22 -2951 0 c-2521 0 -2957 -2 -2997 -14 -40 -13 -48 -13 -59 0
-10 12 -184 14 -1224 14 -950 0 -1219 3 -1241 13 -114 49 -166 175 -115 275
26 50 57 77 177 156 157 102 249 218 298 375 20 65 21 85 24 1597 2 1387 1
1532 -13 1538 -9 3 -13 2 -10 -4 3 -6 -3 -10 -14 -10 -12 0 -21 -4 -21 -8 0
-5 -7 -9 -15 -9 -18 0 -19 5 -2 21 7 7 18 11 25 8 7 -2 11 0 10 5 -2 4 1 9 7
10 13 2 35 71 28 89 -4 12 -14 14 -37 9 -17 -3 -41 -6 -53 -7 -14 0 -20 -4
-16 -11 4 -6 0 -8 -10 -4 -10 4 -17 2 -17 -5 0 -7 -4 -7 -13 1 -8 6 -18 7 -22
3 -5 -4 -5 -2 -1 5 4 7 14 10 24 7 14 -5 14 -4 3 4 -8 6 -20 8 -27 5 -13 -5
-25 22 -21 48 1 8 11 29 22 46 16 24 24 29 40 22 18 -7 18 -8 2 -8 -11 -1 -15
-6 -11 -13 4 -7 3 -8 -4 -4 -7 4 -12 1 -12 -9 0 -9 -4 -13 -10 -10 -12 8 -13
-6 -1 -38 5 -13 17 -27 26 -31 18 -7 56 10 68 30 10 17 30 18 22 2 -4 -7 1 -4
9 6 9 11 16 16 16 12 0 -5 7 -3 15 4 21 17 17 127 -4 122 -8 -2 -11 3 -8 12 4
10 1 13 -7 10 -10 -4 -12 2 -8 21 3 17 -1 30 -13 39 -9 6 -15 21 -13 32 3 18
4 18 28 -5 14 -13 19 -20 11 -16 -10 6 -12 4 -7 -4 6 -9 11 -9 22 0 12 10 14
218 14 1408 0 1591 3 1658 75 2151 80 539 264 1169 495 1693 l43 97 1014 0
c868 0 1016 2 1029 14 8 9 10 17 5 21 -6 3 -7 13 -4 22 6 14 8 14 19 -2 7 -10
11 -22 8 -27 -3 -5 -2 -8 3 -7 4 1 16 -1 26 -6 10 -4 29 -3 42 3 17 8 27 7 42
-3 24 -19 59 -19 67 0 3 8 2 15 -2 15 -4 0 -8 9 -9 20 -1 11 2 18 7 15 4 -3 6
3 3 14 -6 23 35 74 54 67 7 -3 13 -1 13 5 0 6 4 8 9 4 5 -3 12 -1 16 5 10 16
18 12 11 -6z m64 -36 c0 -4 -4 -8 -10 -8 -5 0 -10 5 -10 11 0 5 -4 8 -9 5 -5
-4 -7 4 -4 15 6 21 7 21 20 4 7 -11 13 -22 13 -27z m33 -19 c5 -4 5 -9 -2 -13
-6 -4 -11 -2 -11 4 0 7 -8 9 -21 5 -20 -7 -20 -6 -2 12 10 11 20 14 22 8 2 -5
8 -13 14 -16z m146 -18 c22 -14 4 -33 -20 -21 -11 6 -17 15 -14 21 8 11 16 11
34 0z m-185 -16 c-10 -8 -25 -15 -33 -15 -11 0 -9 4 5 15 10 8 25 15 33 15 11
0 9 -4 -5 -15z m8674 -2280 c72 -26 148 -81 190 -137 97 -130 92 -80 92 -941
0 -729 -1 -749 -21 -809 -52 -155 -187 -269 -337 -284 -50 -6 -64 -11 -77 -31
-13 -20 -23 -24 -53 -21 -26 2 -38 8 -40 21 -3 13 3 17 23 17 15 0 24 4 20 10
-3 6 -17 10 -31 10 -38 0 -141 57 -196 108 -32 29 -62 72 -86 121 l-37 76 -3
743 c-2 466 1 764 7 798 38 203 226 351 431 339 41 -2 95 -11 118 -20z
m-11854 -659 c8 -31 -7 -71 -29 -80 -30 -11 -65 -7 -65 9 0 8 8 15 18 15 26 0
42 20 42 52 0 35 25 38 34 4z m11716 -1871 c30 0 85 4 123 8 l67 9 0 -405 c0
-332 -3 -413 -15 -453 -8 -27 -40 -141 -71 -254 -60 -220 -79 -288 -92 -335
-4 -16 -11 -25 -14 -20 -5 9 -96 333 -154 550 -23 88 -24 99 -24 503 l0 413
63 -8 c34 -4 87 -8 117 -8z m-11644 -739 c1 -7 -4 -13 -11 -13 -7 0 -11 7 -10
16 2 9 4 18 4 20 2 8 15 -10 17 -23z m-173 -140 c7 4 3 -2 -8 -13 -11 -11 -21
-16 -23 -12 -8 20 -19 7 -16 -18 1 -15 -4 -36 -13 -47 -11 -15 -14 -16 -10 -4
4 10 1 20 -5 24 -8 5 -7 10 3 18 8 6 14 18 14 26 0 8 8 14 18 14 9 -1 17 5 18
15 0 10 2 11 6 3 2 -6 10 -9 16 -6z m-33 -96 c-14 -9 -13 -11 10 -14 6 0 20
-17 31 -36 12 -19 30 -45 41 -57 11 -12 17 -27 13 -33 -5 -8 -13 -1 -22 19 -9
17 -22 31 -30 31 -8 0 -13 6 -11 12 3 7 -1 19 -9 26 -7 8 -10 18 -7 24 5 7 2
8 -6 3 -7 -4 -16 -2 -20 6 -10 15 -4 29 13 29 7 0 6 -4 -3 -10z m10 -50 c0 -5
-2 -10 -4 -10 -3 0 -8 5 -11 10 -3 6 -1 10 4 10 6 0 11 -4 11 -10z m12943
-125 c-7 -21 -13 -19 -13 6 0 11 4 18 10 14 5 -3 7 -12 3 -20z m110 18 c-7 -2
-13 -9 -13 -14 0 -6 5 -7 12 -3 7 5 8 3 3 -5 -5 -9 -11 -9 -17 -3 -12 12 -2
32 15 31 9 0 9 -2 0 -6z m139 -16 c4 -6 3 -18 -2 -28 -5 -9 -6 -20 -2 -24 4
-5 1 -5 -6 -1 -7 4 -10 11 -7 16 3 5 -3 14 -14 19 -31 17 -33 39 -3 33 15 -3
30 -10 34 -15z m-225 -7 c1 -11 -2 -20 -8 -20 -10 0 -12 23 -2 33 9 9 9 10 10
-13z m57 -5 c3 -8 1 -15 -4 -15 -6 0 -10 7 -10 15 0 8 2 15 4 15 2 0 6 -7 10
-15z m-24 1 c0 -3 -4 -8 -10 -11 -5 -3 -10 -1 -10 4 0 6 5 11 10 11 6 0 10 -2
10 -4z m-13013 -13 c-14 -4 -15 -8 -7 -18 9 -10 7 -16 -8 -24 -23 -12 -36 -3
-21 16 6 7 8 13 3 13 -5 0 -2 5 6 10 8 5 22 9 30 9 10 -1 9 -3 -3 -6z m11034
-1336 c57 -31 104 -93 125 -167 31 -110 117 -166 214 -140 72 19 148 23 183 9
84 -33 157 -129 157 -205 0 -39 48 -108 91 -130 52 -26 147 -16 194 21 93 74
151 92 237 73 42 -10 63 -23 105 -64 61 -61 79 -112 67 -189 -16 -102 -11
-167 15 -203 46 -61 64 -67 192 -67 111 0 117 -1 165 -30 27 -17 62 -51 79
-75 27 -41 30 -52 29 -125 0 -62 -5 -89 -22 -120 -24 -43 -29 -106 -11 -152
16 -44 49 -73 114 -103 122 -55 165 -117 165 -238 0 -91 17 -133 71 -171 34
-26 52 -31 96 -31 30 0 68 7 84 16 78 40 185 26 250 -33 80 -72 105 -176 64
-258 l-20 -40 -2265 -5 c-1246 -3 -2277 -10 -2292 -14 -15 -5 -25 -12 -22 -17
3 -5 -1 -9 -8 -9 -7 0 -19 9 -26 20 -11 18 -23 20 -107 20 -108 0 -104 -4 -80
87 8 31 15 82 15 113 0 50 -24 162 -45 214 -7 16 -5 17 16 11 13 -4 41 -18 61
-32 46 -31 118 -42 136 -20 10 12 10 15 -4 13 -9 0 -18 7 -19 16 -3 15 1 15
36 -3 37 -20 39 -20 63 -2 38 28 57 68 67 140 5 36 16 80 25 98 21 45 72 95
119 116 42 19 149 26 159 10 10 -16 78 -23 107 -11 16 7 26 16 23 21 -3 5 0 9
5 9 6 0 11 4 11 10 0 5 -6 7 -14 4 -16 -6 -31 29 -21 46 7 11 38 -22 46 -48 7
-22 86 61 94 98 5 21 0 57 -15 109 -27 94 -22 148 20 214 39 62 102 98 182
104 77 6 114 19 152 52 65 59 74 144 24 230 -28 49 -32 65 -32 126 0 86 25
141 85 185 85 61 162 64 271 12 76 -38 131 -41 188 -12 79 40 110 136 76 236
-20 59 -20 86 2 146 48 133 204 198 323 135z m-2836 -157 c-3 -5 -12 -10 -20
-10 -17 0 -28 -17 -20 -29 3 -6 17 -6 35 1 51 17 79 -24 43 -64 -17 -19 -53
-25 -53 -9 0 5 10 11 22 13 13 2 24 11 26 21 3 16 -1 18 -40 12 -59 -9 -78 10
-47 49 19 24 68 39 54 16z"/>
<path d="M4857 13813 c-21 -6 -18 -58 4 -58 8 -1 13 -6 12 -11 -1 -6 4 -11 12
-11 8 0 12 4 10 8 -6 9 24 21 35 14 4 -3 11 2 14 11 3 8 10 13 15 10 11 -7 9
13 -2 32 -8 12 -63 15 -100 5z"/>
<path d="M4736 13653 c-7 -18 14 -37 27 -24 9 9 -1 41 -13 41 -4 0 -11 -8 -14
-17z"/>
<path d="M4781 13644 c0 -11 3 -14 6 -6 3 7 2 16 -1 19 -3 4 -6 -2 -5 -13z"/>
<path d="M4409 13303 c-13 -16 -12 -17 4 -4 16 13 21 21 13 21 -2 0 -10 -8
-17 -17z"/>
<path d="M4170 13236 c0 -2 8 -10 18 -17 15 -13 16 -12 3 4 -13 16 -21 21 -21
13z"/>
<path d="M3947 13223 c-10 -9 -9 -23 1 -23 5 0 9 7 9 15 0 17 -1 18 -10 8z"/>
<path d="M4755 12015 c-282 -35 -525 -154 -731 -360 -185 -184 -297 -393 -356
-660 l-13 -60 -470 -5 -470 -5 -70 -29 c-195 -80 -323 -217 -391 -416 -18 -53
-19 -130 -19 -2230 0 -2100 1 -2177 19 -2230 30 -89 83 -183 138 -244 36 -41
54 -54 61 -47 6 6 21 11 33 11 27 0 41 17 46 55 2 19 9 31 21 33 14 3 17 -4
17 -33 0 -38 -35 -85 -64 -85 -58 0 36 -68 154 -111 l65 -24 2164 -3 c2402 -3
2210 -8 2360 64 109 53 224 170 279 284 23 47 46 105 53 130 9 32 13 210 15
640 1 327 -1 578 -5 558 -11 -53 -27 -68 -72 -68 -32 0 -39 3 -39 20 0 16 7
20 35 20 35 0 40 7 38 58 -1 6 10 12 23 12 l24 0 -2 1428 c-2 1075 -6 1426
-15 1425 -58 -11 -73 -12 -73 -4 0 5 -3 16 -6 24 -4 12 3 16 28 19 29 3 33 7
36 36 2 20 9 32 18 32 19 0 19 76 -1 172 -48 226 -218 414 -440 484 -75 24
-78 24 -525 24 l-450 0 -5 23 c-43 197 -90 324 -166 454 -59 98 -121 174 -224
274 -197 191 -427 299 -715 335 -132 16 -169 16 -305 -1z m315 -357 c187 -31
351 -117 488 -255 176 -178 265 -392 265 -643 0 -251 -87 -464 -263 -641 -128
-129 -278 -214 -450 -254 -110 -25 -300 -23 -407 4 -160 41 -302 118 -405 219
-48 47 -62 55 -91 54 -27 -1 -36 3 -40 18 -3 13 0 20 9 20 22 0 17 16 -23 77
-36 54 -38 55 -41 29 -2 -19 -8 -26 -20 -24 -21 4 -28 53 -11 84 8 16 9 27 2
36 -19 24 -64 172 -75 248 -22 159 6 363 70 500 179 388 575 598 992 528z
m698 -21 c23 -23 42 -46 42 -50 0 -17 -27 -4 -62 30 -31 30 -40 34 -53 23 -21
-17 -20 -22 15 -65 32 -41 37 -55 18 -54 -12 0 -119 119 -126 140 -7 18 20 9
38 -13 l18 -23 26 28 c14 15 29 27 33 27 5 0 28 -19 51 -43z m-143 -77 c-3 -5
-15 -10 -26 -10 -10 0 -19 -7 -19 -15 0 -11 11 -14 48 -12 41 2 47 -1 50 -19
3 -22 -42 -68 -60 -62 -18 6 -9 23 14 28 29 7 31 36 3 32 -58 -10 -70 -7 -73
16 -2 13 2 30 8 38 14 16 65 20 55 4z m-1956 -1037 c31 -160 116 -361 208
-491 286 -402 768 -604 1245 -523 515 89 914 473 1028 991 l16 75 440 0 c431
0 440 0 479 -22 54 -29 109 -88 134 -143 20 -45 21 -55 21 -2161 l0 -2115 -26
-52 c-14 -28 -46 -69 -70 -91 -88 -77 105 -71 -2233 -71 -1973 0 -2099 1
-2145 17 -68 24 -138 96 -165 168 l-21 56 0 2087 c0 2273 -3 2142 55 2218 33
44 86 83 132 100 30 10 134 13 465 14 l427 0 10 -57z m3849 -175 c2 -12 -5
-17 -30 -20 -30 -3 -33 -6 -36 -40 -5 -62 -42 -45 -42 18 0 49 17 65 63 62 30
-2 43 -8 45 -20z m2 -2958 c0 -16 -7 -20 -30 -20 -31 0 -34 -3 -44 -52 -10
-43 -36 -36 -36 10 0 56 23 82 71 82 32 0 39 -3 39 -20z m-5020 -1470 c0 -13
-7 -20 -19 -20 -34 0 -51 -12 -51 -35 0 -37 -11 -55 -32 -55 -16 0 -18 5 -12
38 10 57 40 84 102 91 6 0 12 -8 12 -19z"/>
<path d="M4811 11329 c-117 -20 -250 -94 -331 -186 -97 -110 -140 -230 -140
-388 0 -170 50 -287 174 -410 223 -220 579 -219 805 3 177 174 220 443 109
672 -44 90 -169 214 -260 258 -109 53 -235 71 -357 51z m195 -365 c90 -38 147
-151 125 -249 -25 -110 -106 -178 -215 -179 -202 -1 -303 237 -161 379 70 70
159 88 251 49z"/>
<path d="M4285 8796 c-67 -16 -142 -58 -193 -108 -23 -22 -197 -266 -388 -543
l-346 -503 -54 -7 c-60 -7 -112 -43 -140 -96 -18 -36 -18 -110 0 -153 14 -33
62 -76 100 -90 10 -3 172 -6 360 -6 508 -1 472 -2 458 12 -16 16 -15 48 1 48
7 0 18 9 25 20 7 11 21 20 31 20 11 0 23 9 26 20 3 11 15 25 27 31 23 12 50
-8 81 -60 16 -27 16 -31 3 -31 -9 0 -25 14 -38 30 -45 61 -81 21 -37 -42 33
-46 8 -59 -26 -14 -31 41 -51 46 -60 15 -17 -53 -74 -50 1230 -49 853 0 1214
4 1229 12 61 31 106 100 106 162 -1 46 -33 110 -71 137 -18 13 -58 28 -89 34
l-55 11 -117 170 c-64 93 -131 189 -148 214 -17 25 -90 131 -162 235 -72 105
-144 205 -162 223 -17 18 -60 47 -95 65 -54 27 -78 32 -156 35 -71 3 -106 0
-146 -13 -113 -38 -159 -82 -299 -292 -52 -78 -98 -142 -101 -143 -4 0 -38 45
-75 100 -38 56 -117 172 -176 258 -60 86 -128 176 -153 199 -102 94 -253 133
-390 99z m138 -354 c15 -9 81 -96 147 -192 65 -96 158 -232 205 -302 l87 -126
-63 -91 -63 -91 -474 0 c-376 0 -472 3 -466 13 7 12 222 326 334 487 30 44 89
129 130 189 65 97 94 125 130 130 3 1 17 -7 33 -17z m1291 -329 c52 -76 114
-165 136 -198 23 -33 73 -105 111 -160 38 -55 69 -103 69 -107 0 -5 -194 -8
-431 -8 -341 0 -429 3 -423 13 4 6 55 82 114 167 58 85 149 217 200 293 61 89
100 137 111 137 12 0 52 -49 113 -137z m-1373 -496 c-1 -12 -15 -9 -19 4 -3 6
1 10 8 8 6 -3 11 -8 11 -12z m73 -81 c36 -43 45 -66 26 -66 -10 0 -80 88 -80
101 0 20 21 6 54 -35z m-76 -14 c15 -10 62 -73 62 -84 0 -4 -6 -8 -13 -8 -8 0
-22 -9 -32 -20 -23 -25 -51 -26 -65 -1 -8 16 -5 26 16 51 21 24 24 34 15 43
-10 9 -18 5 -37 -18 -20 -25 -24 -27 -24 -11 0 40 46 68 78 48z"/>
<path d="M4325 7450 c-14 -15 -16 -23 -7 -32 13 -13 42 6 42 28 0 22 -17 24
-35 4z"/>
<path d="M3267 6825 c-77 -27 -117 -84 -117 -167 0 -64 23 -107 78 -143 l38
-25 1642 0 c1489 0 1644 1 1674 16 71 35 112 128 89 203 -15 52 -69 107 -118
120 -26 8 -555 11 -1643 11 -1333 -1 -1612 -3 -1643 -15z"/>
<path d="M11693 5170 c-13 -5 -23 -16 -23 -23 0 -20 39 -67 56 -67 19 0 18
-17 -2 -28 -15 -8 -15 -10 0 -15 11 -5 15 -3 10 5 -5 7 -3 8 6 3 9 -6 11 -4 5
5 -5 9 -4 11 3 6 9 -5 10 -1 4 16 -5 13 -8 37 -7 53 1 29 -11 56 -24 54 -3 0
-16 -4 -28 -9z"/>
<path d="M11774 5169 c-5 -8 -9 -17 -10 -21 -1 -5 -2 -9 -4 -10 -1 -2 -3 -13
-4 -26 -2 -15 1 -19 7 -13 7 7 21 5 43 -4 18 -7 36 -10 40 -7 4 4 5 0 2 -8 -4
-11 3 -15 30 -17 38 -2 61 -16 43 -27 -6 -4 -11 -2 -11 3 0 6 -5 11 -11 11 -5
0 -7 -5 -3 -12 5 -7 3 -8 -7 -3 -7 5 -21 10 -31 10 -9 1 -26 12 -37 26 -12 15
-20 19 -21 10 0 -11 -3 -11 -15 -1 -12 10 -15 9 -15 -8 0 -11 -7 -25 -15 -32
-8 -7 -12 -17 -9 -22 4 -6 10 -5 16 3 8 11 9 10 4 -3 -3 -10 -1 -20 4 -23 5
-3 7 -12 3 -20 -4 -11 -1 -13 11 -9 11 4 16 1 16 -10 0 -13 -4 -14 -25 -4 -14
6 -23 13 -20 16 3 3 -4 11 -15 19 -12 8 -17 20 -13 30 4 9 2 14 -3 11 -5 -3
-14 0 -21 7 -10 10 -9 14 4 19 12 5 13 9 3 21 -6 7 -19 11 -27 8 -12 -5 -15
-2 -10 11 5 12 -1 19 -21 27 -23 9 -29 7 -44 -11 -21 -26 -23 -40 -6 -40 6 0
2 -10 -10 -23 -28 -29 -28 -75 -2 -127 23 -46 34 -53 60 -45 12 4 17 12 13 22
-3 8 0 19 8 23 24 15 29 0 12 -35 -9 -19 -14 -37 -11 -41 25 -24 210 -32 300
-13 66 14 121 65 137 126 19 71 -14 156 -76 194 -32 20 -54 24 -144 27 -82 3
-108 1 -115 -9z"/>
<path d="M12380 4619 c-79 -46 -111 -148 -71 -226 43 -86 100 -106 281 -101
110 3 130 6 162 26 113 70 111 237 -3 302 -33 18 -54 20 -185 20 -132 0 -153
-3 -184 -21z"/>
<path d="M11306 4510 c-34 -11 -82 -54 -102 -92 -18 -35 -18 -121 1 -158 8
-16 31 -42 52 -57 36 -27 39 -28 189 -31 173 -4 205 4 251 65 30 40 41 113 24
165 -15 47 -70 98 -117 109 -49 11 -259 10 -298 -1z"/>
<path d="M11886 4075 c-121 -43 -161 -187 -77 -279 48 -53 93 -66 226 -65 166
0 214 19 256 101 45 88 1 205 -91 240 -58 22 -256 24 -314 3z"/>
<path d="M12845 4071 c-113 -52 -146 -171 -75 -270 44 -61 90 -73 252 -69 128
3 137 4 177 31 114 76 104 235 -18 299 -50 26 -61 28 -175 28 -96 0 -129 -4
-161 -19z"/>
<path d="M10715 4015 c-71 -38 -105 -93 -105 -167 0 -57 35 -117 85 -146 38
-21 49 -22 197 -20 141 3 159 5 185 24 50 37 73 81 73 141 0 70 -21 114 -72
150 -40 27 -45 28 -187 31 -119 2 -152 0 -176 -13z"/>
<path d="M13695 7092 c-9 -6 -19 -32 -12 -32 1 0 10 9 20 20 16 20 12 27 -8
12z"/>
<path d="M5627 2800 c-113 -35 -160 -169 -94 -269 43 -65 80 -76 247 -76 166
0 190 8 240 77 51 70 38 179 -29 235 -33 28 -39 28 -67 -2 -30 -32 -94 -36
-94 -6 0 15 8 21 33 23 17 2 31 8 30 13 -4 13 -227 17 -266 5z"/>
<path d="M3500 2749 c-32 -13 -78 -56 -96 -91 -37 -72 -2 -184 71 -225 36 -21
53 -23 188 -23 157 0 189 7 231 54 81 91 46 243 -67 285 -35 14 -293 13 -327
0z"/>
<path d="M11615 2704 c-46 -24 -66 -45 -87 -93 -37 -82 -2 -176 82 -218 39
-21 59 -23 180 -23 121 0 141 2 180 23 103 51 128 179 53 268 -43 51 -76 59
-235 59 -110 0 -150 -4 -173 -16z"/>
<path d="M94 2681 c-17 -10 -45 -36 -62 -57 -65 -79 -32 -201 68 -251 39 -21
59 -23 179 -23 117 0 140 3 179 21 101 49 128 183 55 270 -43 51 -75 59 -240
59 -127 0 -152 -3 -179 -19z"/>
<path d="M7342 2628 c-43 -15 -98 -77 -112 -127 -14 -51 0 -108 36 -151 46
-55 68 -60 236 -60 140 0 156 2 192 23 47 26 86 94 86 146 -1 57 -33 116 -81
148 -41 27 -47 28 -183 30 -81 1 -155 -3 -174 -9z"/>
<path d="M1180 2563 c-144 -25 -299 -145 -369 -287 -39 -79 -51 -133 -51 -231
0 -155 45 -263 154 -370 109 -108 222 -155 371 -155 149 0 263 48 370 155 167
167 202 402 93 619 -63 124 -215 241 -348 266 -52 10 -171 11 -220 3z m171
-357 c60 -25 109 -99 109 -163 -1 -44 -35 -108 -74 -138 -111 -84 -276 0 -276
141 0 121 129 207 241 160z"/>
<path d="M10560 2554 c-243 -64 -419 -274 -437 -519 -8 -116 9 -205 58 -305
97 -196 308 -330 520 -330 34 0 39 3 45 28 10 42 23 52 65 52 28 0 39 -4 39
-15 0 -8 -9 -15 -19 -15 -30 0 -51 -11 -51 -26 0 -33 134 3 232 62 77 47 177
157 218 241 119 242 53 549 -154 714 -62 50 -173 103 -244 118 -73 15 -206 13
-272 -5z m263 -367 c126 -74 154 -236 61 -345 -51 -61 -105 -86 -179 -86 -186
2 -293 201 -194 361 60 97 209 130 312 70z"/>
<path d="M2460 2478 c-50 -34 -72 -71 -78 -126 -6 -65 11 -114 53 -151 47 -41
91 -51 221 -51 159 0 214 22 255 102 39 76 13 174 -58 223 -36 24 -43 25 -199
25 -151 0 -163 -1 -194 -22z"/>
<path d="M8893 2471 c-68 -49 -90 -137 -54 -216 38 -83 89 -104 251 -105 130
0 176 10 220 47 43 36 60 74 60 136 0 62 -25 108 -79 144 -32 22 -44 23 -196
23 l-162 0 -40 -29z"/>
<path d="M13170 2475 c-53 -39 -75 -81 -75 -145 0 -67 28 -118 83 -152 31 -19
53 -23 159 -26 142 -5 205 7 246 46 42 40 57 75 57 135 0 62 -25 108 -79 144
-32 22 -44 23 -196 23 -156 0 -162 -1 -195 -25z"/>
<path d="M4785 2326 c-187 -48 -349 -215 -386 -400 -8 -39 -8 -63 -1 -85 8
-23 8 -31 -1 -31 -8 0 -9 -2 -1 -8 6 -4 14 -14 17 -22 5 -13 6 -13 6 0 1 9 9
16 19 17 9 1 31 4 47 7 l30 7 -25 -18 c-14 -10 -29 -17 -34 -15 -5 2 -6 -4 -3
-11 7 -18 -11 -37 -35 -37 -31 0 -22 -58 25 -146 96 -186 240 -281 438 -292
168 -8 285 35 400 148 258 253 189 686 -135 845 -42 21 -78 36 -81 33 -3 -2
-6 -31 -7 -65 -3 -63 -24 -85 -26 -26 -1 20 3 31 8 28 6 -3 10 4 10 17 0 18
-2 20 -10 8 -8 -13 -10 -12 -10 3 0 9 5 17 11 17 6 0 3 8 -7 18 -22 22 -175
27 -249 8z m107 -70 c-2 -11 2 -14 15 -9 14 5 16 3 6 -7 -10 -11 -15 -11 -28
0 -11 9 -13 15 -5 20 7 5 1 10 -14 14 -15 4 -24 11 -20 17 9 15 50 -15 46 -35z
m64 -54 c-4 -3 8 -12 25 -19 18 -7 29 -16 26 -20 -4 -3 -2 -12 4 -19 6 -8 6
-14 0 -18 -5 -3 -24 12 -41 34 -17 22 -36 38 -40 35 -11 -7 -23 12 -15 25 4 7
13 6 26 -1 12 -6 18 -13 15 -17z m109 -32 c-3 -5 3 -10 14 -10 11 0 26 -7 34
-15 12 -11 17 -12 20 -2 4 8 8 9 14 2 4 -6 20 -11 36 -12 15 0 34 -3 42 -7 24
-9 17 -26 -11 -26 -14 0 -22 4 -19 10 3 6 -1 7 -10 4 -8 -4 -22 -1 -30 6 -9 7
-18 10 -22 6 -3 -3 -17 1 -30 9 -13 9 -23 11 -23 5 0 -5 -5 -10 -12 -10 -6 0
-8 3 -5 7 4 3 0 15 -10 25 -15 17 -15 18 1 18 9 0 14 -4 11 -10z m-24 -34 c-9
-11 -8 -14 5 -12 9 0 19 -4 21 -11 3 -8 -3 -11 -17 -8 -11 2 -18 0 -15 -6 4
-5 11 -7 16 -4 5 4 9 1 9 -5 0 -6 4 -9 9 -5 5 3 13 0 17 -6 4 -8 3 -9 -4 -5
-7 4 -12 2 -12 -3 0 -6 6 -11 14 -11 17 0 26 -11 31 -42 4 -22 4 -22 -10 -4
-8 10 -12 23 -8 29 3 6 1 7 -6 3 -12 -8 -44 17 -35 27 3 3 -4 8 -15 12 -12 3
-21 12 -21 20 0 22 11 45 22 45 6 0 6 -5 -1 -14z m-144 -21 c0 -10 -6 -11 -24
-4 -16 6 -22 5 -20 -4 1 -7 -6 -11 -17 -9 -11 2 -15 -1 -11 -7 3 -6 -4 -25
-16 -43 -13 -17 -18 -29 -12 -25 6 4 14 -1 17 -10 4 -9 1 -20 -6 -25 -18 -11
-28 -10 -28 3 0 5 4 8 9 4 5 -3 13 0 17 6 4 7 3 9 -2 6 -6 -3 -16 -2 -23 2
-10 6 -9 16 5 47 9 21 16 43 15 47 -1 5 3 6 8 3 5 -4 13 0 18 8 15 26 70 28
70 1z m73 -135 c13 -7 21 -7 25 0 3 5 14 10 23 10 15 0 15 -2 2 -10 -8 -5 -10
-10 -4 -10 16 0 74 -119 74 -152 0 -65 -49 -139 -109 -164 -68 -28 -128 -15
-200 45 -40 33 -41 34 -41 100 0 52 5 73 23 100 12 19 27 44 34 55 17 29 134
47 173 26z m-333 -83 c-4 -10 -15 -13 -34 -10 -27 4 -28 4 -8 -13 17 -14 17
-16 3 -11 -10 4 -18 2 -18 -3 0 -5 8 -14 18 -19 13 -8 14 -10 2 -11 -12 0 -12
-2 -2 -9 10 -6 10 -10 -3 -21 -13 -11 -15 -9 -15 14 0 14 -5 26 -10 26 -7 0
-7 6 -1 18 5 9 9 21 9 27 1 15 36 24 45 11 5 -6 7 -1 3 13 -3 17 -2 21 6 13 6
-6 8 -17 5 -25z m-17 -117 c-6 -11 -12 -20 -14 -20 -3 0 -1 23 3 38 1 1 6 2
11 2 7 0 7 -6 0 -20z m-145 -68 c0 -9 5 -16 12 -15 6 1 10 -5 8 -15 -2 -9 -4
-21 -5 -27 -1 -15 -40 35 -40 52 0 8 -5 11 -12 8 -7 -4 -4 1 6 9 21 17 31 14
31 -12z m68 -89 c10 -16 47 -17 47 -2 0 8 4 8 14 0 11 -9 15 -9 20 1 3 7 5 5
3 -5 -1 -10 -6 -18 -12 -19 -5 0 -18 -4 -29 -10 -13 -7 -16 -7 -12 1 4 6 3 11
-3 11 -5 0 -13 -5 -16 -10 -5 -8 -11 -7 -21 1 -7 6 -12 15 -9 19 3 5 -2 15
-10 23 -8 9 -15 19 -15 23 0 8 32 -17 43 -33z"/>
<path d="M4799 2063 c-13 -16 -12 -17 4 -4 16 13 21 21 13 21 -2 0 -10 -8 -17
-17z"/>
<path d="M6234 2325 c-44 -20 -91 -79 -98 -127 -13 -79 24 -152 95 -188 33
-17 59 -20 179 -20 162 0 200 12 245 77 36 53 36 143 0 196 -45 65 -83 77
-247 76 -98 0 -153 -5 -174 -14z"/>
<path d="M14265 2136 c-119 -71 -110 -239 15 -308 31 -17 53 -18 187 -16 l151
3 39 31 c55 44 75 87 71 155 -5 67 -33 111 -88 139 -34 17 -59 20 -187 20
-139 0 -151 -2 -188 -24z"/>
<path d="M7961 2033 c-68 -33 -108 -138 -82 -215 14 -42 65 -92 110 -107 44
-14 268 -14 312 0 79 27 123 95 117 180 -5 67 -37 117 -91 143 -50 23 -317 23
-366 -1z"/>
<path d="M12282 2034 c-99 -50 -123 -189 -46 -273 47 -53 92 -63 250 -59 145
3 170 11 217 70 60 75 43 194 -35 250 -31 21 -44 23 -193 26 -133 2 -166 -1
-193 -14z"/>
<path d="M3215 1906 c-101 -44 -136 -180 -68 -264 52 -64 80 -72 243 -72 133
0 148 2 182 23 65 40 83 72 83 152 0 59 -4 75 -25 103 -46 62 -81 72 -242 72
-95 -1 -153 -5 -173 -14z"/>
<path d="M4425 1760 c-3 -5 -1 -10 4 -10 6 0 11 5 11 10 0 6 -2 10 -4 10 -3 0
-8 -4 -11 -10z"/>
<path d="M6804 1731 c-18 -11 -45 -36 -60 -57 -25 -32 -29 -47 -29 -99 0 -52
4 -67 29 -99 49 -65 94 -78 260 -74 133 3 145 5 179 28 110 75 100 248 -16
304 -28 13 -67 16 -184 16 -128 0 -152 -3 -179 -19z"/>
<path d="M2122 1632 c-36 -11 -88 -58 -105 -95 -39 -81 -4 -188 73 -227 34
-17 59 -20 186 -20 165 0 197 9 241 67 20 26 28 50 30 91 5 69 -15 112 -70
156 l-39 31 -146 2 c-81 1 -157 -1 -170 -5z"/>
<path d="M13520 1614 c-224 -59 -390 -241 -421 -461 -40 -282 141 -548 422
-617 244 -60 502 62 618 291 94 185 74 412 -51 577 -133 176 -368 263 -568
210z m247 -380 c103 -78 101 -241 -3 -321 -31 -23 -48 -28 -108 -31 -59 -2
-78 1 -111 20 -107 63 -130 216 -46 312 59 67 193 77 268 20z"/>
<path d="M9227 1485 c-109 -38 -150 -171 -82 -261 52 -68 71 -74 246 -74 145
0 158 2 189 23 68 46 95 112 78 191 -11 51 -58 104 -110 122 -47 17 -273 17
-321 -1z"/>
<path d="M5682 1343 c-129 -63 -130 -248 -1 -313 33 -17 58 -20 181 -20 130 0
147 2 183 23 99 56 122 179 50 265 -45 53 -78 62 -237 62 -111 0 -150 -4 -176
-17z"/>
<path d="M7831 1344 c-100 -27 -261 -131 -261 -169 0 -8 -6 -18 -14 -22 -28
-16 -85 -126 -100 -193 -65 -285 92 -550 374 -634 70 -21 210 -21 281 0 309
91 463 419 339 718 -36 86 -119 184 -200 236 -113 73 -288 100 -419 64z m189
-344 c41 -11 94 -61 109 -103 32 -83 -6 -179 -85 -217 -90 -44 -194 -7 -235
84 -23 52 -24 90 0 141 22 49 48 73 98 91 46 16 67 17 113 4z"/>
<path d="M11632 1243 c-12 -2 -40 -21 -61 -41 -91 -87 -72 -223 39 -280 42
-21 55 -23 196 -20 148 3 151 4 187 31 49 37 71 81 71 142 0 61 -22 105 -71
142 -36 28 -38 28 -187 29 -83 1 -161 0 -174 -3z"/>
<path d="M2808 1161 c-114 -37 -222 -110 -287 -195 -160 -208 -173 -473 -32
-688 79 -121 203 -209 351 -249 63 -17 42 -17 -800 -18 -795 0 -863 1 -835 16
44 23 65 44 86 85 40 78 13 175 -63 225 -41 27 -45 28 -192 28 -169 0 -194 -7
-241 -70 -67 -87 -32 -224 67 -266 29 -12 -23 -15 -417 -19 -247 -3 2909 -6
7015 -6 4106 -1 7452 1 7436 5 l-30 6 27 12 27 13 0 149 c0 187 12 176 -196
176 -147 0 -151 -1 -192 -28 -76 -50 -101 -139 -63 -222 20 -43 40 -64 86 -88
27 -15 -467 -16 -5735 -16 l-5765 0 75 22 c261 78 430 299 430 560 0 109 -13
163 -40 172 -11 4 -18 10 -15 15 3 4 -5 10 -16 13 -12 3 -18 10 -14 16 3 6 2
11 -4 11 -5 0 -13 9 -16 20 -4 11 -11 17 -17 14 -6 -4 -6 1 1 14 9 17 8 23 -6
32 -12 8 -13 10 -3 7 8 -2 20 -12 25 -23 21 -40 44 -66 54 -60 19 12 -44 110
-119 186 -80 80 -141 118 -240 150 -84 27 -259 27 -342 1z m602 -214 c0 -7 -9
-13 -20 -14 -12 -1 -20 4 -20 13 0 8 5 12 10 9 6 -3 10 -1 10 5 0 6 5 8 10 5
6 -3 10 -12 10 -18z m10 -32 c-10 -12 -9 -16 4 -21 9 -3 14 -10 11 -15 -3 -4
-17 1 -30 13 -22 19 -26 46 -5 33 5 -3 12 0 15 6 4 5 9 8 12 5 3 -3 0 -12 -7
-21z m-135 -45 c-3 -6 4 -10 17 -10 18 0 20 2 8 10 -11 7 -11 10 -2 10 7 0 24
-11 38 -25 13 -13 28 -26 32 -27 4 -2 6 -9 6 -15 -1 -7 4 -13 12 -13 7 0 16
-5 20 -12 5 -7 3 -8 -7 -3 -8 5 -2 -3 14 -18 27 -26 36 -44 15 -31 -7 4 -8 3
-4 -4 4 -7 15 -12 24 -13 11 0 12 -2 4 -6 -6 -2 -10 -9 -6 -14 3 -5 3 -9 1 -9
-6 0 -49 38 -47 42 4 10 -14 37 -21 32 -5 -3 -8 0 -7 8 2 7 -3 12 -9 11 -7 -2
-12 0 -11 5 3 14 -14 42 -23 36 -5 -3 -6 1 -4 8 7 18 -41 17 -72 0 -29 -16
-57 -68 -42 -78 6 -3 9 -15 6 -25 -3 -10 0 -22 5 -26 6 -3 8 -1 4 5 -3 6 -2
13 4 17 5 3 10 -1 10 -10 0 -9 5 -13 10 -10 6 4 9 3 8 -2 -1 -4 12 -23 29 -42
18 -19 29 -39 26 -44 -4 -6 0 -8 10 -4 23 9 30 -8 10 -24 -9 -8 -14 -9 -10 -3
4 7 -2 14 -13 17 -14 3 -18 10 -14 21 4 11 2 16 -7 14 -9 -2 -13 4 -11 16 3
14 -1 17 -13 12 -9 -3 -13 -2 -10 4 3 6 -5 14 -19 20 -25 9 -53 47 -47 65 1 6
-1 7 -4 3 -4 -4 -16 -3 -27 3 -11 6 -17 13 -14 16 2 3 -7 16 -20 28 -14 13
-25 27 -26 32 0 4 -4 7 -9 6 -5 -2 -9 1 -9 7 0 6 6 10 13 10 16 -1 62 -36 63
-49 1 -6 2 -19 3 -28 2 -17 2 -17 12 0 5 9 15 17 22 17 7 0 19 15 27 33 8 17
20 32 27 32 6 0 15 3 19 8 11 10 16 9 9 -3z m-221 -54 c50 -21 101 -70 120
-118 10 -24 23 -54 29 -68 15 -35 16 -58 2 -64 -7 -2 -15 -17 -18 -33 -3 -15
-9 -36 -12 -45 -10 -26 18 -23 41 4 12 13 13 18 4 13 -12 -7 -11 -4 2 17 10
16 13 28 7 30 -6 2 -7 11 -4 21 4 9 11 14 16 11 5 -3 7 -10 4 -15 -4 -5 -1 -9
5 -9 6 0 8 -12 5 -32 -6 -30 -24 -72 -25 -54 0 4 -13 -6 -30 -24 -21 -22 -35
-30 -49 -25 -12 3 -33 -4 -57 -20 -49 -33 -71 -38 -147 -33 -77 5 -143 46
-184 115 -39 67 -39 159 0 226 27 45 92 100 132 110 41 10 127 7 159 -7z"/>
<path d="M3365 820 c-3 -5 -1 -10 4 -10 6 0 11 5 11 10 0 6 -2 10 -4 10 -3 0
-8 -4 -11 -10z"/>
<path d="M3175 449 c-4 -6 -5 -12 -2 -15 2 -3 7 2 10 11 7 17 1 20 -8 4z"/>
<path d="M353 1031 c-108 -78 -90 -247 31 -302 60 -27 282 -27 342 0 123 56
140 223 31 302 l-40 29 -162 0 -162 0 -40 -29z"/>
<path d="M4069 1037 c-54 -36 -79 -82 -79 -144 0 -30 7 -67 15 -82 20 -39 69
-78 113 -91 48 -13 246 -13 294 0 114 32 162 168 95 269 -41 62 -72 71 -250
71 -144 0 -156 -2 -188 -23z"/>
<path d="M10154 1041 c-58 -35 -86 -83 -87 -149 -1 -48 3 -66 25 -99 44 -67
79 -78 254 -78 148 0 151 1 190 27 55 39 77 80 78 148 1 48 -4 63 -28 94 -53
70 -72 76 -246 76 -135 0 -159 -3 -186 -19z"/>
<path d="M1515 928 c-43 -23 -76 -64 -90 -110 -8 -27 -12 -54 -10 -61 2 -7 6
-24 9 -40 4 -15 22 -45 42 -67 46 -51 101 -63 260 -59 112 4 123 6 163 32 48
32 80 91 81 146 0 50 -36 118 -78 146 -35 24 -43 25 -197 25 -97 0 -168 -5
-180 -12z"/>
<path d="M6376 762 c-33 -11 -59 -30 -80 -55 -28 -35 -31 -46 -31 -106 0 -59
4 -72 28 -104 47 -62 66 -67 245 -67 148 0 161 1 192 23 59 40 75 71 75 147 0
61 -3 72 -31 107 -44 55 -102 72 -239 72 -78 0 -124 -5 -159 -17z"/>
<path d="M9355 568 c-65 -35 -98 -91 -98 -164 0 -91 67 -165 145 -161 20 1 34
5 32 9 -2 3 2 9 8 12 9 4 8 5 -2 5 -30 -2 -41 1 -35 11 3 6 0 10 -7 10 -9 0
-9 3 2 10 13 9 13 10 0 11 -8 1 -18 1 -21 1 -4 -1 -4 9 -1 21 5 18 7 19 10 4
2 -9 7 -15 10 -13 9 5 33 -21 30 -31 -6 -17 39 -12 59 6 18 17 22 18 27 5 3
-9 1 -12 -4 -9 -6 3 -10 0 -10 -8 0 -8 -7 -21 -16 -28 -14 -12 -14 -14 3 -20
28 -12 154 -10 198 2 52 15 105 70 105 110 0 21 -4 28 -12 23 -7 -4 -3 4 9 17
26 28 23 53 -14 112 -44 70 -67 77 -243 77 -94 -1 -163 -5 -175 -12z m284
-171 c-7 -12 -17 -16 -32 -12 -12 4 -17 3 -11 -2 7 -4 12 -21 12 -37 0 -15 5
-32 12 -36 7 -4 8 -10 3 -13 -16 -10 -42 16 -47 45 -6 33 26 77 53 75 16 -1
18 -5 10 -20z m-6 -123 c-4 -11 -9 -12 -19 -3 -18 15 -18 14 5 16 14 1 18 -3
14 -13z"/>
<path d="M12512 492 c-37 -11 -91 -61 -108 -100 -31 -73 -3 -166 65 -217 24
-18 41 -20 196 -20 162 0 172 1 203 23 64 46 92 154 58 220 -21 41 -68 81
-107 92 -37 11 -270 12 -307 2z"/>
<path d="M4776 437 c-48 -27 -86 -94 -86 -150 0 -55 32 -117 77 -147 34 -23
47 -25 171 -28 165 -4 193 0 238 40 47 41 64 77 64 134 0 61 -33 119 -86 150
-38 22 -50 24 -190 24 -136 0 -153 -2 -188 -23z"/>
<path d="M11158 402 c-10 -4 -33 -22 -52 -40 -82 -77 -66 -213 32 -274 33 -20
52 -23 167 -26 143 -4 195 5 236 42 46 40 61 72 61 128 1 76 -33 133 -99 167
-24 12 -316 15 -345 3z"/>
</g>
</svg>
