<?xml version="1.0" encoding="UTF-8"?>
<svg version="1.1" xmlns="http://www.w3.org/2000/svg" width="512" height="512">
<path d="M0 0 C5.69737758 3.39918587 9.38062661 7.46616676 11.15380859 13.96386719 C11.85523687 17.97390174 11.45156972 21.95463165 11.14453125 25.9921875 C11.05945313 27.30413086 11.05945313 27.30413086 10.97265625 28.64257812 C10.83245244 30.78068619 10.67750158 32.91781863 10.51953125 35.0546875 C11.52371094 35.14105469 12.52789062 35.22742187 13.5625 35.31640625 C51.71893341 39.04665275 78.42138593 70.77279924 102.44140625 97.7265625 C104.82346317 100.39518266 107.23328459 103.03742319 109.64453125 105.6796875 C112.38879574 108.69250386 115.10973554 111.71718595 117.76953125 114.8046875 C130.02852411 128.89381437 142.90047446 143.64198297 158.51953125 154.0546875 C161.63760584 153.83943584 161.63760584 153.83943584 165.33203125 153.1796875 C173.86254278 151.96832218 182.35144227 151.81915532 190.95703125 151.8046875 C192.23618408 151.7958252 193.51533691 151.78696289 194.83325195 151.77783203 C210.15967074 151.8237943 210.15967074 151.8237943 215.51953125 154.0546875 C217.37174293 156.11651533 218.42947708 157.3215903 218.76953125 160.08984375 C218.68703125 160.75886719 218.60453125 161.42789063 218.51953125 162.1171875 C218.45765625 162.78878906 218.39578125 163.46039063 218.33203125 164.15234375 C217.08032831 167.08301361 215.37254621 167.70383263 212.51953125 169.0546875 C209.80632402 169.27265956 207.34105702 169.33611787 204.640625 169.2421875 C203.07357336 169.21596877 201.50651578 169.19010315 199.93945312 169.16455078 C199.12532959 169.14587952 198.31120605 169.12720825 197.47241211 169.10797119 C183.27045692 168.80712904 169.41372016 168.73973953 155.51953125 172.0546875 C154.26245361 172.35270264 154.26245361 172.35270264 152.97998047 172.65673828 C131.16076556 178.02014316 109.90699215 186.56513675 92.51953125 201.0546875 C91.52953125 201.7765625 90.53953125 202.4984375 89.51953125 203.2421875 C75.2134489 215.45373293 66.67841599 235.81513788 64.51953125 254.0546875 C63.145888 277.30095784 70.23265897 298.53789453 85.63671875 316.0390625 C101.94038874 333.6456665 125.33370712 343.22265734 147.83203125 350.0546875 C148.5067749 350.26254883 149.18151855 350.47041016 149.87670898 350.68457031 C155.26619116 352.23080537 160.14668313 352.84563687 165.51953125 351.0546875 C166.37952824 349.26950797 166.37952824 349.26950797 166.89453125 346.9921875 C167.26578125 345.65800781 167.26578125 345.65800781 167.64453125 344.296875 C168.07765625 342.69199219 168.07765625 342.69199219 168.51953125 341.0546875 C169.28327067 338.23355583 170.08056307 335.42420405 170.89453125 332.6171875 C171.17176025 331.57002563 171.17176025 331.57002563 171.45458984 330.50170898 C172.44426593 327.12818654 173.21520006 325.29709641 175.99609375 323.08203125 C179.37702147 321.70558544 181.06384434 321.90279186 184.51953125 323.0546875 C186.89453125 325.1171875 186.89453125 325.1171875 189.51953125 328.0546875 C207.75904885 347.63288529 233.18196205 359.56858751 258.51953125 367.0546875 C259.69 367.40660156 260.86046875 367.75851562 262.06640625 368.12109375 C269.78924616 370.26804061 269.78924616 370.26804061 277.51953125 369.0546875 C280.11255552 365.48702302 281.2072463 362.0653318 282.203125 357.80078125 C282.49123047 356.61677734 282.77933594 355.43277344 283.07617188 354.21289062 C283.66408084 351.72959444 284.24740572 349.24520858 284.82617188 346.75976562 C285.11556641 345.57705078 285.40496094 344.39433594 285.703125 343.17578125 C285.95634521 342.0973999 286.20956543 341.01901855 286.47045898 339.90795898 C287.65448364 336.68764339 288.81978782 335.15048372 291.51953125 333.0546875 C297.84741776 332.2595948 301.80448191 333.69634622 307.33203125 336.6171875 C328.00955608 346.90216775 361.91787795 362.34203819 385.51953125 358.0546875 C389.4302905 356.06500297 391.09642223 354.68935104 393.51953125 351.0546875 C395.1454087 341.92760274 391.74276897 334.76121821 387.76953125 326.7421875 C387.17412014 325.50703596 386.5798168 324.27134986 385.98657227 323.03515625 C380.56509085 311.82548881 374.72994319 300.84621782 368.51953125 290.0546875 C368.01534668 289.178125 367.51116211 288.3015625 366.99169922 287.3984375 C360.7015284 276.53885983 354.06770414 266.08131942 346.51953125 256.0546875 C346.12056641 255.51827637 345.72160156 254.98186523 345.31054688 254.42919922 C320.34818325 220.91491472 289.90696792 191.80412315 249.6640625 178.14453125 C238.86744 174.40259625 238.86744 174.40259625 235.51953125 171.0546875 C234.84914019 164.1273132 234.84914019 164.1273132 237.08203125 160.5546875 C240.75671446 158.29334399 244.28720577 158.56992202 248.46899414 159.47802734 C250.5955538 160.08591195 252.67945992 160.76871913 254.76953125 161.4921875 C255.5373291 161.75225586 256.30512695 162.01232422 257.09619141 162.28027344 C266.7650202 165.67716538 276.54837834 169.92006971 285.37719822 175.15647697 C287.95105257 176.23561035 289.02979994 176.05252846 291.7094574 175.38406372 C292.53758438 175.18487335 293.36571136 174.98568298 294.21893311 174.78045654 C295.56933685 174.43304413 295.56933685 174.43304413 296.94702148 174.07861328 C297.90208084 173.84481964 298.8571402 173.611026 299.84114075 173.37014771 C301.91718598 172.86008926 303.99165481 172.34358175 306.06469536 171.82144547 C309.35452419 170.993355 312.6482655 170.18297119 315.94361877 169.37716675 C324.13532237 167.37029287 332.31967611 165.33409853 340.50384521 163.29675293 C347.40716993 161.57918731 354.31330698 159.87392378 361.2236805 158.18493271 C364.45314638 157.39037191 367.67782262 156.57813818 370.9026947 155.76516724 C396.67505719 149.38473528 396.67505719 149.38473528 406.61328125 153.890625 C412.81977134 157.68065379 418.32038427 162.44111073 420.9296875 169.3671875 C422.98444643 178.72926791 422.46796492 186.89097204 417.51953125 195.0546875 C415.81819436 197.64781176 414.00877942 200.13929098 412.14453125 202.6171875 C411.68820312 203.23787109 411.231875 203.85855469 410.76171875 204.49804688 C407.53154857 208.84879576 404.09389254 212.98323479 400.51953125 217.0546875 C401.50953125 217.7146875 402.49953125 218.3746875 403.51953125 219.0546875 C408.84354924 223.19801977 412.54226774 226.98106995 415.51953125 233.0546875 C415.84953125 233.7146875 416.17953125 234.3746875 416.51953125 235.0546875 C418.48974917 252.26291993 410.87821287 267.03139584 400.51953125 280.3046875 C398.1506512 283.22128548 395.73741462 285.84484435 392.95703125 288.3671875 C392.15265625 289.2540625 391.34828125 290.1409375 390.51953125 291.0546875 C390.80303802 295.41783282 392.83267378 299.12166051 394.7578125 302.97265625 C395.07985153 303.62994217 395.40189056 304.28722809 395.73368835 304.96443176 C396.76099309 307.0597636 397.79584719 309.15123421 398.83203125 311.2421875 C413.89672946 341.72441219 413.89672946 341.72441219 410.37109375 354.86328125 C407.12794644 363.20917868 401.21549492 369.69824955 393.265625 373.6875 C378.75065832 378.98493309 359.0837825 373.5616342 345.0703125 368.515625 C341.5326649 367.26594556 338.30521368 366.22740051 334.51953125 366.0546875 C330.234751 368.29854401 327.5960556 371.38849598 324.51953125 375.0546875 C319.92335203 379.9733046 315.01177806 384.25123897 309.64453125 388.3046875 C308.53489014 389.14374634 308.53489014 389.14374634 307.40283203 389.99975586 C289.82158521 403.14007134 270.82099753 414.10811758 250.45703125 422.3671875 C249.65483154 422.69759033 248.85263184 423.02799316 248.02612305 423.3684082 C243.64450485 425.09317603 239.43889282 426.33002692 234.8046875 427.18359375 C224.32292575 429.18989785 224.32292575 429.18989785 216.38769531 435.85449219 C212.03612595 443.36199911 206.51953125 453.18483357 206.51953125 462.0546875 C208.48123485 463.5144685 208.48123485 463.5144685 211.01953125 464.8046875 C219.3647262 469.63922679 225.03210231 473.76969613 227.9609375 483.28515625 C229.26297266 489.74070118 228.03078938 495.45038887 224.88671875 501.19921875 C221.32145496 506.03779104 216.16303346 509.18199382 210.51953125 511.0546875 C201.9341271 512.20831323 195.80457492 510.54914354 188.51953125 506.0546875 C182.02593238 502.1020621 175.88981855 500.75047487 168.33203125 502.5859375 C164.03954167 504.08180508 161.01795079 506.12357924 157.51953125 509.0546875 C151.08157522 512.28516186 142.00345445 512.40132028 135.11328125 510.33203125 C133.15973968 509.34325099 131.35446108 508.24872708 129.51953125 507.0546875 C122.89285967 503.16248273 117.3061084 500.52648077 109.51953125 502.0546875 C105.2846437 503.68943133 101.4104154 505.86862189 97.5703125 508.27734375 C91.48454102 511.83694594 85.43043606 511.89368345 78.51953125 511.0546875 C71.49626766 509.12471751 67.18109549 504.24756268 63.37890625 498.2578125 C61.03777791 492.25601075 61.381767 483.58280463 63.95703125 477.6796875 C69.80663235 468.18673624 79.63753616 463.3411332 89.51953125 459.0546875 C90.58042969 458.8071875 91.64132813 458.5596875 92.734375 458.3046875 C96.06492559 456.80991024 96.83988654 455.23466921 98.1796875 451.90234375 C98.41558594 451.25136719 98.65148437 450.60039062 98.89453125 449.9296875 C99.15363281 449.27097656 99.41273438 448.61226563 99.6796875 447.93359375 C100.31304799 446.31500583 100.9190574 444.68576185 101.51953125 443.0546875 C100.31941406 442.90773438 99.11929688 442.76078125 97.8828125 442.609375 C79.11702598 440.15040987 61.54934497 435.36052298 44.51953125 427.0546875 C43.55015625 426.58417969 42.58078125 426.11367188 41.58203125 425.62890625 C20.17233578 414.58175234 -4.65555786 393.89729642 -13.734375 370.875 C-14.48046875 368.0546875 -14.48046875 368.0546875 -13.85546875 365.3671875 C-12.25898348 362.68218954 -11.30324143 361.42792826 -8.48046875 360.0546875 C-5.16796875 359.8046875 -5.16796875 359.8046875 -1.48046875 361.0546875 C1.27393247 363.7592353 3.35552699 366.86957301 5.51953125 370.0546875 C27.78060458 401.72316002 57.90372701 418.6299685 95.72558594 425.45263672 C120.55991206 429.5724307 146.55951585 426.97567118 171.51953125 425.0546875 C171.72993042 423.89453125 171.72993042 423.89453125 171.94458008 422.7109375 C173.5245384 415.41159716 178.45012085 409.18705203 184.51953125 405.0546875 C190.75973022 401.85458546 197.19704771 401.56938196 203.953125 403.0546875 C208.70681553 404.90696265 212.0214692 408.44216943 215.51953125 412.0546875 C216.51832589 413.05589141 217.51811557 414.05610518 218.51953125 415.0546875 C241.19934148 407.94008623 267.10273693 399.80447051 285.51953125 384.0546875 C284.42640625 384.5496875 283.33328125 385.0446875 282.20703125 385.5546875 C266.85155627 391.20206009 247.70223574 383.45315024 233.46337891 377.14355469 C228.73121 374.93833879 224.11738439 372.52542799 219.51953125 370.0546875 C218.85034668 369.70003418 218.18116211 369.34538086 217.49169922 368.97998047 C208.74911046 364.32494459 200.56712235 359.20953166 192.60546875 353.31640625 C189.6267174 351.13324545 186.60620646 349.08002844 183.51953125 347.0546875 C183.44476563 347.6115625 183.37 348.1684375 183.29296875 348.7421875 C182.03610079 356.03695055 179.36595119 361.18900031 173.359375 365.6640625 C165.78736085 370.04721216 157.77894002 370.08866727 149.32055664 368.42578125 C146.11833471 367.56525133 142.98023603 366.5953195 139.83203125 365.5546875 C138.70643799 365.1944751 137.58084473 364.8342627 136.42114258 364.46313477 C126.79855635 361.30727767 117.58580788 357.55422985 108.51953125 353.0546875 C107.34261719 352.47976563 106.16570312 351.90484375 104.953125 351.3125 C80.06946328 338.562194 60.58524463 317.63136056 51.51953125 291.0546875 C44.32373765 265.19198163 46.48141931 237.80578436 59.59570312 214.13916016 C64.2678645 206.16405166 70.03738917 199.59620798 76.51953125 193.0546875 C77.14730469 192.37792969 77.77507812 191.70117188 78.421875 191.00390625 C89.37688122 179.37871142 104.9357898 171.80706158 119.45703125 165.6171875 C120.22523193 165.28726807 120.99343262 164.95734863 121.78491211 164.61743164 C126.9394414 162.48941496 132.04276937 161.09105064 137.51953125 160.0546875 C134.39569002 156.92447108 131.2610011 153.80551158 128.12109375 150.69140625 C126.46217427 149.04173234 124.80332193 147.39199092 123.14453125 145.7421875 C122.31953125 144.92556641 121.49453125 144.10894531 120.64453125 143.26757812 C116.29764185 138.93793828 112.10376989 134.54686233 108.10595703 129.89282227 C105.68772799 127.09090684 103.16627289 124.38819337 100.64453125 121.6796875 C95.5504455 116.18425436 90.51769027 110.63764027 85.51953125 105.0546875 C83.31231665 102.59294726 81.10278576 100.13346412 78.88671875 97.6796875 C77.23910585 95.85263161 75.59902541 94.01876656 73.96484375 92.1796875 C58.07727221 74.40996462 38.19255863 55.14571554 13.51953125 52.0546875 C-8.59864853 51.68528157 -27.97889955 60.45462059 -43.99609375 75.40234375 C-45.86398212 77.25390442 -47.69324985 79.12554239 -49.48046875 81.0546875 C-48.69542969 81.73273438 -47.91039062 82.41078125 -47.1015625 83.109375 C-32.87966038 95.6098811 -23.54644927 110.7061735 -22.28100586 130.11376953 C-22.21474812 139.25175793 -23.21905576 148.02969077 -24.5038147 157.06149292 C-32.2045909 211.6592811 -33.87683123 270.7333222 -16.3125 323.69921875 C-15.93834961 324.82827637 -15.56419922 325.95733398 -15.17871094 327.12060547 C-14.43687971 329.32281727 -13.67656023 331.51891096 -12.89550781 333.70751953 C-10.32845432 341.21633246 -10.32845432 341.21633246 -11.1328125 345.65234375 C-12.69575286 348.43845483 -13.69948012 349.77266383 -16.73046875 350.8671875 C-20.51433786 351.12517858 -22.29122752 350.07481569 -25.48046875 348.0546875 C-28.23999425 343.41715159 -29.80452812 338.17362849 -31.48046875 333.0546875 C-31.85969482 331.89670654 -31.85969482 331.89670654 -32.24658203 330.71533203 C-46.57335452 285.87935641 -49.16183915 236.79494383 -45.48046875 190.0546875 C-46.50269531 190.08820313 -47.52492187 190.12171875 -48.578125 190.15625 C-59.93313951 189.8607241 -68.47803798 185.05711827 -76.29296875 177.2421875 C-81.00286023 170.37920278 -82.40755167 163.29146269 -81.48046875 155.0546875 C-80.6461511 151.00297249 -79.62753699 147.0284596 -78.48046875 143.0546875 C-79.81078125 142.3121875 -79.81078125 142.3121875 -81.16796875 141.5546875 C-85.96668662 138.38207545 -88.69159774 133.42130052 -90.48046875 128.0546875 C-93.08746208 112.51110462 -83.56718914 98.36542584 -75.01171875 86.109375 C-73.48046875 84.0546875 -73.48046875 84.0546875 -72.48046875 83.0546875 C-72.3710716 81.42709888 -72.32459691 79.795202 -72.3046875 78.1640625 C-71.84357524 55.68037166 -71.84357524 55.68037166 -67.48046875 46.0546875 C-67.03058594 45.05824219 -66.58070312 44.06179687 -66.1171875 43.03515625 C-62.55306725 36.14570296 -58.00677212 31.38977656 -52.25146484 26.35449219 C-49.01268664 23.51740113 -46.23806251 20.72806179 -43.66796875 17.2421875 C-34.4927627 4.83659106 -15.72134792 -5.99144283 0 0 Z M-34.48046875 31.0546875 C-37.79350364 34.99491163 -40.91584435 38.70254125 -45.04296875 41.8046875 C-51.2912424 46.93870919 -54.47714674 55.21477595 -55.48046875 63.0546875 C-55.03058594 62.714375 -54.58070312 62.3740625 -54.1171875 62.0234375 C-52.72723856 60.97610123 -51.33359715 59.93365785 -49.9375 58.89453125 C-48.27774355 57.65169296 -46.62946967 56.39339308 -44.9921875 55.12109375 C-36.18193261 48.42530004 -26.92367108 43.20878747 -16.25341797 40.25 C-10.43362664 38.85210868 -10.43362664 38.85210868 -6.12890625 35.09765625 C-5.56051417 32.67562733 -5.47263959 30.54044677 -5.48046875 28.0546875 C-5.23662448 26.26217267 -4.98666944 24.47047801 -4.73046875 22.6796875 C-4.27663194 18.91761921 -4.2631646 18.38064372 -6.48046875 15.0546875 C-17.90746618 13.10373672 -27.86655052 23.09482967 -34.48046875 31.0546875 Z M-61.48046875 95.0546875 C-63.11366373 97.36462073 -64.52775535 99.60398524 -65.91796875 102.0546875 C-66.31685303 102.74369141 -66.7157373 103.43269531 -67.12670898 104.14257812 C-68.25650625 106.10679779 -69.36916113 108.0799712 -70.48046875 110.0546875 C-70.96773437 110.89 -71.455 111.7253125 -71.95703125 112.5859375 C-74.31187815 116.85515634 -75.22658653 120.20492196 -74.48046875 125.0546875 C-72.92617781 127.7932001 -71.49910848 128.73862735 -68.50390625 129.66796875 C-58.68389855 131.70990686 -48.46093145 132.19020514 -38.48046875 133.0546875 C-39.57910191 118.3377719 -44.64199571 106.86015603 -55.79296875 96.9296875 C-58.34437695 94.7685967 -58.34437695 94.7685967 -61.48046875 95.0546875 Z M-61.48046875 147.0546875 C-64.22715498 152.46222601 -66.30038939 156.84671696 -65.48046875 163.0546875 C-63.65204109 168.23523254 -61.22719795 170.38465232 -56.48046875 173.0546875 C-53.46556318 174.05965602 -51.43865183 174.15804053 -48.29296875 174.1171875 C-47.39191406 174.10816406 -46.49085937 174.09914062 -45.5625 174.08984375 C-44.53189453 174.07244141 -44.53189453 174.07244141 -43.48046875 174.0546875 C-42.9758525 170.63868603 -42.47758299 167.2217881 -41.98046875 163.8046875 C-41.76583984 162.35255859 -41.76583984 162.35255859 -41.546875 160.87109375 C-41.41152344 159.93652344 -41.27617188 159.00195312 -41.13671875 158.0390625 C-41.01103516 157.18022461 -40.88535156 156.32138672 -40.75585938 155.43652344 C-40.40389809 152.79204999 -40.40389809 152.79204999 -40.48046875 149.0546875 C-47.57085647 147.54494715 -54.23049453 146.77160825 -61.48046875 147.0546875 Z M382.02978516 169.85888672 C381.21106934 170.05074554 380.39235352 170.24260437 379.54882812 170.4402771 C376.86264355 171.07206867 374.17935274 171.71528074 371.49609375 172.359375 C369.62529964 172.803437 367.75439747 173.24704401 365.88339233 173.69021606 C361.9735848 174.6182423 358.06519741 175.55198037 354.15771484 176.48974609 C349.13966083 177.69351546 344.11825384 178.8825721 339.0956974 180.06739616 C335.23739113 180.97932082 331.38099117 181.89910055 327.52512741 182.82129288 C325.67327111 183.26314892 323.82081308 183.70249067 321.96776199 184.13930893 C319.3874806 184.74876356 316.80996366 185.36875822 314.23291016 185.99169922 C313.07660599 186.26143555 313.07660599 186.26143555 311.89694214 186.53662109 C310.08792343 186.9798586 308.3002995 187.50891043 306.51953125 188.0546875 C306.18953125 188.7146875 305.85953125 189.3746875 305.51953125 190.0546875 C306.28652344 190.60511719 307.05351562 191.15554687 307.84375 191.72265625 C315.95052904 197.72823199 323.1953234 204.42809278 330.33203125 211.5546875 C331.20239014 212.41989014 332.07274902 213.28509277 332.96948242 214.17651367 C338.22356034 219.48650196 342.98919823 224.97673809 347.51831055 230.91992188 C349.59956369 233.14006065 350.51042479 233.88501406 353.51953125 234.0546875 C373.65150572 223.69351002 395.32219246 203.44936509 405.51953125 183.0546875 C406.03699675 177.30258422 406.03699675 177.30258422 403.76953125 172.1796875 C400.54839816 169.13750625 398.88594975 168.12319571 394.41342163 167.8989563 C390.08135125 168.07221195 386.22720137 168.84166556 382.02978516 169.85888672 Z M371.99609375 240.234375 C368.62060425 242.71541302 365.09274541 244.87105663 361.51953125 247.0546875 C363.21585896 252.2373329 366.29678117 256.45939174 369.33203125 260.9296875 C369.85345703 261.70699219 370.37488281 262.48429687 370.91210938 263.28515625 C374.03933027 267.93108992 377.2432755 272.5127433 380.51953125 277.0546875 C390.41691673 269.58115152 398.78136571 256.50437316 400.84765625 244.08203125 C401.11777885 241.67959279 401.11777885 241.67959279 400.51953125 238.0546875 C397.53084444 234.55573709 395.72741939 233.21126559 391.14453125 232.6171875 C383.06472402 233.59233665 378.52204461 235.40557544 371.99609375 240.234375 Z M300.51953125 352.0546875 C300.3587207 352.65941895 300.19791016 353.26415039 300.03222656 353.88720703 C299.28938852 356.65457016 298.5296308 359.41701796 297.76953125 362.1796875 C297.516875 363.13101562 297.26421875 364.08234375 297.00390625 365.0625 C295.50624849 370.45406792 293.94524922 374.61810193 290.51953125 379.0546875 C289.94203125 379.8384375 289.36453125 380.6221875 288.76953125 381.4296875 C288.35703125 381.9659375 287.94453125 382.5021875 287.51953125 383.0546875 C292.88889018 381.47671022 296.6420595 377.90857963 300.83203125 374.3671875 C301.55326172 373.76712891 302.27449219 373.16707031 303.01757812 372.54882812 C307.91671644 368.45815748 312.7331511 364.27644143 317.51953125 360.0546875 C314.76645927 357.30161552 311.46270045 356.30560514 307.89453125 354.9296875 C307.188125 354.65253906 306.48171875 354.37539063 305.75390625 354.08984375 C304.01093748 353.40678842 302.26546716 352.73012256 300.51953125 352.0546875 Z M190.51953125 421.0546875 C188.6520115 423.85547269 188.6520115 423.85547269 187.15625 427.203125 C186.86360764 427.8154599 186.57096527 428.4277948 186.26945496 429.0586853 C182.41743776 437.21450225 178.91768554 445.5384995 175.41821289 453.85009766 C174.52943608 455.95585893 173.62886213 458.05625475 172.7265625 460.15625 C172.46293411 460.79164703 172.19930573 461.42704407 171.9276886 462.08169556 C169.59704523 467.47084956 167.35664491 470.29518813 161.91015625 472.546875 C160.532248 473.0146434 159.15191979 473.47533044 157.76953125 473.9296875 C149.94067277 476.68015293 143.1514696 479.83390143 138.51953125 487.0546875 C138.51278199 490.18148849 138.51278199 490.18148849 139.51953125 493.0546875 C143.04904848 495.40769898 144.36179032 495.49341844 148.51953125 495.0546875 C151.54978555 493.63151972 151.54978555 493.63151972 154.45703125 491.6796875 C163.48969207 485.8959284 171.97616624 485.17516889 182.51953125 486.0546875 C188.20773742 487.36517086 192.98322919 489.59349972 197.83203125 492.8046875 C200.35988679 494.46584971 201.64932015 495.0801363 204.70703125 495.6796875 C208.62442729 494.80915505 210.16879601 493.26023556 212.51953125 490.0546875 C212.34912853 487.06790655 211.94283759 485.53156363 209.9453125 483.28125 C204.09159357 478.84497502 197.97266111 475.57369047 191.36328125 472.4375 C188.51953125 471.0546875 188.51953125 471.0546875 187.51953125 470.0546875 C187.07522458 464.03794947 188.00144696 459.94384314 190.765625 454.5546875 C191.096194 453.87470703 191.426763 453.19472656 191.76734924 452.49414062 C192.8159294 450.34008144 193.88428297 448.19680075 194.95703125 446.0546875 C196.02475893 443.9119802 197.08734987 441.76734727 198.13600159 439.61523438 C198.78564525 438.28277368 199.44605129 436.95548336 200.11924744 435.63476562 C202.34573279 431.07970333 203.10595208 427.11133083 203.51953125 422.0546875 C198.48348032 417.91793138 195.97247045 417.05768771 190.51953125 421.0546875 Z M155.26953125 442.5546875 C154.03203125 442.7196875 152.79453125 442.8846875 151.51953125 443.0546875 C150.32256424 445.8426356 149.13670111 448.63443167 147.95703125 451.4296875 C147.61478516 452.22375 147.27253906 453.0178125 146.91992188 453.8359375 C146.44135742 454.97675781 146.44135742 454.97675781 145.953125 456.140625 C145.65462646 456.8423584 145.35612793 457.5440918 145.04858398 458.26708984 C144.27481665 460.13413848 144.27481665 460.13413848 145.51953125 462.0546875 C149.7185544 461.44723388 152.9789209 460.42775074 156.51953125 458.0546875 C159.82583184 453.23823345 161.64867582 447.54593551 163.51953125 442.0546875 C160.63517187 442.0546875 158.09773957 442.17759306 155.26953125 442.5546875 Z M118.51953125 444.0546875 C117.86726563 445.74078125 117.215 447.426875 116.54296875 449.1640625 C115.66114663 451.3779989 114.77827925 453.59151916 113.89453125 455.8046875 C113.46785156 456.91585938 113.04117188 458.02703125 112.6015625 459.171875 C108.49043804 469.35764605 108.49043804 469.35764605 102.51953125 472.0546875 C99.87890625 473.109375 99.87890625 473.109375 97.26953125 473.9296875 C90.32056292 476.34094154 82.42091235 479.46400486 78.51953125 486.0546875 C78.70411483 491.10575941 78.70411483 491.10575941 81.51953125 495.0546875 C86.04025065 495.95883138 88.49928368 494.6177396 92.20703125 492.2421875 C101.93740489 486.10813676 111.2055011 485.60873303 122.51953125 486.0546875 C122.78507812 485.37921875 123.050625 484.70375 123.32421875 484.0078125 C123.67742187 483.11578125 124.030625 482.22375 124.39453125 481.3046875 C124.74257812 480.42296875 125.090625 479.54125 125.44921875 478.6328125 C126.51953125 476.0546875 126.51953125 476.0546875 127.7109375 473.83984375 C127.97777344 473.25074219 128.24460938 472.66164063 128.51953125 472.0546875 C128.21015625 471.4565625 127.90078125 470.8584375 127.58203125 470.2421875 C125.97917431 466.94218791 126.81274822 464.61410515 127.51953125 461.0546875 C128.71872864 457.95869868 130.04639314 454.96666675 131.43554688 451.953125 C132.71381292 449.11803614 133.51953125 447.20716881 133.51953125 444.0546875 C128.56953125 444.0546875 123.61953125 444.0546875 118.51953125 444.0546875 Z " fill="#000000" transform="translate(90.48046875,0.9453125)"/>
<path d="M0 0 C2.13210583 1.60162384 2.89923404 2.47303358 3.40405273 5.11303711 C3.43597843 7.72223715 3.45781382 10.32809713 3.4375 12.9375 C3.4674707 14.2977832 3.4674707 14.2977832 3.49804688 15.68554688 C3.49319702 22.27649953 3.49319702 22.27649953 1.2265625 25.6015625 C-2.46208162 27.91828986 -4.69400073 27.47844436 -9 27 C-11.67431489 25.18836733 -11.95920359 24.12238923 -13 21 C-13.12139491 18.54387046 -13.17542192 16.08409804 -13.1875 13.625 C-13.20167969 12.31789063 -13.21585937 11.01078125 -13.23046875 9.6640625 C-13.01489263 6.23676752 -12.56747785 4.022993 -11 1 C-7.5127355 -1.84147478 -4.16912951 -0.98543061 0 0 Z " fill="#000000" transform="translate(85,77)"/>
</svg>
