<?xml version="1.0" encoding="UTF-8"?>
<svg version="1.1" xmlns="http://www.w3.org/2000/svg" width="512" height="512">
<path d="M0 0 C6.41641158 5.00719969 8.50615872 10.05322704 10.69140625 17.83984375 C15.34039325 34.26873406 23.88878556 46.20184485 35.671875 58.3046875 C36.50477051 59.16827881 36.50477051 59.16827881 37.35449219 60.04931641 C44.02951745 66.95007618 50.75939174 73.56144102 58.359375 79.44921875 C60.671875 81.3046875 60.671875 81.3046875 62.296875 83.06640625 C63.77298165 84.80969892 63.77298165 84.80969892 66.671875 86.3046875 C70.53843019 85.8501459 74.0269633 84.63494724 77.671875 83.3046875 C82.53529869 81.76460333 86.55770281 80.65379286 91.671875 81.3046875 C94.87801073 83.20461979 97.07090418 84.63942757 98.37109375 88.2421875 C98.98684771 91.73808095 98.87898411 93.81416591 97.484375 97.1171875 C94.54835931 100.66065471 91.64046651 102.53322646 87.25 103.84765625 C86.39736572 104.11239746 85.54473145 104.37713867 84.66625977 104.64990234 C83.30778931 105.0668335 83.30778931 105.0668335 81.921875 105.4921875 C48.45464922 116.24611942 20.7135739 138.00016112 4.38012695 169.39990234 C-0.73331384 179.56807905 -4.84946731 189.9021616 -7.703125 200.9296875 C-7.97334473 201.96125977 -7.97334473 201.96125977 -8.24902344 203.01367188 C-9.05336868 206.30671723 -9.42213193 208.02266672 -8.328125 211.3046875 C3.99008786 218.1436294 18.77665583 220.5290817 32.484375 217.0546875 C41.16406377 214.32102645 47.65282859 211.19176042 52.671875 203.3046875 C54.46575851 199.63140989 56.03162456 195.8607199 57.62109375 192.09570312 C60.47816406 185.44202592 63.94916563 179.8253399 68.671875 174.3046875 C69.29707031 173.56863281 69.92226562 172.83257812 70.56640625 172.07421875 C79.42252718 162.46054776 92.24819072 156.96117146 105.21484375 156.14453125 C114.20933144 155.87125091 122.47178495 157.68342782 131.13671875 159.94921875 C144.51040292 163.3107777 159.42035802 161.31507899 171.359375 154.3046875 C172.81115011 153.325527 174.2513182 152.32861359 175.671875 151.3046875 C176.579375 150.7271875 177.486875 150.1496875 178.421875 149.5546875 C185.45186303 142.52469947 189.76293501 132.74905747 189.96484375 122.83203125 C189.94522786 120.96852161 189.9099346 119.10511442 189.859375 117.2421875 C189.83907227 115.80069336 189.83907227 115.80069336 189.81835938 114.33007812 C189.78339806 111.98766998 189.73433604 109.64649594 189.671875 107.3046875 C188.41890625 106.91796875 187.1659375 106.53125 185.875 106.1328125 C184.223753 105.60741573 182.57272249 105.08133823 180.921875 104.5546875 C179.684375 104.17570312 179.684375 104.17570312 178.421875 103.7890625 C173.97188978 102.3535834 170.52029387 101.23535523 167.671875 97.3046875 C166.27598808 93.46790543 166.27782328 90.2379679 167.859375 86.4921875 C169.74985743 84.21057078 171.04551684 82.69082097 173.671875 81.3046875 C180.12320289 80.81338787 185.03800761 82.53240081 190.97460938 84.703125 C194.8527556 86.09341375 194.8527556 86.09341375 198.84765625 85.69921875 C199.44964844 85.23902344 200.05164063 84.77882813 200.671875 84.3046875 C201.455625 83.71816406 202.239375 83.13164063 203.046875 82.52734375 C210.14475016 76.68638398 217.00253349 70.63020707 223.671875 64.3046875 C224.24373535 63.76682617 224.8155957 63.22896484 225.40478516 62.67480469 C239.137412 49.68154038 250.0524947 36.35205367 254.609375 17.6171875 C256.56130792 9.90352488 259.29352262 4.49423979 265.859375 -0.1328125 C272.66378376 -3.91303959 281.10233911 -3.97328638 288.53515625 -1.89453125 C299.5713314 3.10006746 304.85133765 12.33949241 309.13671875 23.1328125 C320.25480759 52.66289272 319.06843262 86.33599082 306.859375 115.3671875 C306.44042969 116.28628906 306.02148438 117.20539063 305.58984375 118.15234375 C304.54110604 120.22131142 304.54110604 120.22131142 304.671875 122.3046875 C305.30053467 122.59077881 305.92919434 122.87687012 306.5769043 123.17163086 C318.63943869 128.6981318 330.18416521 134.08220535 340.671875 142.3046875 C341.64253906 143.05621094 342.61320312 143.80773437 343.61328125 144.58203125 C363.93151447 160.75368626 376.99704411 181.44743406 386.671875 205.3046875 C387.05472656 206.17609375 387.43757813 207.0475 387.83203125 207.9453125 C389.29777848 212.0630396 389.31035693 216.00557587 388.671875 220.3046875 C385.55691627 225.61165422 380.24483506 226.8472893 374.5859375 228.390625 C373.28297812 228.70261985 371.97819332 229.00706966 370.671875 229.3046875 C369.67752441 229.53333496 369.67752441 229.53333496 368.66308594 229.76660156 C357.05379843 232.2748144 345.37833966 232.61524012 333.546875 232.6796875 C332.84478912 232.68754272 332.14270325 232.69539795 331.41934204 232.70349121 C320.23791536 232.80079909 309.6437098 231.41447089 298.671875 229.3046875 C298.69282227 230.26318604 298.71376953 231.22168457 298.73535156 232.20922852 C299.29784062 260.59599804 297.65663828 287.5364424 290.51513672 315.19995117 C290.13446045 316.69425659 290.13446045 316.69425659 289.74609375 318.21875 C289.51494873 319.0845166 289.28380371 319.9502832 289.0456543 320.84228516 C288.42260141 324.94686477 289.11710946 327.51658709 291.4921875 330.890625 C292.25273437 331.81101562 293.01328125 332.73140625 293.796875 333.6796875 C309.72441803 354.01969798 311.99246534 378.94886146 309.390625 404.01416016 C306.37295568 424.84207953 293.58267244 444.42068368 276.98461914 456.96337891 C241.19135772 483.11557633 193.20840141 489.34822658 149.9296875 489.5078125 C148.6549205 489.51478149 147.3801535 489.52175049 146.0667572 489.52893066 C141.97679211 489.54820253 137.88688056 489.55310543 133.796875 489.5546875 C133.10170147 489.55527664 132.40652794 489.55586578 131.69028854 489.55647278 C111.2090579 489.56873639 90.96914904 489.363315 70.671875 486.3046875 C69.13805176 486.0878833 69.13805176 486.0878833 67.57324219 485.86669922 C33.43283591 480.95609284 -5.45697181 470.08443137 -27.53515625 441.44140625 C-43.74770051 419.37330029 -47.59911293 394.11272067 -43.703125 367.22265625 C-41.18332454 353.67797345 -34.46636539 341.28860658 -25.89453125 330.63671875 C-23.70745736 327.38065114 -23.11446863 324.72129481 -23.7019043 320.82641602 C-23.93304932 319.95428467 -24.16419434 319.08215332 -24.40234375 318.18359375 C-24.65612793 317.18231445 -24.90991211 316.18103516 -25.17138672 315.14941406 C-25.44998535 314.0662793 -25.72858398 312.98314453 -26.015625 311.8671875 C-32.65761212 284.22132167 -33.92365959 257.5650944 -33.328125 229.3046875 C-34.43172363 229.51689941 -35.53532227 229.72911133 -36.67236328 229.94775391 C-47.26821693 231.90117451 -57.43971243 232.80011297 -68.203125 232.6796875 C-68.93526215 232.67569946 -69.66739929 232.67171143 -70.42172241 232.66760254 C-82.23039363 232.59254437 -93.78693226 231.95854465 -105.328125 229.3046875 C-105.98586914 229.15483398 -106.64361328 229.00498047 -107.32128906 228.85058594 C-112.57203336 227.59329028 -117.08867595 226.09980576 -121.640625 223.1796875 C-124.13442052 218.93099884 -123.86172774 215.13398425 -123.328125 210.3046875 C-122.31863982 206.72656644 -120.88436355 203.42622293 -119.328125 200.0546875 C-118.91949219 199.14082275 -118.51085937 198.22695801 -118.08984375 197.28540039 C-101.54259613 160.90899169 -75.18320101 138.43947171 -39.328125 122.3046875 C-40.72474964 118.08241764 -42.13013085 113.86607334 -43.609375 109.671875 C-54.39414833 78.76935141 -54.48249092 44.89531539 -40.30859375 14.98828125 C-36.51249786 7.56594997 -30.91060913 0.80547113 -22.9140625 -2.140625 C-15.35006044 -3.76311487 -6.77798898 -4.20003591 0 0 Z M-18.44921875 20.3984375 C-26.08660377 32.21177316 -29.60725265 46.3678221 -30.328125 60.3046875 C-30.38097656 61.16835937 -30.43382813 62.03203125 -30.48828125 62.921875 C-31.33178435 89.4005376 -21.329923 116.80815537 -3.328125 136.3046875 C-1.843125 136.7996875 -1.843125 136.7996875 -0.328125 137.3046875 C0.11015625 136.72203125 0.5484375 136.139375 1 135.5390625 C13.45496352 119.43874381 28.38977179 107.83203935 45.671875 97.3046875 C42.11575045 93.70288795 38.47037085 90.22018178 34.734375 86.8046875 C34.23486328 86.34449219 33.73535156 85.88429688 33.22070312 85.41015625 C30.69730258 83.09839575 28.14424493 80.85179319 25.49609375 78.68359375 C21.76752414 75.54293138 18.80415612 72.02388521 15.671875 68.3046875 C14.88425781 67.40492187 14.09664062 66.50515625 13.28515625 65.578125 C1.09674816 51.42986569 -6.61828905 36.3283614 -11.328125 18.3046875 C-14.80355337 17.82198912 -15.89580499 17.87794068 -18.44921875 20.3984375 Z M276.671875 18.3046875 C276.14400391 20.13580078 276.14400391 20.13580078 275.60546875 22.00390625 C269.99414655 40.93657294 261.23367637 55.497721 247.71484375 70.05078125 C246.2974771 71.61449168 244.93958406 73.23337831 243.6328125 74.890625 C241.8951078 77.02987102 240.21086209 78.72657523 238.109375 80.4921875 C234.64083815 83.45869928 231.23727656 86.48508648 227.859375 89.5546875 C226.94542969 90.38484375 226.03148437 91.215 225.08984375 92.0703125 C223.23880779 93.78080131 221.44539851 95.51607701 219.671875 97.3046875 C220.15954346 97.62107178 220.64721191 97.93745605 221.1496582 98.26342773 C237.55773218 108.94771004 254.95187318 120.45897036 265.671875 137.3046875 C276.30401828 133.12350756 283.19890487 116.07937604 287.671875 106.3046875 C298.30399729 81.7030335 298.05101878 54.17281731 288.671875 29.3046875 C286.7626578 25.20259797 284.88277977 21.51559227 281.671875 18.3046875 C279.08833282 18.13781302 279.08833282 18.13781302 276.671875 18.3046875 Z M211.671875 117.3046875 C211.52492188 119.04492188 211.52492188 119.04492188 211.375 120.8203125 C209.70191291 138.95190751 204.86439422 154.85395674 190.56640625 167.109375 C174.92419423 178.89998707 155.10144626 183.99421544 135.671875 182.3046875 C130.07545478 181.37393957 124.60778033 180.0431393 119.109375 178.66015625 C109.50517691 176.3424765 101.61638317 176.69346507 92.671875 181.3046875 C83.12526297 187.47609202 79.10913779 196.28259395 74.671875 206.3046875 C68.04705014 221.22058106 57.81500126 230.35916329 42.6875 236.26953125 C24.42993873 242.5366993 5.48396759 239.4067705 -12.328125 233.3046875 C-12.85558914 260.43798389 -10.68344901 285.81599878 -4.328125 312.3046875 C-3.39355469 311.80839844 -2.45898438 311.31210937 -1.49609375 310.80078125 C39.44890977 289.45817833 86.43351585 284.05846625 132.046875 284.1171875 C133.35863708 284.11809387 133.35863708 284.11809387 134.69689941 284.11901855 C149.43027146 284.14650244 164.02253808 284.61922369 178.671875 286.3046875 C180.35531006 286.49804688 180.35531006 286.49804688 182.07275391 286.6953125 C212.10151719 290.28928001 240.89796733 296.97400585 267.671875 311.3046875 C268.331875 311.6346875 268.991875 311.9646875 269.671875 312.3046875 C282.25076228 261.22768643 283.77315832 207.11987401 256.921875 160.25 C246.17771217 142.69125241 230.58059031 126.09201992 211.671875 117.3046875 Z M-36.390625 144.4296875 C-37.05674805 144.74881104 -37.72287109 145.06793457 -38.40917969 145.39672852 C-67.7505854 159.57746797 -85.08096293 178.44073255 -99.328125 207.3046875 C-93.74475113 212.88806137 -79.4640727 211.57914649 -71.98535156 211.63305664 C-70.6959668 211.62781982 -69.40658203 211.62258301 -68.078125 211.6171875 C-67.07162903 211.6164473 -67.07162903 211.6164473 -66.0447998 211.61569214 C-54.3068644 211.58935278 -42.55015083 211.04536278 -31.328125 207.3046875 C-30.30706513 204.53570637 -30.30706513 204.53570637 -29.578125 201.0546875 C-26.0646067 186.77082354 -21.75789542 172.82172894 -14.41796875 160.01953125 C-13.07432005 157.44901676 -13.07432005 157.44901676 -13.859375 155.25390625 C-15.74050475 152.75740693 -17.76169933 150.46922232 -19.890625 148.1796875 C-24.23090278 143.49913194 -24.23090278 143.49913194 -25.328125 141.3046875 C-29.7476215 141.3046875 -32.52522445 142.55010481 -36.390625 144.4296875 Z M288.37890625 143.25390625 C287.75371094 144.15753906 287.12851562 145.06117188 286.484375 145.9921875 C284.06529858 149.3966311 281.71009599 152.42814568 278.671875 155.3046875 C279.84068888 158.31020891 281.09141323 161.26727309 282.40625 164.2109375 C287.29300181 175.27720689 290.97541641 186.37654435 294.07324219 198.06445312 C294.8994882 201.15647328 295.78277123 204.23021653 296.671875 207.3046875 C298.8586966 207.78694081 301.04636755 208.26534333 303.234375 208.7421875 C304.45253906 209.00902344 305.67070312 209.27585937 306.92578125 209.55078125 C315.04588501 211.18496272 322.90854938 211.49093559 331.15771484 211.48999023 C333.27071787 211.49216063 335.38318384 211.51031274 337.49609375 211.52929688 C345.9448719 211.5650496 354.43663262 211.39818569 362.671875 209.3046875 C363.331875 208.6446875 363.991875 207.9846875 364.671875 207.3046875 C359.1533468 196.24329743 353.64845101 185.81738858 345.671875 176.3046875 C344.94226563 175.42425781 344.21265625 174.54382813 343.4609375 173.63671875 C332.87722995 161.36333157 319.57732381 153.20478396 305.296875 145.8671875 C304.64315918 145.52494141 303.98944336 145.18269531 303.31591797 144.83007812 C295.74948797 140.85572747 295.74948797 140.85572747 288.37890625 143.25390625 Z M56.609375 311.0546875 C55.41876465 311.31072754 54.2281543 311.56676758 53.00146484 311.83056641 C27.43415395 317.54780172 0.96224525 327.78614222 -14.328125 350.3046875 C-21.30975737 361.85890546 -23.85303858 373.39575026 -23.703125 386.8046875 C-23.71472656 387.84238281 -23.72632812 388.88007813 -23.73828125 389.94921875 C-23.67402708 407.14791752 -17.34236304 422.00138509 -5.328125 434.3046875 C36.40579611 471.60472589 105.46306532 471.70364053 158.390625 468.7421875 C197.45452275 466.16436684 243.55872702 461.57980014 272.671875 432.3046875 C284.20710049 418.89381559 289.2437077 404.41027908 289.046875 386.8046875 C289.06427734 385.24814453 289.06427734 385.24814453 289.08203125 383.66015625 C289.0172098 366.30961491 282.5810051 351.83347965 270.671875 339.3046875 C236.75492649 307.22418967 180.51983412 304.69065921 136.73339844 304.91357422 C133.34920218 304.93066509 129.9657143 304.9204652 126.58154202 304.90325928 C103.13362117 304.802288 79.57365081 305.99062729 56.609375 311.0546875 Z " fill="#000000" transform="translate(123.328125,12.6953125)"/>
<path d="M0 0 C4.61897251 2.18793435 6.72022138 4.49856742 9 9 C9.92417518 14.65287153 10.05934998 20.26311546 6.75 25.125 C3.56404407 28.45577211 1.76545304 29.78853905 -2.8046875 30.3359375 C-13.28908795 30.46932682 -13.28908795 30.46932682 -18 26 C-21.86918287 20.56449732 -21.92503289 15.47523026 -21 9 C-19.48094821 5.50376969 -17.45883209 2.93466298 -14.1953125 0.84375 C-9.66382977 -0.89788749 -4.76008163 -0.51615343 0 0 Z " fill="#000000" transform="translate(322,262)"/>
<path d="M0 0 C4.61897251 2.18793435 6.72022138 4.49856742 9 9 C9.92417518 14.65287153 10.05934998 20.26311546 6.75 25.125 C3.56404407 28.45577211 1.76545304 29.78853905 -2.8046875 30.3359375 C-13.28908795 30.46932682 -13.28908795 30.46932682 -18 26 C-21.86918287 20.56449732 -21.92503289 15.47523026 -21 9 C-19.48094821 5.50376969 -17.45883209 2.93466298 -14.1953125 0.84375 C-9.66382977 -0.89788749 -4.76008163 -0.51615343 0 0 Z " fill="#000000" transform="translate(202,262)"/>
<path d="M0 0 C2.8100346 1.79363911 4.50940468 3.01880935 6 6 C6.52893101 10.41353907 6.49914819 13.95829942 4.5625 18 C0.91198769 20.84918034 -2.42336575 21.2942122 -7 21 C-10.670261 19.43818681 -11.7727373 18.34089404 -14 15 C-14.73965025 10.40728797 -14.60961194 6.97537911 -12.125 3 C-8.46188547 -0.44763721 -4.88098361 -0.70129075 0 0 Z " fill="#000000" transform="translate(290,357)"/>
<path d="M0 0 C2.8100346 1.79363911 4.50940468 3.01880935 6 6 C6.52893101 10.41353907 6.49914819 13.95829942 4.5625 18 C0.91198769 20.84918034 -2.42336575 21.2942122 -7 21 C-10.670261 19.43818681 -11.7727373 18.34089404 -14 15 C-14.73965025 10.40728797 -14.60961194 6.97537911 -12.125 3 C-8.46188547 -0.44763721 -4.88098361 -0.70129075 0 0 Z " fill="#000000" transform="translate(230,357)"/>
<path d="M0 0 C3.125 1.875 3.125 1.875 5 5 C5.98876625 10.02622846 5.7769173 13.70513784 3.125 18.125 C-1.29486216 20.7769173 -4.97377154 20.98876625 -10 20 C-13.125 18.125 -13.125 18.125 -15 15 C-15.98876625 9.97377154 -15.7769173 6.29486216 -13.125 1.875 C-8.70513784 -0.7769173 -5.02622846 -0.98876625 0 0 Z " fill="#000000" transform="translate(261,89)"/>
</svg>
