<?xml version="1.0" encoding="UTF-8"?>
<svg version="1.1" xmlns="http://www.w3.org/2000/svg" width="512" height="512">
<path d="M0 0 C10.35940725 7.82342435 18.45849536 17.53453046 20.6875 30.6875 C21.78783694 43.212323 21.78783694 43.212323 18.91015625 47.0703125 C16.56142619 48.77923033 15.54569174 49.23215925 12.6875 49.1875 C12.0275 49.1978125 11.3675 49.208125 10.6875 49.21875 C7.69002415 48.42254548 6.55732344 47.1461189 4.6875 44.6875 C3.8515625 41.3671875 3.8515625 41.3671875 3.3125 37.5625 C1.81051858 28.73769102 -1.12904419 21.9081238 -8.25 16.25 C-15.86116057 11.16631916 -23.7528953 8.67757581 -32.92578125 10.08984375 C-42.29344756 12.551952 -48.99152891 17.24287099 -54.12109375 25.44140625 C-56.98464988 30.83991371 -57.87069218 35.82969808 -58.65234375 41.84765625 C-59.35996494 44.89168348 -60.16790887 46.43955508 -62.3125 48.6875 C-66.35465692 50.20330885 -68.11541462 50.22932082 -72.07421875 48.4375 C-73.99104245 47.3728823 -75.88836861 46.27219094 -77.76171875 45.1328125 C-84.58801218 41.26492802 -93.73875114 41.60732989 -101.20703125 43.37109375 C-109.871255 46.57858672 -115.07446931 51.43691228 -119.3671875 59.5390625 C-121.67455255 64.78307398 -121.57662565 70.10657192 -121.65429688 75.75585938 C-121.85286351 80.68308262 -122.82545762 83.21318405 -126.3125 86.6875 C-127.7665625 87.7703125 -127.7665625 87.7703125 -129.25 88.875 C-134.86613835 93.4505848 -137.40111592 100.21215872 -138.25 107.25 C-138.63899226 115.35019177 -137.0683871 121.18778763 -132.3125 127.6875 C-132.3125 128.3475 -132.3125 129.0075 -132.3125 129.6875 C-130.98991528 130.37524405 -129.65263497 131.03461373 -128.3125 131.6875 C-127.28125 132.203125 -126.25 132.71875 -125.1875 133.25 C-117.54073295 136.44566384 -109.09293206 136.40879579 -101.3125 133.6875 C-96.87213591 131.37321291 -93.26036147 128.91414426 -90.1875 124.9375 C-87.56202844 121.78693413 -85.30553992 121.31797999 -81.3125 120.6875 C-76.22348568 121.85871561 -74.16168501 125.19596216 -71.3125 129.25 C-61.83809543 141.95313047 -49.53750326 148.48913881 -33.9375 151.0625 C-18.44902584 152.80260185 -4.16207785 148.34006658 8.08056641 138.8515625 C12.84561559 134.90566528 16.16724585 130.37923527 19.4921875 125.15625 C22.3181194 121.9783337 24.54589764 121.40286768 28.6875 120.6875 C32.65179631 121.95607482 34.3688973 123.28039655 36.9375 126.5625 C40.80972996 131.50760896 46.4210607 133.98000119 52.46484375 135.2890625 C59.90859884 136.18690673 66.30711154 135.50770917 72.9375 131.9375 C79.0728928 126.91763317 82.35275788 121.9013602 83.4375 114 C84.19072602 104.42123891 81.90620388 97.04583061 75.6875 89.6875 C73.89043696 87.9747889 72.06716762 86.39889809 70.10546875 84.87890625 C68.6875 83.6875 68.6875 83.6875 67.6875 81.6875 C67.59364742 79.90221537 67.50455544 78.11645255 67.44824219 76.32958984 C67.09546705 66.01209302 65.48072904 57.141893 57.6875 49.6875 C53.13927842 46.49039088 48.49562219 43.85822779 43.25 42 C39.96324885 40.78909168 38.75253901 40.32926162 36.6875 37.6875 C36.30168328 33.6364244 36.13073531 30.96478371 37.75 27.25 C40.61636816 24.93841277 43.04703658 24.95260041 46.6875 24.6875 C59.90552821 27.57800275 69.69410709 34.98891953 77.6875 45.6875 C82.16313036 53.10523256 84.5877215 60.14408028 85 68.8125 C85.32997853 73.61894116 85.32997853 73.61894116 88 77.625 C88.886875 78.305625 89.77375 78.98625 90.6875 79.6875 C96.31505961 85.99718804 100.44838299 94.06825028 100.8125 102.625 C100.77125 103.305625 100.73 103.98625 100.6875 104.6875 C101.53054688 104.93371094 102.37359375 105.17992188 103.2421875 105.43359375 C107.0429209 106.81685386 110.37706896 108.65134041 113.8125 110.75 C114.46919678 111.14920654 115.12589355 111.54841309 115.80249023 111.9597168 C134.73964279 123.65166951 154.6065661 139.05637149 164.0625 159.6875 C165.22444642 165.2648428 165.40505638 170.49262167 163.625 175.9375 C160.02269607 181.05044752 155.71331246 184.80765252 149.6875 186.6875 C131.24113349 188.66092885 113.38070415 183.08424663 96.6875 175.6875 C95.38355021 175.12588824 94.07886792 174.56597398 92.7734375 174.0078125 C91.24589844 173.35425781 91.24589844 173.35425781 89.6875 172.6875 C89.9040625 173.62722656 90.120625 174.56695312 90.34375 175.53515625 C94.53329368 195.64347585 95.47322553 219.08429292 88.6875 238.6875 C88.31367188 239.78578125 87.93984375 240.8840625 87.5546875 242.015625 C79.59303278 263.0006487 62.61091656 276.79843817 42.69873047 285.81201172 C24.90851207 293.55609077 4.81380656 296.7987232 -14.515625 296.890625 C-15.47410339 296.89632507 -16.43258179 296.90202515 -17.42010498 296.90789795 C-19.44379594 296.91729634 -21.46750186 296.92386125 -23.49121094 296.92773438 C-26.51266064 296.93734153 -29.53339972 296.96837383 -32.5546875 297 C-66.30125399 297.18429526 -101.51907619 290.75449864 -126.5859375 266.5078125 C-142.39570908 250.15443846 -147.52865384 229.03936739 -147.5625 206.9375 C-147.56483643 206.24751923 -147.56717285 205.55753845 -147.56958008 204.84664917 C-147.58360109 193.88874693 -146.7784418 183.38792601 -144.3125 172.6875 C-145.47523438 173.20699219 -146.63796875 173.72648438 -147.8359375 174.26171875 C-165.61256763 182.0582894 -187.22434203 190.82857186 -206.98828125 186.0390625 C-211.82330811 183.84217651 -215.37769964 180.064313 -218.3125 175.6875 C-220.26725902 169.82322293 -220.10471465 163.83203375 -217.6875 158.125 C-210.77826611 144.42648419 -200.38278622 133.96466213 -188.3125 124.6875 C-186.90871094 123.57761719 -186.90871094 123.57761719 -185.4765625 122.4453125 C-179.99514885 118.19831908 -174.36110404 114.3432448 -168.4375 110.75 C-167.81907227 110.37230469 -167.20064453 109.99460937 -166.56347656 109.60546875 C-162.91622993 107.44355295 -159.38068985 105.87561049 -155.3125 104.6875 C-155.23 103.388125 -155.1475 102.08875 -155.0625 100.75 C-153.94391725 90.73001929 -148.52824725 82.51320685 -141.3125 75.6875 C-139.60099474 73.97599474 -139.94523362 71.71728407 -139.71801758 69.41821289 C-138.16950317 54.01803769 -132.5801081 43.63036928 -120.70703125 33.4765625 C-111.77110705 26.80012974 -102.37944808 24.3384352 -91.375 24.4375 C-90.51970703 24.42976563 -89.66441406 24.42203125 -88.78320312 24.4140625 C-83.29746019 24.43080008 -78.57943733 25.14952989 -73.3125 26.6875 C-73.23 26.0275 -73.1475 25.3675 -73.0625 24.6875 C-70.21206196 13.28574784 -61.61758584 4.4090478 -51.94140625 -1.83984375 C-35.98537759 -10.77806486 -15.21860832 -10.10024229 0 0 Z M-186.3125 145.6875 C-187.26382813 146.55632812 -188.21515625 147.42515625 -189.1953125 148.3203125 C-194.60357524 153.47027015 -199.21438188 158.82378302 -202.3125 165.6875 C-202.3125 166.6775 -202.3125 167.6675 -202.3125 168.6875 C-193.75142857 172.96803571 -181.83163769 168.44092296 -173.3125 165.6875 C-172.06726563 165.28660156 -170.82203125 164.88570312 -169.5390625 164.47265625 C-157.85751532 160.47555367 -147.12128033 154.59323091 -136.3125 148.6875 C-136.3125 148.0275 -136.3125 147.3675 -136.3125 146.6875 C-137.64830442 145.61588801 -139.0332436 144.60519878 -140.4375 143.625 C-147.39307618 138.36457211 -151.2316761 131.73187353 -154.3125 123.6875 C-164.83675989 123.6875 -178.94817311 138.87515264 -186.3125 145.6875 Z M99.6875 123.6875 C99.01654297 124.99074219 99.01654297 124.99074219 98.33203125 126.3203125 C90.71936469 140.83145089 90.71936469 140.83145089 84.375 144.9375 C83.488125 145.515 82.60125 146.0925 81.6875 146.6875 C81.6875 147.3475 81.6875 148.0075 81.6875 148.6875 C99.05573428 158.46938364 119.37353032 169.86343533 139.875 169.8125 C141.44314453 169.81636719 141.44314453 169.81636719 143.04296875 169.8203125 C145.66498861 169.86616723 145.66498861 169.86616723 147.6875 168.6875 C145.31684222 153.84512084 128.81152807 142.10382613 117.45117188 133.74194336 C109.21543043 126.96192146 109.21543043 126.96192146 99.6875 123.6875 Z M-84.3125 143.6875 C-86.08722252 144.57045737 -86.08722252 144.57045737 -87.875 145.9375 C-97.59125002 152.25130868 -108.07596441 152.3094727 -119.3125 152.6875 C-129.4330676 177.75277243 -136.6718786 208.57796899 -126.3125 234.6875 C-125.91160156 235.72390625 -125.51070313 236.7603125 -125.09765625 237.828125 C-117.93714187 254.01711404 -103.94787184 264.44724949 -87.9375 271 C-71.03355889 277.50929194 -53.39008605 280.18888143 -35.3125 279.6875 C-34.89418596 276.39750718 -34.89418596 276.39750718 -35.3125 272.6875 C-37.44359007 270.21027975 -37.44359007 270.21027975 -40.3125 267.6875 C-42.69165835 264.56755171 -44.86948201 261.31506601 -47.0625 258.0625 C-47.65160156 257.20398438 -48.24070312 256.34546875 -48.84765625 255.4609375 C-53.42375991 248.72827925 -55.21218817 243.92214589 -54.3125 235.6875 C-53.06880015 232.04427054 -51.24754315 229.41639527 -48.17749023 227.02319336 C-44.48659513 225.30245308 -41.15298559 225.23812667 -37.16015625 225.25390625 C-36.38240341 225.2486644 -35.60465057 225.24342255 -34.80332947 225.23802185 C-33.16357615 225.23161813 -31.5237768 225.23291726 -29.8840332 225.24145508 C-27.38604257 225.24996239 -24.89034298 225.22118874 -22.39257812 225.18945312 C-20.79427151 225.18784073 -19.19596088 225.18841938 -17.59765625 225.19140625 C-16.85685318 225.18017227 -16.11605011 225.16893829 -15.35279846 225.15736389 C-10.19852338 225.22603055 -7.27769385 226.43363519 -3.3125 229.6875 C0.24008186 234.66111461 0.60871701 239.78087332 -0.3125 245.6875 C-1.52515861 249.00699982 -3.35450347 251.75701739 -5.3125 254.6875 C-6.1196879 255.95105821 -6.92557041 257.21545084 -7.73046875 258.48046875 C-8.60994344 259.84246251 -9.49146895 261.20313411 -10.375 262.5625 C-10.7982959 263.21758545 -11.2215918 263.8726709 -11.65771484 264.54760742 C-13.48948878 267.30026732 -14.93578308 269.40576452 -17.60546875 271.40234375 C-18.16878906 271.82644531 -18.73210937 272.25054687 -19.3125 272.6875 C-19.64630814 276.31313814 -19.64630814 276.31313814 -19.3125 279.6875 C6.38087646 280.97455225 35.66954815 274.82376843 55.58203125 257.6796875 C67.07643622 246.8037199 74.82189965 233.03207256 75.86450195 216.95874023 C76.31816044 195.02588876 74.69979445 172.7120889 64.6875 152.6875 C63.59953125 152.66171875 62.5115625 152.6359375 61.390625 152.609375 C49.86061665 152.21333112 39.09634074 151.00548724 29.6875 143.6875 C26.67716488 145.02036976 24.81111666 146.43169314 22.625 148.875 C15.48269374 156.20005183 6.15934573 161.0352205 -3.3125 164.6875 C-4.55773437 165.16896484 -4.55773437 165.16896484 -5.828125 165.66015625 C-24.0089865 171.37490073 -45.26187539 168.60963659 -62 160.125 C-68.51458875 156.6279803 -73.70692192 152.10475649 -78.921875 146.91015625 C-81.18236908 144.5006697 -81.18236908 144.5006697 -84.3125 143.6875 Z M-38.3125 240.6875 C-37.219375 242.399375 -36.12625 244.11125 -35 245.875 C-33.17040089 248.74022125 -31.36987617 251.58517218 -29.70703125 254.55078125 C-29.24683594 255.25589844 -28.78664062 255.96101563 -28.3125 256.6875 C-27.6525 256.6875 -26.9925 256.6875 -26.3125 256.6875 C-25.08824166 255.28660092 -25.08824166 255.28660092 -23.9296875 253.44140625 C-23.26259766 252.43303711 -23.26259766 252.43303711 -22.58203125 251.40429688 C-22.12183594 250.69337891 -21.66164063 249.98246094 -21.1875 249.25 C-20.71957031 248.54294922 -20.25164062 247.83589844 -19.76953125 247.10742188 C-17.39754752 244.11746842 -17.39754752 244.11746842 -16.3125 240.6875 C-23.5725 240.6875 -30.8325 240.6875 -38.3125 240.6875 Z " fill="#000000" transform="translate(283.3125,7.3125)"/>
<path d="M0 0 C2.68557153 1.85924183 3.69501764 3.16862982 4.8125 6.21484375 C5.07298611 10.08414785 3.38051 12.59897773 1.5625 15.875 C-2.83030991 24.52458303 -3.71394849 32.41120304 -1.22265625 41.98828125 C0.16123161 45.73978448 1.65754614 48.57927097 4.1875 51.6875 C6.60746706 54.77504418 6.85891361 57.12012424 7 61 C6.04525829 63.93766681 5.2178706 64.86282221 2.57421875 66.52734375 C1.62160156 66.99269531 0.66898438 67.45804687 -0.3125 67.9375 C-4.61901598 70.17508925 -7.82864054 72.25202973 -11 76 C-12.051875 77.1446875 -12.051875 77.1446875 -13.125 78.3125 C-18.51897996 86.04387128 -18.9319366 93.78418256 -18 103 C-15.53391636 112.89085159 -10.17453596 118.34070587 -2 124 C-0.42829004 127.14341993 -0.76824217 130.55771451 -1 134 C-1.33 134.99 -1.66 135.98 -2 137 C-2.81383439 147.2596499 -2.07093305 156.09528454 4.4375 164.375 C6.82795771 166.82376156 9.30306304 168.90238237 12 171 C13.3318098 173.66361959 13.15804249 176.13943578 13.23901367 179.0690918 C13.55093998 189.38753128 14.69442816 198.53184945 22.0390625 206.3984375 C29.47283723 212.46984714 37.58674091 215.20768326 47.015625 214.90234375 C48.08296875 214.87269531 49.1503125 214.84304688 50.25 214.8125 C51.24515625 214.75707031 52.2403125 214.70164062 53.265625 214.64453125 C56 215 56 215 58.2734375 216.53515625 C60.52605284 219.75099398 60.89742999 222.82661123 61.375 226.625 C62.80719674 235.63407811 65.60577308 242.59769425 72.9375 248.4375 C74.27310892 249.32040253 75.62639103 250.1774634 77 251 C78.5159375 251.928125 78.5159375 251.928125 80.0625 252.875 C87.20206344 255.61593585 96.9575057 255.29872365 103.9375 252.3125 C106.81999257 250.8090611 109.44198289 249.01706214 112.125 247.1875 C115.1330338 245.24605986 115.96239807 245.0006267 119.75 244.9375 C124.02245945 246.33426559 125.88238141 247.88845184 127.98828125 251.8671875 C128.66916457 253.26050085 129.34750554 254.65505915 130.0234375 256.05078125 C133.41332388 262.81699446 139.78998207 267.20972635 146.8984375 269.65234375 C156.99048082 271.32184534 166.06650365 270.30091054 174.76953125 264.90234375 C179.96141953 261.02485757 182.89638177 255.38381537 185.5625 249.625 C187 247 187 247 188.75 245.5625 C193.01597797 244.49600551 196.45763902 245.07834527 200.2421875 247.33984375 C201.74482571 248.37448858 203.22964157 249.43571398 204.69140625 250.52734375 C211.78524459 255.05251643 219.87794876 254.9187105 228 254 C236.66901242 251.22867749 242.59635971 246.77484303 247.171875 239.01171875 C249.95954327 233.48688345 250.72711094 228.04260182 251.3125 221.91796875 C252.17193859 218.27023791 252.85453398 217.06268099 256 215 C259.04157898 214.47615555 262.04474387 214.49642489 265.125 214.5 C275.40135048 214.23209854 283.59931008 212.57279899 291 205 C297.0669605 196.83748768 298.32569147 189.48786809 298.390625 179.54492188 C298.58979532 172.94463865 300.64897612 170.23045856 305.4375 165.6875 C311.88017873 158.93054426 314.14449253 153.2061959 314.125 143.9375 C314.12886719 142.09478516 314.12886719 142.09478516 314.1328125 140.21484375 C314.14782675 136.98214792 314.14782675 136.98214792 313 134 C312.30977814 126.86770748 312.30977814 126.86770748 315.1875 123.25 C316.89565052 121.88347958 318.63895458 120.55764683 320.4375 119.3125 C326.08231374 114.2183998 329.65779271 107.45430477 330.23828125 99.8984375 C330.43339067 90.6358744 329.38599832 83.23400623 323.75 75.6875 C319.54480376 71.57787641 314.94098982 68.8986064 309.625 66.4375 C307 65 307 65 305.5625 63.25 C304.49600551 58.98402203 305.07834527 55.54236098 307.33984375 51.7578125 C308.37448858 50.25517429 309.43571398 48.77035843 310.52734375 47.30859375 C314.9071261 40.44267501 314.71874479 32.87155436 314 25 C312.74407495 20.31657504 310.89391725 16.32546351 308.1875 12.3125 C306.42599388 8.88219862 306.98807039 6.6429466 308 3 C310.42100227 -0.00204281 312.07368015 -0.00935621 315.9375 -0.5 C319.10024644 -0.34771962 319.97336208 -0.01858459 322.6875 1.875 C329.44845595 11.01142696 332.39209778 20.45798402 332.375 31.75 C332.37628906 32.63163818 332.37757813 33.51327637 332.37890625 34.42163086 C332.28109357 40.45989686 331.42769154 45.46421107 328.875 51.00390625 C327.79926156 53.09469241 327.79926156 53.09469241 328 56 C329.56647018 57.63152895 329.56647018 57.63152895 331.625 59.1875 C340.27547995 66.46246194 347.08311002 76.75971949 348.22265625 88.24389648 C348.96122552 103.84458048 346.96074068 115.53354285 337 128 C336.1028125 128.88558594 335.205625 129.77117187 334.28125 130.68359375 C330.94607452 134.66887258 331.61067958 138.74445695 331.9375 143.6875 C332.19140871 151.62178841 331.7964477 157.85099695 328 165 C327.52949219 165.89203125 327.05898438 166.7840625 326.57421875 167.703125 C324.40513437 171.53685553 322.65192247 174.47846203 319.1875 177.25 C315.9587541 181.30899484 316.49171374 185.23217821 316.28515625 190.30078125 C315.33065148 202.68319249 308.81766027 213.0018126 299.9375 221.40625 C290.36743319 229.27840173 280.31471568 232.70744111 268 232 C267.690625 233.8871875 267.690625 233.8871875 267.375 235.8125 C266.55511832 239.63764065 265.31500787 242.1707965 263.14453125 245.3984375 C258.14183098 254.34632613 257.6379362 264.80961101 256.3125 274.8125 C255.89258439 277.88794166 255.46632594 280.9621894 255.02812195 284.03507996 C254.75829946 285.93558817 254.4994084 287.83769142 254.25325012 289.7414093 C253.565016 294.67955596 252.69654627 298.69235048 250 303 C246.65126458 304.67436771 242.87967138 304.20634047 239.1953125 304.23828125 C238.31978729 304.246353 237.44426208 304.25442474 236.54220581 304.26274109 C234.68782533 304.27658221 232.83341937 304.28730424 230.97900391 304.29516602 C228.14306434 304.31239029 225.30828714 304.35627643 222.47265625 304.40039062 C220.67188358 304.41051655 218.87110099 304.41903297 217.0703125 304.42578125 C216.22228058 304.44328934 215.37424866 304.46079742 214.5005188 304.47883606 C208.62922352 304.4572047 208.62922352 304.4572047 205.49414062 302.17919922 C203.41132127 299.141414 202.97873243 296.43853151 202.375 292.8125 C202.19843872 291.77802734 202.19843872 291.77802734 202.01831055 290.72265625 C200.72084961 282.85475408 199.83404097 274.92829534 199 267 C195.7405115 268.38986847 194.04511325 269.91215416 191.875 272.6875 C184.55123522 281.25521634 175.06410829 287.04114571 163.73828125 288.23925781 C149.32670426 289.26456476 136.37360124 287.57679435 124.96484375 277.91015625 C122.27836151 275.29844688 119.8462501 272.5274337 117.5078125 269.6015625 C115.98651937 267.73219209 115.98651937 267.73219209 113 267 C112.89042969 268.0415625 112.78085938 269.083125 112.66796875 270.15625 C111.84308404 277.73610316 110.90800788 285.29535593 109.625 292.8125 C109.30402344 294.74029297 109.30402344 294.74029297 108.9765625 296.70703125 C107.85280477 300.49634231 107.17485273 301.68067805 104 304 C101.00073748 304.59402165 98.04958189 304.56058413 95 304.53125 C94.12730469 304.5350769 93.25460938 304.53890381 92.35546875 304.54284668 C90.51300908 304.5455649 88.67051076 304.53820994 86.828125 304.52148438 C84.00954066 304.50007248 81.19350515 304.52128801 78.375 304.546875 C76.58332771 304.54423171 74.79165701 304.53910669 73 304.53125 C72.15824219 304.53934692 71.31648438 304.54744385 70.44921875 304.55578613 C64.62355968 304.46252553 64.62355968 304.46252553 61.49194336 302.13964844 C59.53745299 299.33664507 59.11208771 297.130912 58.5625 293.75 C58.38992676 292.75830811 58.38992676 292.75830811 58.21386719 291.74658203 C57.46057126 287.29905352 56.83534013 282.83620411 56.22935486 278.36645508 C55.84687909 275.57281326 55.44611055 272.78188367 55.0451355 269.99084473 C54.75756051 267.92920177 54.49865003 265.86530155 54.24047852 263.79980469 C53.07119575 255.23014737 50.74432135 248.55280055 46.53222656 241.09033203 C44.9899833 237.97979742 44.38009853 235.43183874 44 232 C43.41734375 232.04640625 42.8346875 232.0928125 42.234375 232.140625 C29.36003543 232.70741982 19.65205558 227.45024169 10.03515625 219.34375 C2.77023241 212.60342678 -2.26248475 203.77697072 -4 194 C-4.0805115 191.64638048 -4.1419769 189.29205613 -4.1875 186.9375 C-4.52680846 180.37753645 -6.2106146 177.80746948 -10.859375 173.359375 C-15.72608482 167.99533716 -19.99446603 159.1471487 -20.00244141 151.72924805 C-19.95265137 150.91496338 -19.90286133 150.10067871 -19.8515625 149.26171875 C-19.81675781 148.35873047 -19.78195313 147.45574219 -19.74609375 146.52539062 C-19.66581465 144.64401099 -19.56189628 142.76348129 -19.43359375 140.88476562 C-19.24284346 135.59213245 -19.24284346 135.59213245 -21.47070312 130.94116211 C-23.249417 129.20212651 -25.10240914 127.60673279 -27 126 C-36.14377434 113.81459825 -37.31609452 100.78743935 -36 86 C-33.87742745 74.32585095 -26.88390785 64.66500757 -18 57 C-17.01 56.505 -17.01 56.505 -16 56 C-16.51583304 52.80183514 -17.38400198 49.93474463 -18.51171875 46.9140625 C-20.1618896 41.99043055 -20.53894492 37.48104679 -20.5 32.3125 C-20.49572998 31.44471924 -20.49145996 30.57693848 -20.48706055 29.68286133 C-20.20718116 18.97327173 -17.07188679 9.21867924 -10 1 C-6.79989699 -0.6000515 -3.47289683 -0.49514569 0 0 Z M73 269 C73.14238837 271.04190981 73.28907028 273.08352045 73.4375 275.125 C73.51871094 276.26195312 73.59992188 277.39890625 73.68359375 278.5703125 C73.97514671 281.73060263 74.47824525 284.86947148 75 288 C80.94 288 86.88 288 93 288 C93.66 282.72 94.32 277.44 95 272 C90.00481277 271.38541979 90.00481277 271.38541979 85.00927734 270.77368164 C80.98739136 270.27490243 76.99322318 269.69912898 73 269 Z M233.625 269.9375 C228.14789599 271.36235547 222.63329291 271.61591185 217 272 C217.66 277.28 218.32 282.56 219 288 C224.94 288 230.88 288 237 288 C238.7254272 278.55127764 238.7254272 278.55127764 239 269 C236.73737446 268.91078538 236.73737446 268.91078538 233.625 269.9375 Z " fill="#000000" transform="translate(100,208)"/>
<path d="M0 0 C0.66 -0.0103125 1.32 -0.020625 2 -0.03125 C5.04782397 0.77832824 6.15682414 1.94542293 8 4.5 C8.40100915 7.33065284 8.56122899 9.68346659 8.5 12.5 C8.51546875 13.2115625 8.5309375 13.923125 8.546875 14.65625 C8.52115187 18.10314984 8.25431936 20.14752229 6.21875 22.96875 C3.88020812 24.58267327 2.80290722 25.04379543 0 25 C-0.66 25.0103125 -1.32 25.020625 -2 25.03125 C-5.04782397 24.22167176 -6.15682414 23.05457707 -8 20.5 C-8.40100915 17.66934716 -8.56122899 15.31653341 -8.5 12.5 C-8.51546875 11.7884375 -8.5309375 11.076875 -8.546875 10.34375 C-8.52115187 6.89685016 -8.25431936 4.85247771 -6.21875 2.03125 C-3.88020812 0.41732673 -2.80290722 -0.04379543 0 0 Z " fill="#000000" transform="translate(312,175.5)"/>
<path d="M0 0 C0.66 -0.0103125 1.32 -0.020625 2 -0.03125 C5.04782397 0.77832824 6.15682414 1.94542293 8 4.5 C8.40100915 7.33065284 8.56122899 9.68346659 8.5 12.5 C8.51546875 13.2115625 8.5309375 13.923125 8.546875 14.65625 C8.52115187 18.10314984 8.25431936 20.14752229 6.21875 22.96875 C3.88020812 24.58267327 2.80290722 25.04379543 0 25 C-0.66 25.0103125 -1.32 25.020625 -2 25.03125 C-5.04782397 24.22167176 -6.15682414 23.05457707 -8 20.5 C-8.40100915 17.66934716 -8.56122899 15.31653341 -8.5 12.5 C-8.51546875 11.7884375 -8.5309375 11.076875 -8.546875 10.34375 C-8.52115187 6.89685016 -8.25431936 4.85247771 -6.21875 2.03125 C-3.88020812 0.41732673 -2.80290722 -0.04379543 0 0 Z " fill="#000000" transform="translate(200,175.5)"/>
</svg>
