<?xml version="1.0" standalone="no"?>
<!DOCTYPE svg PUBLIC "-//W3C//DTD SVG 20010904//EN"
 "http://www.w3.org/TR/2001/REC-SVG-20010904/DTD/svg10.dtd">
<svg version="1.0" xmlns="http://www.w3.org/2000/svg"
 width="512.000000pt" height="512.000000pt" viewBox="0 0 512.000000 512.000000"
 preserveAspectRatio="xMidYMid meet">

<g transform="translate(0.000000,512.000000) scale(0.100000,-0.100000)"
fill="#000000" stroke="none">
<path d="M2420 5114 c-169 -22 -348 -73 -472 -135 -84 -42 -98 -59 -98 -114 0
-28 7 -44 31 -66 38 -36 66 -36 144 -2 196 85 336 116 535 117 255 2 470 -63
683 -206 284 -190 485 -516 525 -850 l8 -68 -35 -6 c-61 -10 -194 -46 -237
-65 l-41 -17 -44 37 c-172 147 -415 259 -639 296 -52 8 -151 15 -220 15 -69 0
-168 -7 -220 -15 -224 -37 -467 -149 -639 -296 l-44 -37 -41 17 c-23 10 -81
28 -131 40 -49 12 -102 26 -116 29 l-26 7 14 90 c15 108 43 203 89 308 49 111
45 161 -16 192 -42 22 -72 19 -107 -12 -56 -50 -142 -290 -164 -461 -6 -48
-13 -92 -15 -99 -1 -6 -24 -14 -51 -17 -189 -24 -288 -52 -438 -126 -272 -135
-491 -384 -588 -670 -145 -427 -44 -885 268 -1209 175 -181 375 -292 615 -341
l105 -21 76 -77 c191 -194 463 -321 836 -393 172 -32 201 -61 242 -238 36
-151 51 -293 51 -478 l0 -173 29 -32 29 -33 235 -3 236 -3 33 30 33 29 7 224
c7 231 13 291 49 443 41 172 55 184 286 230 371 75 618 195 797 387 l83 89 95
19 c431 88 777 411 901 840 66 227 59 478 -20 710 -97 286 -316 535 -588 670
-123 61 -228 95 -337 110 -163 23 -152 16 -160 90 -41 373 -260 746 -571 974
-164 121 -386 216 -584 252 -88 15 -326 26 -393 18z m430 -1298 c140 -39 316
-130 425 -219 146 -120 228 -228 312 -404 69 -146 83 -163 138 -163 33 0 49 6
70 27 24 25 27 34 23 78 -5 62 -82 227 -156 335 l-52 75 55 17 c85 26 220 41
320 35 443 -27 809 -337 912 -773 24 -106 25 -319 0 -423 -45 -189 -133 -349
-266 -482 -125 -124 -258 -205 -420 -254 -23 -7 -24 -6 -17 26 31 146 35 282
11 334 -42 87 -169 70 -188 -25 -4 -16 -22 -47 -42 -68 -85 -95 -231 -114
-485 -63 -192 39 -305 48 -405 32 -42 -7 -79 -11 -81 -8 -3 3 -12 51 -20 108
-39 283 -146 574 -293 801 -73 114 -110 136 -175 107 -57 -26 -231 -338 -299
-535 -42 -121 -84 -301 -93 -401 -4 -40 -7 -73 -8 -73 -1 0 -33 7 -71 15 -101
21 -247 19 -389 -7 -137 -24 -328 -29 -392 -10 -84 25 -174 110 -174 165 0 10
-13 32 -29 48 -40 39 -89 40 -132 1 -27 -24 -32 -36 -40 -107 -10 -87 1 -209
26 -291 8 -26 13 -50 11 -51 -6 -7 -168 56 -215 83 -246 142 -420 374 -488
652 -24 98 -24 322 0 426 103 436 469 746 912 773 100 6 236 -9 320 -35 l55
-17 -51 -75 c-138 -205 -213 -423 -226 -661 -5 -99 -3 -119 11 -142 41 -61
143 -53 170 15 7 18 16 76 19 128 16 255 137 517 325 708 158 161 388 281 617
322 28 5 124 7 215 5 140 -3 179 -7 260 -29z m-237 -1281 c90 -180 169 -458
183 -646 l7 -84 -58 -39 c-31 -22 -89 -75 -129 -118 l-73 -79 -27 40 c-29 41
-131 143 -179 176 l-27 20 10 110 c13 135 57 322 106 446 38 98 123 269 134
269 3 0 27 -43 53 -95z m-1311 -846 c89 -14 224 -6 372 21 132 24 266 26 350
4 152 -39 294 -151 381 -301 60 -105 74 -116 133 -117 64 -1 90 18 138 100 21
38 71 101 109 140 159 160 369 208 630 145 194 -47 379 -52 503 -13 34 11 62
17 62 14 0 -3 -16 -35 -36 -71 -134 -245 -395 -390 -849 -472 -60 -11 -132
-31 -160 -45 -59 -30 -127 -93 -160 -149 -59 -100 -115 -414 -115 -645 l0
-100 -100 0 -100 0 0 100 c0 223 -53 528 -111 642 -31 61 -105 134 -163 163
-29 14 -99 34 -156 46 -368 71 -602 178 -763 348 -60 64 -126 165 -141 218
l-7 22 55 -19 c30 -11 87 -25 128 -31z"/>
<path d="M3727 2795 c-51 -52 -37 -134 28 -161 99 -41 179 72 109 155 -35 41
-98 44 -137 6z"/>
<path d="M1595 4723 c-58 -14 -87 -80 -60 -136 36 -76 135 -76 174 0 36 70
-36 156 -114 136z"/>
</g>
</svg>
