<?xml version="1.0" standalone="no"?>
<!DOCTYPE svg PUBLIC "-//W3C//DTD SVG 20010904//EN"
 "http://www.w3.org/TR/2001/REC-SVG-20010904/DTD/svg10.dtd">
<svg version="1.0" xmlns="http://www.w3.org/2000/svg"
 width="512.000000pt" height="512.000000pt" viewBox="0 0 512.000000 512.000000"
 preserveAspectRatio="xMidYMid meet">

<g transform="translate(0.000000,512.000000) scale(0.100000,-0.100000)"
fill="#000000" stroke="none">
<path d="M4145 5109 c-126 -24 -279 -89 -400 -170 l-81 -54 -49 18 c-64 24
-172 19 -230 -10 -45 -23 -134 -113 -158 -160 -9 -16 -21 -51 -28 -76 -10 -43
-14 -47 -43 -48 -17 0 -47 -6 -66 -12 -33 -12 -37 -11 -67 20 -39 38 -90 51
-135 32 -34 -14 -196 -146 -423 -345 -216 -189 -207 -178 -203 -220 4 -47 43
-80 82 -70 14 3 66 42 115 86 110 99 415 359 418 356 1 -1 -16 -49 -38 -106
-138 -364 -277 -888 -380 -1430 -46 -249 -91 -427 -148 -592 -35 -101 -113
-294 -123 -303 -2 -2 -48 -20 -103 -40 -134 -50 -330 -150 -355 -182 -35 -44
-22 -91 29 -113 28 -11 36 -10 78 14 179 100 389 179 568 215 171 35 312 44
550 37 298 -9 411 11 597 105 l77 38 -81 -127 c-314 -494 -689 -941 -1008
-1203 -443 -364 -846 -488 -1212 -373 -120 38 -210 86 -350 185 -10 7 58 181
115 295 104 205 225 375 381 538 71 74 96 106 96 126 0 58 -56 93 -108 66 -34
-18 -159 -147 -242 -251 -87 -110 -151 -207 -226 -343 l-64 -117 0 110 c0 716
399 1501 1167 2297 101 104 113 120 113 152 0 43 -31 76 -71 76 -23 0 -51 -23
-142 -117 -605 -624 -991 -1246 -1141 -1841 -49 -190 -68 -344 -75 -577 l-6
-220 -52 78 c-61 91 -105 199 -129 317 -24 118 -15 335 19 480 132 556 575
1207 1345 1978 149 150 182 187 182 210 0 39 -37 72 -80 72 -32 0 -52 -18
-240 -208 -927 -938 -1390 -1718 -1390 -2342 0 -187 34 -337 111 -493 l33 -67
-106 -108 c-59 -59 -112 -120 -117 -135 -18 -46 -13 -128 8 -164 11 -17 111
-108 222 -201 213 -180 250 -201 324 -189 64 10 102 44 186 165 45 64 83 118
83 119 1 1 31 -9 67 -22 167 -60 403 -77 574 -41 353 76 694 284 1061 651 248
248 501 563 726 906 158 241 189 294 195 338 7 50 -21 108 -64 133 -29 18 -33
25 -33 63 0 38 3 44 26 49 44 11 102 56 154 119 59 73 80 128 80 211 l0 61 45
18 c41 17 105 74 155 139 39 50 60 111 60 173 l0 60 48 17 c61 22 143 104 182
182 24 48 30 72 30 125 l0 66 49 23 c58 26 139 110 172 179 37 74 34 171 -7
250 l-31 60 24 47 c39 76 93 250 93 298 0 53 -24 81 -70 81 -45 0 -66 -26 -85
-106 -19 -80 -74 -220 -84 -214 -57 31 -110 48 -154 50 l-55 2 -12 53 c-15 67
-54 118 -160 209 -98 85 -149 111 -230 120 -55 5 -60 8 -60 30 0 32 -25 89
-57 132 l-26 34 29 24 c16 13 74 46 129 73 296 146 554 110 655 -92 16 -34 38
-70 47 -80 24 -26 69 -23 100 8 20 20 24 31 19 57 -20 103 -133 241 -238 290
-111 52 -254 69 -383 46z m-572 -351 c40 -21 119 -92 133 -120 8 -15 14 -47
14 -71 0 -80 -87 -168 -168 -170 -20 -1 -37 4 -39 10 -3 7 -43 45 -90 84 l-85
73 5 44 c5 48 43 103 97 140 36 24 98 29 133 10z m-348 -308 c35 -13 155 -114
177 -148 11 -16 18 -46 18 -74 0 -75 -76 -162 -153 -175 -35 -5 -41 -2 -100
54 -34 32 -82 74 -106 93 -53 42 -63 67 -50 115 11 39 80 122 114 136 28 11
69 11 100 -1z m738 -24 c18 -7 69 -45 114 -85 121 -105 132 -165 47 -260 -58
-64 -112 -84 -148 -55 -190 155 -236 198 -236 225 0 63 53 141 115 170 48 22
66 23 108 5z m-955 -377 c136 -116 145 -165 55 -277 -41 -50 -79 -72 -125 -72
-27 0 -43 9 -77 44 -37 38 -43 48 -37 73 14 59 91 303 96 303 3 0 42 -32 88
-71z m670 27 c15 -8 65 -48 112 -88 130 -113 140 -177 41 -279 -43 -45 -51
-49 -93 -49 -30 0 -50 6 -59 17 -11 13 -133 117 -221 189 -40 32 -13 118 58
184 38 35 50 40 89 40 25 0 58 -6 73 -14z m772 -51 c58 -37 118 -101 125 -134
4 -17 4 -44 0 -60 -9 -41 -59 -107 -98 -131 -52 -32 -82 -26 -146 28 -31 27
-72 61 -92 76 -62 45 -58 111 12 190 61 69 125 80 199 31z m-1070 -292 c47
-32 200 -164 215 -186 18 -25 20 -99 4 -130 -54 -105 -169 -170 -210 -120 -18
21 -207 183 -239 204 -21 14 -25 24 -24 62 1 38 8 56 44 102 24 31 55 62 69
70 36 20 111 19 141 -2z m764 -53 c23 -11 72 -48 110 -83 67 -61 69 -64 74
-118 4 -50 1 -58 -30 -99 -41 -54 -92 -90 -127 -90 -18 0 -55 25 -116 76 -49
42 -100 80 -111 86 -49 23 -39 108 19 174 65 74 112 88 181 54z m-1344 -152
c0 -39 -6 -54 -41 -98 -22 -28 -43 -50 -45 -48 -3 4 40 196 52 228 10 26 33
-31 34 -82z m279 -163 c20 -14 77 -60 126 -103 110 -95 129 -133 102 -203 -24
-62 -86 -125 -137 -140 -27 -8 -47 -9 -55 -3 -22 16 -258 218 -283 242 -34 33
-26 87 25 153 67 90 145 109 222 54z m780 -39 c40 -21 173 -134 193 -165 20
-29 23 -86 8 -125 -5 -14 -33 -51 -63 -81 -46 -48 -58 -55 -91 -55 -32 0 -50
11 -124 73 -48 40 -104 86 -124 101 -33 24 -38 34 -38 68 0 46 10 67 59 127
55 67 120 88 180 57z m-1126 -292 c18 -8 86 -61 152 -117 137 -117 159 -152
137 -224 -17 -58 -116 -160 -164 -168 -36 -7 -42 -4 -154 91 -64 54 -118 104
-121 111 -8 20 48 307 61 315 18 12 56 9 89 -8z m835 -86 c59 -33 221 -175
232 -204 13 -34 12 -91 -1 -117 -17 -32 -68 -89 -98 -109 -52 -36 -78 -26
-200 77 -63 53 -126 102 -142 111 -29 15 -34 31 -29 94 3 49 84 144 136 160
45 13 58 12 102 -12z m-278 -375 c69 -48 227 -189 243 -217 22 -39 22 -94 1
-125 -18 -25 -107 -69 -190 -94 l-50 -15 -115 94 c-63 52 -124 103 -136 114
-25 20 -30 61 -13 105 14 36 89 123 120 140 36 20 110 19 140 -2z m-652 -100
c82 -78 82 -78 82 -129 0 -57 -20 -92 -102 -176 -52 -53 -96 -67 -152 -48 -59
19 -60 26 -17 146 21 60 49 148 62 197 13 48 28 87 34 87 6 0 48 -35 93 -77z
m347 -292 c17 -11 46 -34 65 -51 l35 -32 -49 6 c-27 3 -99 6 -160 6 l-111 0
47 45 c42 41 52 45 95 45 30 0 59 -7 78 -19z m-2221 -1609 c56 -53 140 -124
188 -156 51 -35 85 -64 81 -70 -22 -36 -129 -182 -137 -188 -6 -4 -16 -8 -22
-8 -5 0 -94 71 -197 157 -131 110 -187 163 -187 177 0 12 33 53 82 103 46 46
84 83 87 83 2 0 50 -44 105 -98z"/>
<path d="M2162 3095 c-38 -28 -207 -268 -327 -465 -156 -258 -284 -548 -273
-620 4 -32 50 -64 80 -56 41 11 47 20 93 140 85 224 234 487 440 777 70 100
95 142 95 165 0 54 -65 89 -108 59z"/>
<path d="M3004 1697 c-11 -7 -55 -51 -96 -98 -279 -315 -663 -594 -983 -714
-159 -60 -257 -77 -450 -81 -169 -3 -181 -5 -197 -25 -24 -28 -23 -74 1 -98
27 -27 93 -35 250 -28 219 9 404 61 640 178 294 145 615 400 868 688 82 94 91
124 48 166 -27 27 -49 31 -81 12z"/>
</g>
</svg>
