<?xml version="1.0" standalone="no"?>
<!DOCTYPE svg PUBLIC "-//W3C//DTD SVG 20010904//EN"
 "http://www.w3.org/TR/2001/REC-SVG-20010904/DTD/svg10.dtd">
<svg version="1.0" xmlns="http://www.w3.org/2000/svg"
 width="512.000000pt" height="512.000000pt" viewBox="0 0 512.000000 512.000000"
 preserveAspectRatio="xMidYMid meet">

<g transform="translate(0.000000,512.000000) scale(0.100000,-0.100000)"
fill="#000000" stroke="none">
<path d="M1235 4964 c-16 -2 -79 -9 -140 -15 -309 -31 -685 -128 -888 -230
-226 -114 -261 -271 -79 -352 183 -83 639 -83 1077 -2 493 92 805 248 805 401
0 83 -81 144 -240 179 -72 16 -457 30 -535 19z m543 -128 c75 -19 117 -40 125
-61 12 -29 -52 -84 -157 -135 -305 -147 -798 -238 -1221 -227 -330 9 -463 61
-379 148 96 100 595 245 994 288 137 15 563 6 638 -13z"/>
<path d="M2613 4669 c-83 -41 -217 -210 -307 -388 -30 -58 -27 -86 9 -103 35
-16 59 4 105 89 99 184 214 317 268 311 42 -5 55 -58 48 -188 -13 -243 -111
-636 -226 -905 -141 -332 -312 -598 -390 -607 -18 -2 -28 4 -38 26 -24 49 -27
193 -7 342 13 96 16 141 8 153 -11 18 -51 25 -72 12 -35 -23 -71 -323 -52
-446 19 -130 59 -185 138 -192 121 -10 252 135 412 457 119 240 185 419 251
675 56 220 73 331 74 485 1 161 -11 209 -64 262 -45 45 -90 50 -157 17z"/>
<path d="M2108 3793 c-23 -26 -71 -200 -64 -228 7 -28 50 -44 75 -28 14 9 81
198 81 230 0 38 -65 56 -92 26z"/>
<path d="M3312 3755 c-111 -31 -152 -70 -152 -143 0 -61 36 -120 110 -180 295
-238 1013 -462 1490 -465 211 -2 309 33 339 120 20 56 4 106 -55 172 -159 177
-688 391 -1194 482 -154 28 -461 36 -538 14z m323 -95 c320 -36 613 -111 907
-231 382 -157 544 -290 413 -339 -66 -24 -349 -19 -510 9 -365 64 -759 197
-994 336 -91 54 -191 141 -191 166 0 23 34 50 72 59 48 12 199 11 303 0z"/>
<path d="M325 3459 c-17 -4 -43 -22 -59 -38 -42 -44 -45 -101 -12 -205 131
-402 887 -1143 1267 -1242 84 -22 131 -14 177 32 35 35 35 35 30 112 -6 87
-31 156 -102 276 -196 331 -641 775 -972 968 -136 80 -262 117 -329 97z m170
-128 c72 -33 224 -135 337 -226 280 -226 493 -450 653 -690 90 -134 137 -233
139 -295 l1 -45 -50 0 c-85 1 -268 104 -465 262 -115 92 -362 335 -460 452
-167 199 -287 393 -309 499 -8 38 -6 47 11 64 24 24 56 19 143 -21z"/>
<path d="M2980 2791 c-436 -141 -1228 -970 -1257 -1317 -10 -119 42 -171 163
-162 119 9 282 98 510 279 440 351 825 853 824 1076 -1 122 -95 171 -240 124z
m130 -96 c27 -32 -26 -170 -123 -317 -182 -280 -554 -652 -833 -834 -161 -105
-289 -153 -322 -120 -45 45 73 272 269 516 252 314 661 656 894 746 71 27 98
29 115 9z"/>
<path d="M4225 2064 c-440 -27 -940 -148 -1161 -280 -240 -144 -208 -311 72
-369 110 -23 341 -30 519 -16 592 47 1135 226 1226 403 59 115 -29 207 -233
242 -88 16 -319 26 -423 20z m449 -129 c38 -8 79 -22 92 -30 131 -85 -284
-274 -789 -360 -367 -62 -841 -57 -942 9 -108 71 121 197 552 305 224 56 361
76 633 95 106 7 386 -4 454 -19z"/>
<path d="M237 1290 c-125 -32 -175 -115 -128 -214 38 -78 167 -184 333 -275
81 -44 122 -50 141 -20 21 33 0 65 -65 99 -107 57 -200 122 -261 182 -47 47
-58 63 -55 85 4 37 47 52 148 52 288 2 838 -150 1185 -327 194 -99 375 -237
375 -286 0 -9 -12 -24 -27 -33 -41 -27 -300 -24 -442 5 -110 23 -134 20 -146
-18 -4 -12 0 -31 8 -44 36 -55 475 -94 593 -53 80 28 132 96 118 155 -39 169
-375 382 -868 548 -142 48 -361 105 -501 130 -107 19 -354 27 -408 14z"/>
<path d="M3442 840 c-204 -21 -322 -88 -322 -181 0 -55 20 -88 87 -148 223
-199 952 -376 1476 -359 236 8 373 52 411 131 21 46 20 72 -5 125 -80 165
-614 357 -1174 421 -132 15 -378 21 -473 11z m512 -124 c449 -55 1016 -247
1042 -353 10 -36 -6 -55 -62 -77 -72 -28 -400 -34 -619 -12 -403 42 -812 160
-1011 292 -69 46 -90 75 -74 103 14 27 39 40 113 57 80 18 428 12 611 -10z"/>
<path d="M695 750 c-15 -16 -17 -26 -9 -48 8 -22 26 -33 108 -65 110 -43 142
-43 152 0 10 40 -5 55 -102 95 -104 43 -125 45 -149 18z"/>
</g>
</svg>
