<?xml version="1.0" standalone="no"?>
<!DOCTYPE svg PUBLIC "-//W3C//DTD SVG 20010904//EN"
 "http://www.w3.org/TR/2001/REC-SVG-20010904/DTD/svg10.dtd">
<svg version="1.0" xmlns="http://www.w3.org/2000/svg"
 width="512.000000pt" height="512.000000pt" viewBox="0 0 512.000000 512.000000"
 preserveAspectRatio="xMidYMid meet">

<g transform="translate(0.000000,512.000000) scale(0.100000,-0.100000)"
fill="#000000" stroke="none">
<path d="M1084 5105 c-301 -53 -583 -219 -783 -461 -376 -455 -401 -1054 -58
-1420 390 -417 1120 -355 1577 133 174 186 284 396 335 638 21 96 24 303 6
390 -74 362 -310 615 -660 706 -102 27 -307 34 -417 14z m306 -196 c155 -25
277 -86 385 -195 76 -75 139 -182 169 -283 92 -312 -24 -691 -294 -961 -378
-378 -935 -434 -1244 -125 -80 80 -127 152 -161 252 -113 324 -6 704 278 991
245 248 571 369 867 321z"/>
<path d="M916 4533 c-44 -12 -146 -81 -201 -138 -79 -80 -130 -166 -130 -218
0 -73 93 -124 152 -82 11 8 35 40 52 70 38 68 99 128 169 167 29 17 59 40 67
51 48 68 -28 172 -109 150z"/>
<path d="M3282 4490 c-306 -43 -551 -214 -682 -475 -65 -130 -91 -228 -97
-381 -9 -194 26 -369 108 -543 250 -534 844 -857 1364 -744 272 59 487 228
604 473 61 128 82 221 88 385 6 160 -13 278 -69 432 -39 109 -61 133 -122 133
-37 0 -48 -5 -70 -31 -33 -39 -33 -75 0 -158 46 -115 66 -240 61 -376 -8 -213
-61 -339 -197 -476 -96 -97 -177 -144 -305 -180 -105 -30 -283 -32 -400 -5
-554 128 -954 695 -849 1204 54 262 250 465 509 528 156 38 379 17 546 -51 83
-33 104 -32 145 9 56 56 41 122 -35 160 -154 77 -424 121 -599 96z"/>
<path d="M4155 4118 c-56 -49 -40 -134 32 -164 31 -14 38 -13 71 3 98 48 69
183 -39 183 -25 0 -47 -8 -64 -22z"/>
<path d="M3115 3336 c-50 -50 -42 -102 30 -210 71 -107 221 -216 298 -216 97
0 131 131 46 178 -75 41 -146 103 -179 157 -56 93 -82 115 -130 115 -30 0 -47
-6 -65 -24z"/>
<path d="M698 2640 c-335 -70 -590 -322 -675 -666 -24 -100 -24 -342 1 -449
60 -258 174 -464 361 -650 446 -447 1111 -513 1503 -150 356 330 383 886 68
1359 -189 283 -523 505 -844 561 -116 20 -305 18 -414 -5z m477 -215 c387
-113 695 -444 782 -840 22 -103 20 -281 -5 -376 -54 -204 -176 -355 -357 -444
-95 -47 -171 -65 -295 -72 -497 -26 -995 389 -1085 904 -68 392 129 737 480
839 131 38 328 33 480 -11z"/>
<path d="M1169 2052 c-24 -21 -31 -36 -31 -64 0 -52 15 -72 78 -107 71 -41
132 -102 176 -177 43 -74 86 -95 141 -69 37 17 57 50 57 92 0 78 -150 259
-266 321 -77 40 -114 41 -155 4z"/>
<path d="M3749 1980 c-464 -73 -828 -366 -941 -755 -19 -68 -23 -103 -23 -230
0 -178 13 -232 85 -380 298 -611 1196 -807 1811 -395 92 62 256 231 305 315
83 144 121 265 131 415 29 471 -341 892 -892 1016 -82 18 -390 27 -476 14z
m404 -205 c457 -80 786 -428 764 -810 -13 -225 -137 -432 -342 -574 -537 -372
-1353 -171 -1557 382 -39 105 -49 264 -24 370 74 312 369 564 742 631 106 19
311 20 417 1z"/>
<path d="M3814 1506 c-112 -26 -144 -52 -144 -121 0 -27 8 -44 29 -66 34 -34
69 -37 145 -14 27 8 75 15 106 15 31 0 79 -7 106 -15 76 -23 111 -20 145 14
60 61 25 142 -76 176 -68 23 -234 29 -311 11z"/>
</g>
</svg>
