<?xml version="1.0" standalone="no"?>
<!DOCTYPE svg PUBLIC "-//W3C//DTD SVG 20010904//EN"
 "http://www.w3.org/TR/2001/REC-SVG-20010904/DTD/svg10.dtd">
<svg version="1.0" xmlns="http://www.w3.org/2000/svg"
 width="512.000000pt" height="512.000000pt" viewBox="0 0 512.000000 512.000000"
 preserveAspectRatio="xMidYMid meet">

<g transform="translate(0.000000,512.000000) scale(0.100000,-0.100000)"
fill="#000000" stroke="none">
<path d="M1928 5031 c-38 -24 -53 -43 -83 -106 -70 -147 -119 -325 -132 -480
-3 -41 -8 -75 -11 -75 -3 0 -35 20 -71 44 -130 85 -300 160 -444 197 -99 25
-146 17 -203 -33 -62 -54 -69 -78 -67 -213 2 -153 24 -280 74 -425 22 -63 42
-124 46 -134 6 -17 2 -18 -38 -12 -227 37 -398 33 -592 -11 -110 -24 -169 -90
-170 -188 -1 -39 8 -68 41 -133 71 -141 200 -315 299 -402 29 -25 41 -41 32
-44 -202 -60 -368 -142 -513 -254 -131 -101 -129 -233 7 -340 141 -112 295
-195 460 -247 l98 -31 -66 -61 c-62 -57 -66 -64 -63 -99 4 -47 43 -80 82 -70
14 3 56 34 94 68 159 145 353 245 577 299 128 30 128 30 148 -48 22 -86 99
-247 162 -338 l48 -69 -44 -39 c-152 -135 -378 -248 -599 -298 -166 -38 -470
-33 -583 10 -37 14 -35 46 8 128 42 78 43 96 10 128 -52 53 -99 26 -156 -88
-31 -61 -41 -93 -41 -128 0 -159 133 -221 472 -223 91 -1 191 2 224 7 53 7 58
6 53 -10 -3 -10 -19 -57 -36 -105 -67 -192 -99 -457 -67 -542 21 -54 71 -101
126 -117 104 -31 416 77 619 215 l81 55 0 -50 c0 -176 94 -523 172 -631 51
-72 168 -93 248 -46 107 62 285 257 376 409 l42 70 50 -83 c98 -160 281 -361
374 -409 77 -39 191 -15 238 50 80 113 163 386 177 581 3 50 7 90 9 90 2 0 45
-27 96 -61 145 -95 266 -151 428 -195 103 -29 149 -30 199 -4 92 46 116 108
107 269 -8 138 -34 268 -80 404 l-34 99 36 -7 c143 -27 412 -22 548 10 114 26
174 93 174 192 0 103 -142 335 -310 506 l-105 107 40 11 c182 45 423 169 552
282 96 85 95 209 -4 298 -103 93 -281 194 -442 250 l-92 32 84 86 c140 144
287 364 302 451 15 91 -47 188 -139 215 -142 43 -415 58 -581 34 -42 -6 -78
-9 -81 -7 -2 3 5 25 16 49 25 56 25 94 0 119 -25 25 -81 27 -102 3 -9 -10 -34
-58 -57 -107 -56 -121 -137 -240 -232 -340 -71 -75 -214 -196 -232 -196 -4 0
-44 37 -90 83 -84 85 -195 170 -279 213 -27 13 -48 29 -48 35 0 25 76 171 137
263 124 187 330 367 527 460 92 44 210 84 271 92 72 10 78 0 70 -124 -7 -99
-6 -105 16 -128 29 -31 73 -31 103 -1 20 20 25 38 31 123 4 66 3 115 -5 143
-13 49 -67 113 -110 131 -97 40 -392 -54 -611 -195 l-66 -43 -7 85 c-12 163
-72 379 -139 506 -39 74 -96 111 -172 111 -70 0 -126 -34 -249 -153 -110 -107
-199 -220 -254 -322 -20 -38 -39 -69 -42 -69 -3 0 -23 34 -44 75 -22 41 -68
112 -102 158 -73 97 -256 276 -307 301 -57 26 -135 21 -189 -13z m236 -223
c57 -57 121 -128 144 -159 104 -144 181 -311 223 -484 25 -107 42 -285 34
-361 l-6 -61 -77 -7 c-139 -12 -281 -47 -403 -100 l-36 -15 -41 83 c-23 46
-57 130 -76 187 -101 305 -86 653 40 938 50 112 64 111 198 -21z m978 85 c19
-22 64 -134 90 -223 29 -103 48 -236 48 -349 l0 -103 -68 -73 c-85 -91 -167
-214 -231 -344 -27 -55 -51 -105 -53 -110 -2 -7 -21 -5 -53 4 -27 7 -75 19
-105 25 l-55 10 -1 138 c-1 141 -12 231 -45 364 -19 77 -19 77 2 130 69 176
223 380 379 504 61 49 70 52 92 27z m-1923 -448 c156 -49 293 -123 433 -233
46 -36 59 -52 64 -81 33 -202 66 -314 140 -470 30 -63 53 -115 52 -116 -2 -1
-40 -32 -85 -68 l-81 -65 -59 50 c-86 74 -239 173 -346 223 l-93 43 -51 109
c-81 170 -115 303 -128 499 -7 96 -6 103 14 123 13 13 29 20 39 17 9 -3 55
-17 101 -31z m-309 -790 c250 -37 505 -154 677 -309 l52 -47 -46 -67 c-59 -85
-137 -248 -159 -332 -10 -36 -20 -68 -23 -72 -16 -19 -255 50 -388 112 -266
124 -529 386 -628 622 -14 35 -14 39 4 57 13 13 46 22 107 31 49 6 96 13 104
15 44 8 217 3 300 -10z m3698 -32 c64 -10 112 -23 125 -34 l22 -18 -39 -77
c-73 -144 -212 -311 -336 -406 l-70 -53 -152 3 c-160 4 -289 -10 -423 -46
l-70 -18 -48 99 c-27 54 -47 100 -45 101 88 52 273 226 355 334 48 61 63 74
103 86 177 53 370 62 578 29z m-1898 -48 c338 -51 616 -255 765 -560 65 -131
93 -230 104 -360 24 -283 -59 -544 -243 -763 -42 -50 -46 -85 -14 -119 34 -36
75 -31 123 17 l42 41 64 -48 c305 -230 500 -594 525 -984 7 -104 0 -129 -36
-129 -40 0 -201 54 -296 99 -149 71 -246 141 -369 265 -117 118 -183 208 -251
346 -62 125 -62 124 -14 145 46 21 60 40 60 84 0 29 -38 71 -64 71 -6 0 -56
-20 -111 -45 -166 -74 -234 -88 -425 -89 -130 -1 -181 3 -240 18 -618 154
-950 791 -721 1381 128 330 448 582 807 634 92 13 190 12 294 -4z m-1870 -710
c124 -75 301 -143 458 -174 l87 -18 2 -110 1 -109 -86 -17 c-122 -23 -229 -60
-358 -121 l-110 -53 -90 18 c-173 35 -344 110 -496 219 -88 63 -103 80 -93
109 13 39 222 164 360 217 61 23 234 72 259 74 4 0 34 -16 66 -35z m3545 0
c180 -40 380 -129 510 -227 95 -72 95 -85 -10 -160 -251 -182 -601 -275 -895
-239 -110 14 -267 49 -275 61 -3 5 -1 40 6 77 14 90 14 291 -1 377 -10 57 -10
70 1 77 16 9 133 37 212 50 79 12 371 2 452 -16z m-635 -735 c111 -29 292 -51
402 -49 l97 3 75 -58 c142 -109 279 -273 360 -434 48 -94 46 -113 -17 -129
-172 -42 -419 -36 -617 17 -26 7 -43 22 -65 57 -77 123 -261 314 -375 389 -22
15 -39 30 -38 33 2 3 23 48 48 99 24 50 47 92 50 92 3 0 39 -9 80 -20z m-1947
-463 c29 -24 66 -53 83 -65 l31 -21 -47 -93 c-60 -116 -104 -241 -129 -365
-17 -80 -25 -101 -48 -120 -164 -140 -359 -245 -534 -290 -142 -36 -144 -35
-136 97 10 168 56 345 124 485 43 87 47 91 91 106 118 38 345 172 447 263 28
25 54 45 58 46 5 0 32 -19 60 -43z m341 -201 c113 -42 217 -66 332 -74 l89 -7
-1 -145 c-1 -116 -7 -167 -27 -257 -43 -190 -120 -359 -232 -513 -53 -72 -207
-227 -248 -249 -24 -13 -29 -12 -46 3 -25 22 -84 169 -110 272 -61 243 -53
499 25 739 26 79 111 265 121 265 3 0 46 -15 97 -34z m928 -302 c24 -38 73
-103 107 -144 l63 -75 -5 -160 c-7 -210 -42 -354 -128 -527 -35 -73 -56 -68
-166 40 -112 109 -200 228 -264 357 l-49 100 21 65 c39 122 59 251 66 416 l6
160 101 25 101 24 51 -106 c29 -59 72 -138 96 -175z"/>
<path d="M2380 3431 c-162 -35 -298 -106 -418 -217 -111 -102 -212 -256 -212
-323 0 -33 39 -71 72 -71 27 0 66 44 108 121 21 38 68 97 117 146 70 70 98 90
185 132 115 56 218 81 328 81 110 0 213 -25 328 -81 87 -42 115 -62 185 -132
45 -45 97 -108 116 -140 79 -135 118 -310 101 -461 -21 -182 -83 -310 -215
-441 -150 -151 -304 -215 -515 -215 -211 0 -365 64 -515 215 -134 134 -199
272 -220 468 -8 80 -28 107 -78 107 -34 0 -58 -18 -70 -52 -11 -31 13 -187 43
-281 96 -298 351 -527 660 -592 91 -19 268 -19 359 0 344 72 613 342 688 690
24 110 19 280 -10 396 -58 223 -211 430 -399 542 -189 112 -427 152 -638 108z"/>
<path d="M2509 3171 c-49 -40 -18 -131 46 -131 38 0 75 37 75 75 0 62 -72 96
-121 56z"/>
<path d="M2272 3027 c-31 -33 -29 -80 4 -106 30 -24 43 -26 77 -10 25 11 47
47 47 75 0 8 -11 26 -25 39 -31 32 -74 33 -103 2z"/>
<path d="M2742 3027 c-31 -33 -29 -80 4 -106 15 -12 33 -21 40 -21 28 0 63 24
74 49 30 74 -64 136 -118 78z"/>
<path d="M2031 2884 c-27 -34 -26 -57 2 -90 47 -54 127 -24 127 47 0 66 -88
95 -129 43z"/>
<path d="M2501 2884 c-27 -34 -26 -57 2 -90 47 -54 127 -24 127 47 0 66 -88
95 -129 43z"/>
<path d="M2971 2884 c-29 -36 -26 -60 9 -96 25 -24 36 -29 58 -24 89 21 78
146 -12 146 -25 0 -40 -7 -55 -26z"/>
<path d="M2293 2770 c-26 -11 -43 -40 -43 -74 0 -63 89 -90 129 -40 27 34 26
57 -1 88 -27 29 -55 38 -85 26z"/>
<path d="M2773 2772 c-29 -4 -53 -38 -53 -74 0 -65 89 -93 129 -42 26 33 26
54 1 86 -21 28 -42 36 -77 30z"/>
<path d="M2053 2628 c-48 -23 -51 -103 -4 -127 78 -42 154 64 85 118 -29 23
-48 25 -81 9z"/>
<path d="M2523 2628 c-48 -23 -51 -103 -4 -127 78 -42 154 64 85 118 -29 23
-48 25 -81 9z"/>
<path d="M2994 2628 c-22 -10 -44 -47 -44 -74 0 -26 47 -64 80 -64 65 0 93 77
45 125 -26 27 -47 30 -81 13z"/>
<path d="M2276 2479 c-52 -41 -19 -129 49 -129 32 0 64 30 71 67 5 26 1 37
-19 57 -31 31 -65 33 -101 5z"/>
<path d="M2746 2479 c-36 -28 -36 -80 0 -108 54 -42 118 -13 118 54 0 67 -64
96 -118 54z"/>
<path d="M2042 2343 c-12 -10 -24 -30 -28 -45 -5 -22 0 -33 24 -58 36 -35 60
-38 96 -9 52 41 23 129 -43 129 -16 0 -38 -8 -49 -17z"/>
<path d="M2517 2349 c-46 -27 -41 -105 9 -128 35 -16 48 -14 78 10 51 40 23
129 -41 129 -16 0 -36 -5 -46 -11z"/>
<path d="M2987 2349 c-46 -27 -41 -105 9 -128 35 -16 48 -14 78 10 70 55 -10
163 -87 118z"/>
<path d="M2270 2200 c-11 -11 -20 -33 -20 -50 0 -69 80 -97 128 -44 27 31 28
54 1 88 -26 33 -79 36 -109 6z"/>
<path d="M2740 2200 c-11 -11 -20 -33 -20 -49 0 -71 80 -101 127 -47 28 33 29
56 2 90 -26 33 -79 36 -109 6z"/>
<path d="M2509 2061 c-25 -26 -30 -37 -24 -59 10 -41 34 -62 72 -62 90 0 99
125 11 146 -22 5 -34 0 -59 -25z"/>
</g>
</svg>
