<?xml version="1.0" standalone="no"?>
<!DOCTYPE svg PUBLIC "-//W3C//DTD SVG 20010904//EN"
 "http://www.w3.org/TR/2001/REC-SVG-20010904/DTD/svg10.dtd">
<svg version="1.0" xmlns="http://www.w3.org/2000/svg"
 width="512.000000pt" height="512.000000pt" viewBox="0 0 512.000000 512.000000"
 preserveAspectRatio="xMidYMid meet">

<g transform="translate(0.000000,512.000000) scale(0.100000,-0.100000)"
fill="#000000" stroke="none">
<path d="M3145 5106 c-16 -7 -102 -87 -191 -177 -216 -221 -289 -342 -351
-578 -20 -78 -25 -123 -26 -236 -1 -77 2 -165 6 -195 l8 -55 -138 136 c-211
209 -218 209 -440 -13 -85 -84 -176 -186 -204 -226 -69 -98 -135 -241 -166
-359 -24 -87 -27 -117 -27 -268 -1 -93 2 -186 7 -205 7 -32 -3 -25 -130 101
-76 75 -148 142 -160 148 -30 15 -89 14 -121 -3 -36 -19 -319 -308 -363 -371
-155 -221 -227 -493 -200 -754 28 -266 131 -483 330 -693 l80 -84 -510 -510
c-281 -280 -519 -526 -530 -546 -10 -21 -19 -51 -19 -68 0 -50 35 -107 80
-130 49 -25 90 -25 138 -1 20 11 266 249 546 530 l510 510 84 -80 c210 -199
427 -302 693 -330 246 -26 513 40 721 177 77 51 380 340 404 386 17 32 18 91
3 121 -6 12 -73 84 -148 161 -75 76 -127 135 -116 131 40 -14 286 -18 374 -5
163 24 333 92 476 191 39 27 139 117 223 202 222 222 222 229 13 441 -128 130
-134 138 -101 132 141 -27 343 -14 500 30 107 31 266 109 350 173 36 27 131
116 212 198 216 219 216 224 -20 454 -152 148 -245 222 -343 269 l-47 23 62
45 c146 109 288 277 371 442 93 186 124 322 132 580 5 186 5 198 -16 238 -15
28 -34 48 -63 63 -40 20 -52 21 -238 16 -121 -3 -221 -11 -265 -21 -313 -70
-581 -242 -759 -487 l-43 -59 -14 32 c-35 84 -137 217 -277 361 -175 178 -214
200 -297 163z m1672 -378 c-10 -172 -74 -357 -171 -491 -127 -178 -330 -319
-534 -372 -74 -19 -264 -37 -274 -26 -12 11 10 208 32 288 88 321 353 581 675
662 98 24 122 28 209 30 l69 1 -6 -92z m-1525 -60 c90 -100 130 -158 169 -244
46 -101 69 -213 69 -337 0 -237 -81 -426 -255 -597 l-76 -75 -76 80 c-42 44
-95 109 -119 145 -169 262 -177 593 -19 862 45 77 197 248 220 248 7 0 47 -37
87 -82z m-969 -958 c178 -189 259 -401 244 -638 -15 -217 -97 -390 -265 -555
l-69 -69 -79 87 c-185 203 -252 378 -241 629 7 165 48 290 140 426 32 47 175
200 188 200 4 0 41 -36 82 -80z m1923 -191 c83 -15 201 -62 275 -111 75 -48
229 -184 229 -203 0 -18 -145 -153 -213 -198 -263 -174 -614 -180 -879 -14
-41 25 -112 82 -159 126 l-84 79 75 77 c170 173 355 254 586 255 61 0 137 -5
170 -11z m-909 -666 c-2 -1 -32 2 -67 7 -96 14 -223 12 -329 -5 -52 -9 -96
-14 -98 -12 -2 2 4 49 13 103 16 97 15 310 -2 374 -4 17 77 -58 239 -220 136
-134 245 -245 244 -247z m-1896 -203 c200 -265 219 -625 49 -912 -24 -40 -82
-112 -129 -161 l-85 -88 -69 68 c-180 178 -259 359 -260 598 -1 239 69 407
247 593 l80 83 59 -58 c32 -32 81 -87 108 -123z m1831 -94 c165 -32 306 -107
441 -236 l82 -79 -60 -61 c-83 -85 -166 -146 -260 -191 -111 -53 -182 -70
-316 -76 -248 -11 -430 60 -632 248 l-78 72 68 69 c213 217 480 307 755 254z
m-906 -663 c-2 -2 -47 1 -100 7 -98 11 -256 2 -351 -20 -22 -5 -40 -8 -41 -7
-1 1 5 36 13 77 16 86 22 277 10 365 l-8 60 240 -240 c132 -131 239 -241 237
-242z m-16 -310 c148 -36 271 -106 400 -229 l81 -78 -68 -68 c-179 -181 -368
-262 -608 -261 -239 1 -420 80 -598 260 l-67 69 82 80 c123 120 219 178 360
219 128 37 287 40 418 8z"/>
</g>
</svg>
