<?xml version="1.0" standalone="no"?>
<!DOCTYPE svg PUBLIC "-//W3C//DTD SVG 20010904//EN"
 "http://www.w3.org/TR/2001/REC-SVG-20010904/DTD/svg10.dtd">
<svg version="1.0" xmlns="http://www.w3.org/2000/svg"
 width="512.000000pt" height="512.000000pt" viewBox="0 0 512.000000 512.000000"
 preserveAspectRatio="xMidYMid meet">

<g transform="translate(0.000000,512.000000) scale(0.100000,-0.100000)"
fill="#000000" stroke="none">
<path d="M4429 4702 c-42 -21 -61 -40 -84 -80 l-30 -51 -201 -1 c-249 0 -284
-8 -360 -84 -86 -87 -84 -70 -84 -718 l0 -558 -28 0 c-15 0 -33 -5 -40 -12
-16 -16 -16 -200 0 -216 7 -7 40 -12 80 -12 l68 0 0 -160 0 -160 -28 0 c-15 0
-33 -5 -40 -12 -9 -9 -12 -224 -12 -907 0 -626 -3 -908 -11 -936 -15 -52 -82
-119 -134 -134 -28 -7 -280 -11 -823 -11 -859 0 -825 -2 -857 60 -11 21 -15
61 -15 145 l0 115 108 0 c71 0 112 4 120 12 8 8 12 49 12 120 l0 108 273 0
c294 0 339 6 421 54 61 36 131 117 158 184 l23 57 0 1265 0 1265 -24 60 c-50
124 -179 218 -318 232 l-53 6 0 66 c0 39 -5 72 -12 79 -17 17 -519 17 -536 0
-7 -7 -12 -40 -12 -80 l0 -68 -189 0 -188 0 -5 104 c-5 113 -19 151 -71 190
-28 20 -39 21 -337 21 -296 0 -310 -1 -336 -21 -61 -45 -69 -66 -72 -190 -3
-88 -7 -114 -17 -114 -8 0 -39 -9 -70 -21 -77 -29 -156 -104 -197 -187 l-33
-67 0 -1270 0 -1270 24 -60 c33 -82 124 -173 206 -206 58 -23 71 -24 352 -27
l293 -3 0 -108 c0 -70 4 -111 12 -119 8 -8 49 -12 119 -12 l107 0 4 -158 c3
-145 5 -161 29 -212 33 -70 89 -126 159 -159 l55 -26 825 -3 c591 -2 842 0
885 8 174 34 318 175 354 348 16 78 15 1854 -1 1870 -7 7 -25 12 -40 12 l-28
0 0 160 0 160 68 0 c40 0 73 5 80 12 16 16 16 200 0 216 -7 7 -25 12 -40 12
l-28 0 0 535 0 536 25 24 c24 25 26 25 202 25 l178 -1 30 -51 c41 -70 110
-108 199 -108 35 0 67 5 74 12 17 17 17 519 0 536 -7 7 -39 12 -74 12 -48 0
-74 -6 -115 -28z m121 -252 l0 -200 -27 0 c-38 0 -89 33 -113 72 -29 48 -29
208 0 256 24 39 75 72 113 72 l27 0 0 -200z m-3060 110 c27 -14 40 -64 40
-151 l0 -79 -330 0 -330 0 0 95 c0 88 2 98 25 120 l24 25 276 0 c161 0 284 -4
295 -10z m2820 -109 l0 -40 -188 -3 c-187 -3 -189 -3 -224 -30 -70 -53 -68
-35 -68 -632 l0 -536 -40 0 -40 0 2 574 3 574 30 43 c17 23 50 53 74 66 42 22
54 23 248 23 l203 0 0 -39z m-1840 -81 l0 -40 -200 0 -200 0 0 40 0 40 200 0
200 0 0 -40z m232 -153 c64 -32 111 -80 142 -146 21 -46 21 -46 21 -1301 l0
-1255 -28 -57 c-32 -64 -80 -111 -146 -142 -46 -21 -51 -21 -981 -21 -930 0
-935 0 -981 21 -66 31 -114 78 -146 142 l-28 57 -3 1225 c-2 865 0 1240 8
1276 22 101 93 181 193 216 49 16 109 17 972 15 l920 -2 57 -28z m1208 -1127
l0 -40 -120 0 -120 0 0 40 0 40 120 0 120 0 0 -40z m-80 -1399 c0 -827 -1
-883 -18 -939 -38 -119 -122 -205 -241 -242 -61 -19 -90 -20 -885 -20 -804 0
-822 1 -866 21 -60 27 -98 64 -126 124 -22 45 -24 64 -24 193 l0 142 40 0 40
0 0 -120 c0 -164 24 -219 115 -261 38 -18 83 -19 836 -19 920 0 866 -5 960 89
95 95 89 30 89 1038 l0 873 40 0 40 0 0 -879z m-1840 -561 l0 -80 -280 0 -280
0 0 80 0 80 280 0 280 0 0 -80z"/>
<path d="M1572 3519 c-84 -14 -200 -56 -282 -102 -102 -57 -250 -205 -307
-307 -149 -267 -149 -573 0 -840 57 -101 205 -250 307 -307 330 -185 726 -138
996 120 283 268 344 683 151 1027 -57 102 -205 250 -307 307 -171 96 -373 133
-558 102z m333 -94 c82 -22 208 -86 277 -140 118 -93 224 -254 264 -405 25
-89 25 -291 0 -380 -57 -212 -206 -394 -401 -490 -120 -59 -189 -74 -335 -74
-146 0 -215 15 -335 75 -404 199 -544 692 -309 1082 101 165 288 296 490 341
84 19 260 14 349 -9z"/>
<path d="M2051 3189 c-64 -12 -162 -61 -209 -104 -89 -79 -142 -201 -142 -323
l0 -65 -31 46 c-96 145 -273 219 -440 184 -89 -18 -148 -42 -156 -63 -7 -20
32 -128 69 -186 42 -66 109 -125 186 -161 63 -30 73 -32 177 -31 76 0 123 6
152 17 l43 16 2 -197 3 -197 23 -3 c51 -8 52 -2 52 313 l0 292 45 6 c93 13
210 91 271 181 65 96 96 253 55 276 -22 11 -38 11 -100 -1z m33 -106 c-12 -54
-57 -136 -96 -175 -63 -63 -208 -123 -208 -85 1 24 47 124 75 161 48 62 151
123 213 125 19 1 22 -3 16 -26z m-689 -238 c73 -19 145 -64 185 -115 35 -44
74 -126 66 -139 -11 -17 -98 -33 -163 -29 -129 7 -241 84 -297 202 -15 32 -26
60 -24 62 8 8 115 33 143 33 17 1 58 -6 90 -14z"/>
</g>
</svg>
