<?xml version="1.0" standalone="no"?>
<!DOCTYPE svg PUBLIC "-//W3C//DTD SVG 20010904//EN"
 "http://www.w3.org/TR/2001/REC-SVG-20010904/DTD/svg10.dtd">
<svg version="1.0" xmlns="http://www.w3.org/2000/svg"
 width="512.000000pt" height="512.000000pt" viewBox="0 0 512.000000 512.000000"
 preserveAspectRatio="xMidYMid meet">

<g transform="translate(0.000000,512.000000) scale(0.100000,-0.100000)"
fill="#000000" stroke="none">
<path d="M682 5107 c-107 -34 -311 -313 -398 -544 -14 -38 -38 -115 -52 -173
l-26 -105 -3 -631 -4 -630 -32 -12 c-50 -18 -100 -65 -132 -123 l-30 -54 -3
-553 c-2 -349 1 -566 7 -590 26 -94 118 -185 202 -198 l37 -6 5 -207 c5 -237
18 -296 93 -441 77 -148 196 -267 344 -344 124 -65 210 -86 367 -93 l133 -6
16 -59 c43 -152 179 -281 339 -323 88 -22 1941 -23 2028 0 163 42 285 157 337
317 l22 66 257 5 c225 4 265 7 329 26 280 83 493 297 574 577 l23 79 0 1475 0
1475 -23 79 c-132 455 -597 707 -1042 564 -145 -46 -285 -142 -383 -263 -94
-116 -177 -326 -177 -447 l0 -48 -124 0 -123 0 -7 98 c-10 148 -51 217 -160
274 -31 17 -64 23 -138 26 l-98 4 0 124 0 124 178 0 c97 0 194 5 214 10 59 17
130 71 163 124 28 46 30 57 30 141 0 84 -2 95 -30 141 -33 53 -104 107 -163
124 -50 14 -1294 14 -1344 0 -59 -17 -130 -71 -163 -124 -28 -46 -30 -57 -30
-141 0 -84 2 -95 30 -141 33 -53 104 -107 163 -124 20 -5 117 -10 215 -10
l177 0 0 -124 0 -124 -97 -4 c-75 -3 -108 -9 -139 -26 -109 -57 -150 -126
-160 -274 l-7 -98 -136 0 c-89 0 -157 -5 -194 -15 -162 -42 -286 -158 -341
-318 -21 -62 -21 -62 -24 -1401 l-3 -1339 -102 5 c-85 4 -112 9 -162 33 -76
36 -149 109 -183 183 -24 54 -26 68 -30 238 l-4 181 39 6 c86 14 178 104 204
199 6 24 9 241 7 590 l-3 553 -30 54 c-32 58 -82 105 -132 123 l-33 12 0 686
c0 652 1 691 20 764 23 90 64 168 128 239 86 97 104 188 57 284 -50 99 -164
145 -273 110z m122 -158 c43 -33 35 -70 -30 -147 -30 -37 -75 -107 -99 -157
-75 -155 -75 -153 -75 -930 l0 -685 -125 0 -125 0 0 573 c0 641 4 692 65 875
45 133 104 243 194 360 105 135 139 155 195 111z m2412 5 c86 -41 86 -177 0
-218 -30 -14 -101 -16 -656 -16 -555 0 -626 2 -656 16 -85 41 -86 176 -2 217
29 15 101 17 656 17 557 0 628 -2 658 -16z m-536 -509 l0 -125 -120 0 -120 0
0 125 0 125 120 0 120 0 0 -125z m1758 109 c42 -8 115 -34 162 -56 68 -33 101
-57 171 -127 70 -70 94 -103 127 -171 77 -159 73 -71 70 -1675 l-3 -1430 -23
-70 c-40 -119 -81 -184 -172 -276 -70 -70 -101 -94 -170 -127 -125 -60 -201
-72 -450 -72 l-210 0 0 75 0 75 208 0 c231 0 292 10 394 61 80 41 176 137 217
217 56 111 61 152 61 523 0 324 -1 336 -20 357 -28 29 -82 30 -109 1 -19 -21
-20 -39 -23 -378 l-3 -356 -29 -60 c-38 -76 -105 -143 -181 -181 l-60 -29
-227 -3 -228 -4 0 1566 c0 1562 0 1565 21 1621 29 78 111 164 191 201 55 25
74 29 153 29 78 -1 98 -5 150 -30 76 -36 143 -104 181 -180 l29 -60 3 -956 c2
-942 3 -956 23 -977 27 -30 81 -29 109 0 20 22 20 30 20 957 0 790 -3 946 -15
999 -64 271 -337 447 -607 391 -86 -18 -190 -74 -256 -139 -99 -98 -145 -209
-158 -377 l-6 -92 -50 34 c-26 19 -58 37 -69 40 -20 7 -21 12 -16 89 13 223
152 428 359 531 148 73 280 91 436 59z m-1422 -400 c49 -24 64 -59 64 -154 l0
-80 -520 0 -520 0 0 80 c0 94 14 130 62 153 29 15 86 17 456 17 372 0 428 -2
458 -16z m575 -412 c68 -34 121 -83 154 -143 26 -48 30 -65 33 -161 l4 -108
-970 0 -971 0 -15 -22 c-21 -30 -20 -71 3 -99 l19 -24 966 -3 966 -2 0 -1225
0 -1225 -1220 0 -1220 0 0 1224 0 1224 135 4 c123 3 136 5 156 25 27 27 29 75
4 103 -16 18 -31 20 -157 20 l-138 0 0 88 c0 48 5 103 10 122 25 91 108 176
208 212 43 16 122 17 1017 15 l970 -2 46 -23z m-2852 -877 c61 -31 61 -31 61
-605 0 -578 1 -573 -64 -608 -27 -15 -63 -17 -261 -17 -211 0 -233 2 -262 20
-64 38 -63 29 -63 605 0 570 0 567 58 602 23 15 59 18 265 18 189 0 244 -3
266 -15z m-189 -1542 c0 -243 36 -351 154 -469 104 -104 232 -154 394 -154
l82 0 0 -75 0 -75 -85 0 c-117 0 -224 24 -325 72 -68 33 -101 57 -171 127 -70
70 -94 103 -127 171 -56 117 -72 205 -72 400 l0 160 75 0 75 0 0 -157z m3228
-845 c-3 -91 -7 -109 -33 -157 -33 -60 -86 -109 -154 -143 l-46 -23 -985 0
-985 0 -46 23 c-68 34 -121 83 -154 143 -26 48 -30 66 -33 157 l-4 102 1222 0
1222 0 -4 -102z"/>
<path d="M2470 2619 c-87 -17 -190 -76 -267 -156 -72 -73 -73 -74 -97 -58 -30
20 -66 90 -66 129 0 34 -41 76 -73 76 -14 0 -35 -9 -48 -19 -60 -48 -5 -226
92 -299 52 -39 55 -45 38 -89 -6 -15 -17 -59 -23 -98 l-12 -70 -101 -3 c-113
-3 -136 -16 -136 -73 0 -56 30 -73 142 -77 l98 -4 6 -49 c3 -27 14 -75 24
-106 l18 -56 -25 -16 c-86 -57 -144 -156 -144 -247 -1 -61 12 -80 61 -90 26
-5 37 -1 57 19 15 15 26 37 26 53 0 39 36 109 66 129 24 16 25 15 97 -58 213
-219 498 -219 714 0 72 73 73 73 97 57 30 -19 66 -89 66 -128 0 -16 11 -38 26
-53 20 -20 31 -24 57 -19 49 10 62 29 61 90 0 91 -58 190 -144 247 l-25 16 18
56 c10 31 21 79 24 106 l6 49 98 4 c112 4 142 21 142 77 0 57 -23 70 -137 73
l-101 3 -7 50 c-4 28 -15 76 -24 108 l-17 58 24 16 c85 58 141 155 143 246 1
50 -2 61 -23 78 -13 10 -34 19 -48 19 -32 0 -73 -42 -73 -76 0 -39 -36 -109
-66 -129 -24 -16 -25 -15 -97 58 -129 133 -286 187 -447 156z m230 -176 c104
-50 194 -169 236 -308 13 -43 18 -93 18 -175 0 -174 -46 -300 -149 -405 -145
-148 -345 -148 -490 0 -57 58 -105 142 -131 230 -25 83 -25 267 0 350 83 274
309 409 516 308z"/>
<path d="M2361 2251 c-43 -43 -40 -190 4 -228 74 -65 141 25 121 162 -9 55
-35 85 -76 85 -16 0 -39 -9 -49 -19z"/>
<path d="M2661 2251 c-43 -43 -40 -190 4 -228 74 -65 141 25 121 162 -9 55
-35 85 -76 85 -16 0 -39 -9 -49 -19z"/>
</g>
</svg>
